NotoSerifSinhala-Light.ufo
<glyph name="exclam.sinh" format="2">
  <advance width="278"/>
  <unicode hex="0021"/>
  <outline>
    <contour>
      <point x="126" y="714" type="line"/>
      <point x="129" y="167" type="line"/>
      <point x="154" y="167" type="line"/>
      <point x="155" y="714" type="line"/>
    </contour>
    <contour>
      <point x="139" y="-5" type="curve" smooth="yes"/>
      <point x="155" y="-5"/>
      <point x="168" y="4"/>
      <point x="168" y="35" type="curve" smooth="yes"/>
      <point x="168" y="65"/>
      <point x="155" y="73"/>
      <point x="139" y="73" type="curve" smooth="yes"/>
      <point x="124" y="73"/>
      <point x="110" y="65"/>
      <point x="110" y="35" type="curve" smooth="yes"/>
      <point x="110" y="4"/>
      <point x="124" y="-5"/>
    </contour>
  </outline>
</glyph>
<glyph name="numbersign.sinh" format="2">
  <advance width="567"/>
  <unicode hex="0023"/>
  <outline>
    <contour>
      <point x="138" y="219" type="line"/>
      <point x="97" y="0" type="line"/>
      <point x="125" y="0" type="line"/>
      <point x="166" y="219" type="line"/>
      <point x="344" y="219" type="line"/>
      <point x="303" y="0" type="line"/>
      <point x="331" y="0" type="line"/>
      <point x="372" y="219" type="line"/>
      <point x="506" y="219" type="line"/>
      <point x="506" y="244" type="line"/>
      <point x="377" y="244" type="line"/>
      <point x="420" y="476" type="line"/>
      <point x="538" y="476" type="line"/>
      <point x="538" y="501" type="line"/>
      <point x="425" y="501" type="line"/>
      <point x="465" y="714" type="line"/>
      <point x="437" y="714" type="line"/>
      <point x="397" y="501" type="line"/>
      <point x="219" y="501" type="line"/>
      <point x="259" y="714" type="line"/>
      <point x="231" y="714" type="line"/>
      <point x="191" y="501" type="line"/>
      <point x="61" y="501" type="line"/>
      <point x="61" y="476" type="line"/>
      <point x="186" y="476" type="line"/>
      <point x="143" y="244" type="line"/>
      <point x="29" y="244" type="line"/>
      <point x="29" y="219" type="line"/>
    </contour>
    <contour>
      <point x="349" y="244" type="line"/>
      <point x="171" y="244" type="line"/>
      <point x="214" y="476" type="line"/>
      <point x="392" y="476" type="line"/>
    </contour>
  </outline>
</glyph>
<glyph name="percent.sinh" format="2">
  <advance width="872"/>
  <unicode hex="0025"/>
  <outline>
    <contour>
      <point x="614" y="714" type="line"/>
      <point x="223" y="0" type="line"/>
      <point x="254" y="0" type="line"/>
      <point x="645" y="714" type="line"/>
    </contour>
    <contour>
      <point x="197" y="280" type="curve" smooth="yes"/>
      <point x="299" y="280"/>
      <point x="341" y="371"/>
      <point x="341" y="503" type="curve" smooth="yes"/>
      <point x="341" y="639"/>
      <point x="295" y="724"/>
      <point x="195" y="724" type="curve" smooth="yes"/>
      <point x="98" y="724"/>
      <point x="53" y="637"/>
      <point x="53" y="503" type="curve" smooth="yes"/>
      <point x="53" y="365"/>
      <point x="95" y="280"/>
    </contour>
    <contour>
      <point x="195" y="305" type="curve" smooth="yes"/>
      <point x="115" y="305"/>
      <point x="80" y="376"/>
      <point x="80" y="503" type="curve" smooth="yes"/>
      <point x="80" y="612"/>
      <point x="108" y="699"/>
      <point x="196" y="699" type="curve" smooth="yes"/>
      <point x="277" y="699"/>
      <point x="314" y="632"/>
      <point x="314" y="503" type="curve" smooth="yes"/>
      <point x="314" y="389"/>
      <point x="284" y="305"/>
    </contour>
    <contour>
      <point x="675" y="-10" type="curve" smooth="yes"/>
      <point x="777" y="-10"/>
      <point x="819" y="81"/>
      <point x="819" y="213" type="curve" smooth="yes"/>
      <point x="819" y="349"/>
      <point x="773" y="434"/>
      <point x="673" y="434" type="curve" smooth="yes"/>
      <point x="576" y="434"/>
      <point x="531" y="347"/>
      <point x="531" y="213" type="curve" smooth="yes"/>
      <point x="531" y="75"/>
      <point x="573" y="-10"/>
    </contour>
    <contour>
      <point x="673" y="15" type="curve" smooth="yes"/>
      <point x="593" y="15"/>
      <point x="558" y="86"/>
      <point x="558" y="213" type="curve" smooth="yes"/>
      <point x="558" y="322"/>
      <point x="586" y="409"/>
      <point x="674" y="409" type="curve" smooth="yes"/>
      <point x="755" y="409"/>
      <point x="792" y="342"/>
      <point x="792" y="213" type="curve" smooth="yes"/>
      <point x="792" y="99"/>
      <point x="762" y="15"/>
    </contour>
  </outline>
</glyph>
<glyph name="parenleft.sinh" format="2">
  <advance width="351"/>
  <unicode hex="0028"/>
  <outline>
    <contour>
      <point x="319" y="-264" type="curve"/>
      <point x="319" y="-237" type="line"/>
      <point x="154" y="-164"/>
      <point x="88" y="27"/>
      <point x="88" y="270" type="curve" smooth="yes"/>
      <point x="88" y="513"/>
      <point x="154" y="704"/>
      <point x="319" y="777" type="curve"/>
      <point x="319" y="804" type="line"/>
      <point x="171" y="741"/>
      <point x="60" y="596"/>
      <point x="60" y="270" type="curve" smooth="yes"/>
      <point x="60" y="-56"/>
      <point x="171" y="-201"/>
    </contour>
  </outline>
</glyph>
<glyph name="parenright.sinh" format="2">
  <advance width="351"/>
  <unicode hex="0029"/>
  <outline>
    <contour>
      <point x="32" y="804" type="curve"/>
      <point x="32" y="777" type="line"/>
      <point x="197" y="704"/>
      <point x="263" y="513"/>
      <point x="263" y="270" type="curve" smooth="yes"/>
      <point x="263" y="27"/>
      <point x="197" y="-164"/>
      <point x="32" y="-237" type="curve"/>
      <point x="32" y="-264" type="line"/>
      <point x="180" y="-201"/>
      <point x="291" y="-56"/>
      <point x="291" y="270" type="curve" smooth="yes"/>
      <point x="291" y="596"/>
      <point x="180" y="741"/>
    </contour>
  </outline>
</glyph>
<glyph name="asterisk.sinh" format="2">
  <advance width="424"/>
  <unicode hex="002A"/>
  <outline>
    <contour>
      <point x="203" y="593" type="line"/>
      <point x="190" y="417" type="line"/>
      <point x="235" y="417" type="line"/>
      <point x="221" y="593" type="line"/>
      <point x="356" y="508" type="line"/>
      <point x="373" y="545" type="line"/>
      <point x="223" y="608" type="line"/>
      <point x="373" y="671" type="line"/>
      <point x="356" y="711" type="line"/>
      <point x="221" y="623" type="line"/>
      <point x="233" y="799" type="line"/>
      <point x="190" y="799" type="line"/>
      <point x="204" y="624" type="line"/>
      <point x="70" y="713" type="line"/>
      <point x="51" y="672" type="line"/>
      <point x="201" y="608" type="line"/>
      <point x="51" y="544" type="line"/>
      <point x="70" y="506" type="line"/>
    </contour>
  </outline>
</glyph>
<glyph name="plus.sinh" format="2">
  <advance width="559"/>
  <unicode hex="002B"/>
  <outline>
    <contour>
      <point x="265" y="343" type="line"/>
      <point x="265" y="143" type="line"/>
      <point x="293" y="143" type="line"/>
      <point x="293" y="343" type="line"/>
      <point x="494" y="343" type="line"/>
      <point x="494" y="370" type="line"/>
      <point x="293" y="370" type="line"/>
      <point x="293" y="572" type="line"/>
      <point x="265" y="572" type="line"/>
      <point x="265" y="370" type="line"/>
      <point x="65" y="370" type="line"/>
      <point x="65" y="343" type="line"/>
    </contour>
  </outline>
</glyph>
<glyph name="comma.sinh" format="2">
  <advance width="202"/>
  <unicode hex="002C"/>
  <outline>
    <contour>
      <point x="92" y="73" type="curve" smooth="yes"/>
      <point x="73" y="73"/>
      <point x="62" y="61"/>
      <point x="62" y="46" type="curve" smooth="yes"/>
      <point x="62" y="5"/>
      <point x="119" y="17"/>
      <point x="119" y="-38" type="curve" smooth="yes"/>
      <point x="119" y="-81"/>
      <point x="94" y="-112"/>
      <point x="40" y="-133" type="curve"/>
      <point x="40" y="-158" type="line"/>
      <point x="129" y="-123"/>
      <point x="147" y="-73"/>
      <point x="147" y="-19" type="curve" smooth="yes"/>
      <point x="147" y="42"/>
      <point x="119" y="73"/>
    </contour>
  </outline>
</glyph>
<glyph name="period.sinh" format="2">
  <advance width="202"/>
  <unicode hex="002E"/>
  <outline>
    <contour>
      <point x="101" y="-5" type="curve" smooth="yes"/>
      <point x="117" y="-5"/>
      <point x="130" y="4"/>
      <point x="130" y="35" type="curve" smooth="yes"/>
      <point x="130" y="65"/>
      <point x="117" y="73"/>
      <point x="101" y="73" type="curve" smooth="yes"/>
      <point x="86" y="73"/>
      <point x="72" y="65"/>
      <point x="72" y="35" type="curve" smooth="yes"/>
      <point x="72" y="4"/>
      <point x="86" y="-5"/>
    </contour>
  </outline>
</glyph>
<glyph name="four.sinh" format="2">
  <advance width="559"/>
  <unicode hex="0034"/>
  <outline>
    <contour>
      <point x="265" y="20" type="line"/>
      <point x="265" y="0" type="line"/>
      <point x="496" y="0" type="line"/>
      <point x="496" y="20" type="line"/>
      <point x="457" y="20" type="line" smooth="yes"/>
      <point x="407" y="20"/>
      <point x="401" y="31"/>
      <point x="401" y="108" type="curve" smooth="yes"/>
      <point x="401" y="208" type="line"/>
      <point x="543" y="208" type="line"/>
      <point x="543" y="233" type="line"/>
      <point x="401" y="233" type="line"/>
      <point x="401" y="714" type="line"/>
      <point x="373" y="714" type="line"/>
      <point x="21" y="225" type="line"/>
      <point x="21" y="208" type="line"/>
      <point x="374" y="208" type="line"/>
      <point x="374" y="108" type="line" smooth="yes"/>
      <point x="374" y="31"/>
      <point x="368" y="20"/>
      <point x="318" y="20" type="curve" smooth="yes"/>
    </contour>
    <contour>
      <point x="374" y="233" type="line"/>
      <point x="56" y="233" type="line"/>
      <point x="257" y="512" type="line" smooth="yes"/>
      <point x="293" y="562"/>
      <point x="363" y="662"/>
      <point x="376" y="685" type="curve"/>
      <point x="375" y="623"/>
      <point x="374" y="507"/>
      <point x="374" y="449" type="curve" smooth="yes"/>
    </contour>
  </outline>
</glyph>
<glyph name="five.sinh" format="2">
  <advance width="559"/>
  <unicode hex="0035"/>
  <outline>
    <contour>
      <point x="248" y="-10" type="curve" smooth="yes"/>
      <point x="393" y="-10"/>
      <point x="470" y="84"/>
      <point x="470" y="217" type="curve" smooth="yes"/>
      <point x="470" y="354"/>
      <point x="373" y="423"/>
      <point x="262" y="423" type="curve" smooth="yes"/>
      <point x="205" y="423"/>
      <point x="169" y="413"/>
      <point x="136" y="401" type="curve"/>
      <point x="161" y="684" type="line"/>
      <point x="357" y="684" type="line" smooth="yes"/>
      <point x="412" y="684"/>
      <point x="420" y="682"/>
      <point x="422" y="629" type="curve" smooth="yes"/>
      <point x="423" y="601" type="line"/>
      <point x="443" y="601" type="line"/>
      <point x="440" y="712" type="line"/>
      <point x="138" y="712" type="line"/>
      <point x="108" y="373" type="line"/>
      <point x="123" y="369" type="line"/>
      <point x="159" y="387"/>
      <point x="205" y="398"/>
      <point x="260" y="398" type="curve" smooth="yes"/>
      <point x="365" y="398"/>
      <point x="442" y="337"/>
      <point x="442" y="216" type="curve" smooth="yes"/>
      <point x="442" y="93"/>
      <point x="373" y="15"/>
      <point x="247" y="15" type="curve" smooth="yes"/>
      <point x="173" y="15"/>
      <point x="97" y="45"/>
      <point x="97" y="126" type="curve"/>
      <point x="86" y="126"/>
      <point x="74" y="119"/>
      <point x="74" y="93" type="curve" smooth="yes"/>
      <point x="74" y="39"/>
      <point x="141" y="-10"/>
    </contour>
  </outline>
</glyph>
<glyph name="seven.sinh" format="2">
  <advance width="559"/>
  <unicode hex="0037"/>
  <outline>
    <contour>
      <point x="463" y="684" type="line"/>
      <point x="183" y="0" type="line"/>
      <point x="213" y="0" type="line"/>
      <point x="493" y="690" type="line"/>
      <point x="493" y="712" type="line"/>
      <point x="65" y="712" type="line"/>
      <point x="59" y="568" type="line"/>
      <point x="79" y="568" type="line"/>
      <point x="83" y="631" type="line" smooth="yes"/>
      <point x="86" y="680"/>
      <point x="97" y="684"/>
      <point x="133" y="684" type="curve" smooth="yes"/>
    </contour>
  </outline>
</glyph>
<glyph name="semicolon.sinh" format="2">
  <advance width="220"/>
  <unicode hex="003B"/>
  <outline>
    <contour>
      <point x="110" y="439" type="curve" smooth="yes"/>
      <point x="126" y="439"/>
      <point x="139" y="448"/>
      <point x="139" y="479" type="curve" smooth="yes"/>
      <point x="139" y="509"/>
      <point x="126" y="517"/>
      <point x="110" y="517" type="curve" smooth="yes"/>
      <point x="95" y="517"/>
      <point x="81" y="509"/>
      <point x="81" y="479" type="curve" smooth="yes"/>
      <point x="81" y="448"/>
      <point x="95" y="439"/>
    </contour>
    <component base="comma.sinh" xOffset="9"/>
  </outline>
</glyph>
<glyph name="equal.sinh" format="2">
  <advance width="559"/>
  <unicode hex="003D"/>
  <outline>
    <contour>
      <point x="67" y="478" type="line"/>
      <point x="67" y="451" type="line"/>
      <point x="490" y="451" type="line"/>
      <point x="490" y="478" type="line"/>
    </contour>
    <contour>
      <point x="67" y="262" type="line"/>
      <point x="67" y="235" type="line"/>
      <point x="490" y="235" type="line"/>
      <point x="490" y="262" type="line"/>
    </contour>
  </outline>
</glyph>
<glyph name="bracketleft.sinh" format="2">
  <advance width="300"/>
  <unicode hex="005B"/>
  <outline>
    <contour>
      <point x="101" y="799" type="line"/>
      <point x="101" y="-259" type="line"/>
      <point x="258" y="-259" type="line"/>
      <point x="258" y="-239" type="line"/>
      <point x="185" y="-239" type="line" smooth="yes"/>
      <point x="135" y="-239"/>
      <point x="128" y="-228"/>
      <point x="128" y="-171" type="curve" smooth="yes"/>
      <point x="128" y="702" type="line" smooth="yes"/>
      <point x="128" y="768"/>
      <point x="135" y="779"/>
      <point x="185" y="779" type="curve" smooth="yes"/>
      <point x="258" y="779" type="line"/>
      <point x="258" y="799" type="line"/>
    </contour>
  </outline>
</glyph>
<glyph name="backslash.sinh" format="2">
  <advance width="388"/>
  <unicode hex="005C"/>
  <outline>
    <contour>
      <point x="352" y="-259" type="line"/>
      <point x="64" y="799" type="line"/>
      <point x="36" y="799" type="line"/>
      <point x="324" y="-259" type="line"/>
    </contour>
  </outline>
</glyph>
<glyph name="bracketright.sinh" format="2">
  <advance width="300"/>
  <unicode hex="005D"/>
  <outline>
    <contour>
      <point x="199" y="-259" type="line"/>
      <point x="199" y="799" type="line"/>
      <point x="42" y="799" type="line"/>
      <point x="42" y="779" type="line"/>
      <point x="115" y="779" type="line" smooth="yes"/>
      <point x="165" y="779"/>
      <point x="172" y="768"/>
      <point x="172" y="711" type="curve" smooth="yes"/>
      <point x="172" y="-162" type="line" smooth="yes"/>
      <point x="172" y="-228"/>
      <point x="165" y="-239"/>
      <point x="115" y="-239" type="curve" smooth="yes"/>
      <point x="42" y="-239" type="line"/>
      <point x="42" y="-259" type="line"/>
    </contour>
  </outline>
</glyph>
<glyph name="braceleft.sinh" format="2">
  <advance width="370"/>
  <unicode hex="007B"/>
  <outline>
    <contour>
      <point x="328" y="-259" type="line"/>
      <point x="328" y="-234" type="line"/>
      <point x="306" y="-234" type="line" smooth="yes"/>
      <point x="237" y="-234"/>
      <point x="197" y="-196"/>
      <point x="197" y="-99" type="curve" smooth="yes"/>
      <point x="197" y="130" type="line" smooth="yes"/>
      <point x="197" y="215"/>
      <point x="154" y="259"/>
      <point x="86" y="269" type="curve"/>
      <point x="86" y="271" type="line"/>
      <point x="154" y="281"/>
      <point x="197" y="325"/>
      <point x="197" y="410" type="curve" smooth="yes"/>
      <point x="197" y="639" type="line" smooth="yes"/>
      <point x="197" y="736"/>
      <point x="237" y="774"/>
      <point x="306" y="774" type="curve" smooth="yes"/>
      <point x="328" y="774" type="line"/>
      <point x="328" y="799" type="line"/>
      <point x="306" y="799" type="line" smooth="yes"/>
      <point x="227" y="799"/>
      <point x="170" y="754"/>
      <point x="170" y="647" type="curve" smooth="yes"/>
      <point x="170" y="414" type="line" smooth="yes"/>
      <point x="170" y="310"/>
      <point x="115" y="289"/>
      <point x="40" y="282" type="curve"/>
      <point x="40" y="258" type="line"/>
      <point x="115" y="251"/>
      <point x="170" y="230"/>
      <point x="170" y="126" type="curve" smooth="yes"/>
      <point x="170" y="-106" type="line" smooth="yes"/>
      <point x="170" y="-214"/>
      <point x="227" y="-259"/>
      <point x="306" y="-259" type="curve" smooth="yes"/>
    </contour>
  </outline>
</glyph>
<glyph name="bar.sinh" format="2">
  <advance width="551"/>
  <unicode hex="007C"/>
  <outline>
    <contour>
      <point x="262" y="799" type="line"/>
      <point x="262" y="-259" type="line"/>
      <point x="289" y="-259" type="line"/>
      <point x="289" y="799" type="line"/>
    </contour>
  </outline>
</glyph>
<glyph name="braceright.sinh" format="2">
  <advance width="370"/>
  <unicode hex="007D"/>
  <outline>
    <contour>
      <point x="42" y="799" type="line"/>
      <point x="42" y="774" type="line"/>
      <point x="64" y="774" type="line" smooth="yes"/>
      <point x="133" y="774"/>
      <point x="173" y="736"/>
      <point x="173" y="639" type="curve" smooth="yes"/>
      <point x="173" y="410" type="line" smooth="yes"/>
      <point x="173" y="325"/>
      <point x="216" y="281"/>
      <point x="284" y="271" type="curve"/>
      <point x="284" y="269" type="line"/>
      <point x="216" y="259"/>
      <point x="173" y="215"/>
      <point x="173" y="130" type="curve" smooth="yes"/>
      <point x="173" y="-99" type="line" smooth="yes"/>
      <point x="173" y="-196"/>
      <point x="133" y="-234"/>
      <point x="64" y="-234" type="curve" smooth="yes"/>
      <point x="42" y="-234" type="line"/>
      <point x="42" y="-259" type="line"/>
      <point x="64" y="-259" type="line" smooth="yes"/>
      <point x="143" y="-259"/>
      <point x="200" y="-214"/>
      <point x="200" y="-107" type="curve" smooth="yes"/>
      <point x="200" y="126" type="line" smooth="yes"/>
      <point x="200" y="230"/>
      <point x="255" y="251"/>
      <point x="330" y="258" type="curve"/>
      <point x="330" y="282" type="line"/>
      <point x="255" y="289"/>
      <point x="200" y="310"/>
      <point x="200" y="414" type="curve" smooth="yes"/>
      <point x="200" y="646" type="line" smooth="yes"/>
      <point x="200" y="754"/>
      <point x="143" y="799"/>
      <point x="64" y="799" type="curve"/>
    </contour>
  </outline>
</glyph>
<glyph name="asciitilde.sinh" format="2">
  <advance width="559"/>
  <unicode hex="007E"/>
  <outline>
    <contour>
      <point x="64" y="277" type="curve"/>
      <point x="92" y="277" type="line"/>
      <point x="109" y="363"/>
      <point x="124" y="409"/>
      <point x="176" y="409" type="curve" smooth="yes"/>
      <point x="220" y="409"/>
      <point x="246" y="370"/>
      <point x="273" y="342" type="curve" smooth="yes"/>
      <point x="313" y="300"/>
      <point x="342" y="277"/>
      <point x="382" y="277" type="curve" smooth="yes"/>
      <point x="462" y="277"/>
      <point x="479" y="360"/>
      <point x="494" y="436" type="curve"/>
      <point x="466" y="436" type="line"/>
      <point x="449" y="350"/>
      <point x="433" y="304"/>
      <point x="382" y="304" type="curve" smooth="yes"/>
      <point x="350" y="304"/>
      <point x="328" y="322"/>
      <point x="285" y="370" type="curve" smooth="yes"/>
      <point x="251" y="407"/>
      <point x="221" y="436"/>
      <point x="177" y="436" type="curve" smooth="yes"/>
      <point x="96" y="436"/>
      <point x="79" y="353"/>
    </contour>
  </outline>
</glyph>
<glyph name="divide.sinh" format="2">
  <advance width="559"/>
  <unicode hex="00F7"/>
  <outline>
    <contour>
      <point x="65" y="370" type="line"/>
      <point x="65" y="343" type="line"/>
      <point x="494" y="343" type="line"/>
      <point x="494" y="370" type="line"/>
    </contour>
    <contour>
      <point x="280" y="144" type="curve" smooth="yes"/>
      <point x="302" y="144"/>
      <point x="321" y="155"/>
      <point x="321" y="186" type="curve" smooth="yes"/>
      <point x="321" y="219"/>
      <point x="302" y="229"/>
      <point x="280" y="229" type="curve" smooth="yes"/>
      <point x="257" y="229"/>
      <point x="239" y="219"/>
      <point x="239" y="186" type="curve" smooth="yes"/>
      <point x="239" y="155"/>
      <point x="257" y="144"/>
    </contour>
    <contour>
      <point x="280" y="485" type="curve" smooth="yes"/>
      <point x="302" y="485"/>
      <point x="321" y="496"/>
      <point x="321" y="528" type="curve" smooth="yes"/>
      <point x="321" y="560"/>
      <point x="302" y="570"/>
      <point x="280" y="570" type="curve" smooth="yes"/>
      <point x="257" y="570"/>
      <point x="239" y="560"/>
      <point x="239" y="528" type="curve" smooth="yes"/>
      <point x="239" y="496"/>
      <point x="257" y="485"/>
    </contour>
  </outline>
</glyph>
<glyph name="dbldanda.sinh" format="2">
  <advance width="482"/>
  <unicode hex="0965"/>
  <outline>
    <contour>
      <point x="191" y="662" type="line"/>
      <point x="191" y="-65" type="line"/>
      <point x="218" y="-65" type="line"/>
      <point x="218" y="662" type="line"/>
    </contour>
    <contour>
      <point x="373" y="662" type="line"/>
      <point x="373" y="-65" type="line"/>
      <point x="400" y="-65" type="line"/>
      <point x="400" y="662" type="line"/>
    </contour>
  </outline>
</glyph>
<glyph name="anusvarasinh" format="2">
  <advance width="460"/>
  <unicode hex="0D82"/>
  <outline>
    <contour>
      <point x="36" y="265" type="curve" smooth="yes"/>
      <point x="36" y="140"/>
      <point x="108" y="66"/>
      <point x="229" y="66" type="curve" smooth="yes"/>
      <point x="352" y="66"/>
      <point x="424" y="141"/>
      <point x="424" y="265" type="curve" smooth="yes"/>
      <point x="424" y="382"/>
      <point x="350" y="464"/>
      <point x="230" y="464" type="curve" smooth="yes"/>
      <point x="109" y="464"/>
      <point x="36" y="381"/>
    </contour>
    <contour>
      <point x="63" y="265" type="curve" smooth="yes"/>
      <point x="63" y="374"/>
      <point x="129" y="439"/>
      <point x="229" y="439" type="curve" smooth="yes"/>
      <point x="333" y="439"/>
      <point x="397" y="374"/>
      <point x="397" y="264" type="curve" smooth="yes"/>
      <point x="397" y="170"/>
      <point x="349" y="93"/>
      <point x="229" y="93" type="curve" smooth="yes"/>
      <point x="113" y="93"/>
      <point x="63" y="166"/>
    </contour>
  </outline>
</glyph>
<glyph name="visargasinh" format="2">
  <advance width="304"/>
  <unicode hex="0D83"/>
  <outline>
    <contour>
      <point x="270" y="418" type="curve" smooth="yes"/>
      <point x="270" y="486"/>
      <point x="226" y="533"/>
      <point x="151" y="533" type="curve" smooth="yes"/>
      <point x="81" y="533"/>
      <point x="34" y="484"/>
      <point x="34" y="416" type="curve" smooth="yes"/>
      <point x="34" y="353"/>
      <point x="72" y="301"/>
      <point x="153" y="301" type="curve" smooth="yes"/>
      <point x="223" y="301"/>
      <point x="270" y="348"/>
    </contour>
    <contour>
      <point x="243" y="420" type="curve" smooth="yes"/>
      <point x="243" y="358"/>
      <point x="206" y="326"/>
      <point x="150" y="326" type="curve" smooth="yes"/>
      <point x="87" y="326"/>
      <point x="61" y="370"/>
      <point x="61" y="414" type="curve" smooth="yes"/>
      <point x="61" y="474"/>
      <point x="97" y="508"/>
      <point x="152" y="508" type="curve" smooth="yes"/>
      <point x="213" y="508"/>
      <point x="243" y="468"/>
    </contour>
    <contour>
      <point x="270" y="117" type="curve" smooth="yes"/>
      <point x="270" y="185"/>
      <point x="226" y="232"/>
      <point x="151" y="232" type="curve" smooth="yes"/>
      <point x="81" y="232"/>
      <point x="34" y="183"/>
      <point x="34" y="115" type="curve" smooth="yes"/>
      <point x="34" y="52"/>
      <point x="72" y="0"/>
      <point x="153" y="0" type="curve" smooth="yes"/>
      <point x="223" y="0"/>
      <point x="270" y="47"/>
    </contour>
    <contour>
      <point x="243" y="119" type="curve" smooth="yes"/>
      <point x="243" y="56"/>
      <point x="206" y="25"/>
      <point x="150" y="25" type="curve" smooth="yes"/>
      <point x="87" y="25"/>
      <point x="61" y="69"/>
      <point x="61" y="113" type="curve" smooth="yes"/>
      <point x="61" y="173"/>
      <point x="97" y="207"/>
      <point x="152" y="207" type="curve" smooth="yes"/>
      <point x="213" y="207"/>
      <point x="243" y="167"/>
    </contour>
  </outline>
</glyph>
<glyph name="asinh" format="2">
  <advance width="668"/>
  <unicode hex="0D85"/>
  <outline>
    <contour>
      <point x="299" y="-10" type="curve" smooth="yes"/>
      <point x="434" y="-10"/>
      <point x="510" y="18"/>
      <point x="591" y="58" type="curve"/>
      <point x="580" y="82" type="line"/>
      <point x="486" y="36"/>
      <point x="418" y="16"/>
      <point x="300" y="16" type="curve" smooth="yes"/>
      <point x="144" y="16"/>
      <point x="68" y="85"/>
      <point x="68" y="213" type="curve" smooth="yes"/>
      <point x="68" y="350"/>
      <point x="176" y="417"/>
      <point x="366" y="417" type="curve" smooth="yes"/>
      <point x="452" y="417" type="line"/>
      <point x="452" y="424" type="line" smooth="yes"/>
      <point x="452" y="526"/>
      <point x="383" y="589"/>
      <point x="293" y="589" type="curve" smooth="yes"/>
      <point x="222" y="589"/>
      <point x="176" y="547"/>
      <point x="176" y="495" type="curve" smooth="yes"/>
      <point x="176" y="474"/>
      <point x="181" y="451"/>
      <point x="190" y="436" type="curve"/>
      <point x="214" y="444" type="line"/>
      <point x="206" y="459"/>
      <point x="203" y="475"/>
      <point x="203" y="492" type="curve" smooth="yes"/>
      <point x="203" y="526"/>
      <point x="225" y="564"/>
      <point x="294" y="564" type="curve" smooth="yes"/>
      <point x="376" y="564"/>
      <point x="420" y="507"/>
      <point x="431" y="442" type="curve"/>
      <point x="365" y="442" type="line" smooth="yes"/>
      <point x="166" y="442"/>
      <point x="40" y="370"/>
      <point x="40" y="213" type="curve" smooth="yes"/>
      <point x="40" y="76"/>
      <point x="121" y="-10"/>
    </contour>
    <contour>
      <point x="430" y="-226" type="line"/>
      <point x="456" y="-226" type="line"/>
      <point x="456" y="370" type="line" smooth="yes"/>
      <point x="456" y="452"/>
      <point x="494" y="516"/>
      <point x="555" y="573" type="curve"/>
      <point x="535" y="590" type="line"/>
      <point x="464" y="513"/>
      <point x="430" y="445"/>
      <point x="430" y="363" type="curve" smooth="yes"/>
    </contour>
    <contour>
      <point x="545" y="256" type="curve" smooth="yes"/>
      <point x="600" y="256"/>
      <point x="640" y="283"/>
      <point x="640" y="344" type="curve" smooth="yes"/>
      <point x="640" y="384"/>
      <point x="623" y="408"/>
      <point x="584" y="452" type="curve" smooth="yes"/>
      <point x="545" y="496"/>
      <point x="538" y="511"/>
      <point x="538" y="534" type="curve" smooth="yes"/>
      <point x="538" y="540"/>
      <point x="538" y="552"/>
      <point x="544" y="567" type="curve"/>
      <point x="516" y="538" type="line"/>
      <point x="516" y="501"/>
      <point x="523" y="479"/>
      <point x="566" y="433" type="curve" smooth="yes"/>
      <point x="599" y="398"/>
      <point x="613" y="373"/>
      <point x="613" y="343" type="curve" smooth="yes"/>
      <point x="613" y="294"/>
      <point x="578" y="281"/>
      <point x="545" y="281" type="curve" smooth="yes"/>
      <point x="502" y="281"/>
      <point x="472" y="297"/>
      <point x="444" y="322" type="curve"/>
      <point x="436" y="296" type="line"/>
      <point x="463" y="274"/>
      <point x="500" y="256"/>
    </contour>
  </outline>
</glyph>
<glyph name="isinh" format="2">
  <advance width="706"/>
  <unicode hex="0D89"/>
  <outline>
    <contour>
      <point x="265" y="96" type="curve" smooth="yes"/>
      <point x="373" y="96"/>
      <point x="460" y="150"/>
      <point x="460" y="295" type="curve" smooth="yes"/>
      <point x="460" y="364"/>
      <point x="423" y="411"/>
      <point x="356" y="411" type="curve" smooth="yes"/>
      <point x="296" y="411"/>
      <point x="255" y="368"/>
      <point x="255" y="308" type="curve" smooth="yes"/>
      <point x="255" y="246"/>
      <point x="296" y="211"/>
      <point x="354" y="211" type="curve" smooth="yes"/>
      <point x="403" y="211"/>
      <point x="428" y="239"/>
      <point x="443" y="271" type="curve"/>
      <point x="438" y="269" type="line"/>
      <point x="425" y="180"/>
      <point x="372" y="121"/>
      <point x="265" y="121" type="curve" smooth="yes"/>
      <point x="150" y="121"/>
      <point x="69" y="184"/>
      <point x="69" y="326" type="curve" smooth="yes"/>
      <point x="69" y="465"/>
      <point x="175" y="564"/>
      <point x="353" y="564" type="curve" smooth="yes"/>
      <point x="557" y="564"/>
      <point x="637" y="442"/>
      <point x="637" y="297" type="curve" smooth="yes"/>
      <point x="637" y="124"/>
      <point x="557" y="25"/>
      <point x="344" y="25" type="curve" smooth="yes"/>
      <point x="316" y="25" type="line"/>
      <point x="315" y="0" type="line"/>
      <point x="337" y="0" type="line" smooth="yes"/>
      <point x="588" y="0"/>
      <point x="664" y="125"/>
      <point x="664" y="298" type="curve" smooth="yes"/>
      <point x="664" y="455"/>
      <point x="574" y="589"/>
      <point x="353" y="589" type="curve" smooth="yes"/>
      <point x="151" y="589"/>
      <point x="42" y="469"/>
      <point x="42" y="327" type="curve" smooth="yes"/>
      <point x="42" y="169"/>
      <point x="136" y="96"/>
    </contour>
    <contour>
      <point x="356" y="236" type="curve" smooth="yes"/>
      <point x="302" y="236"/>
      <point x="281" y="268"/>
      <point x="281" y="308" type="curve" smooth="yes"/>
      <point x="281" y="350"/>
      <point x="305" y="386"/>
      <point x="356" y="386" type="curve" smooth="yes"/>
      <point x="403" y="386"/>
      <point x="431" y="357"/>
      <point x="431" y="311" type="curve" smooth="yes"/>
      <point x="431" y="269"/>
      <point x="408" y="236"/>
    </contour>
    <contour>
      <point x="219" y="-8" type="curve"/>
      <point x="194" y="1" type="line"/>
      <point x="182" y="-24"/>
      <point x="174" y="-55"/>
      <point x="174" y="-86" type="curve" smooth="yes"/>
      <point x="174" y="-163"/>
      <point x="220" y="-240"/>
      <point x="348" y="-240" type="curve" smooth="yes"/>
      <point x="469" y="-240"/>
      <point x="524" y="-183"/>
      <point x="524" y="-88" type="curve" smooth="yes"/>
      <point x="524" y="-43"/>
      <point x="510" y="-5"/>
      <point x="476" y="33" type="curve"/>
      <point x="454" y="17" type="line"/>
      <point x="478" y="-2"/>
      <point x="497" y="-40"/>
      <point x="497" y="-87" type="curve" smooth="yes"/>
      <point x="497" y="-170"/>
      <point x="452" y="-215"/>
      <point x="348" y="-215" type="curve" smooth="yes"/>
      <point x="248" y="-215"/>
      <point x="202" y="-164"/>
      <point x="202" y="-86" type="curve" smooth="yes"/>
      <point x="202" y="-57"/>
      <point x="208" y="-29"/>
    </contour>
  </outline>
</glyph>
<glyph name="iisinh" format="2">
  <advance width="658"/>
  <unicode hex="0D8A"/>
  <outline>
    <contour>
      <point x="329" y="-10" type="curve" smooth="yes"/>
      <point x="502" y="-10"/>
      <point x="614" y="95"/>
      <point x="614" y="282" type="curve" smooth="yes"/>
      <point x="614" y="443"/>
      <point x="502" y="572"/>
      <point x="329" y="572" type="curve" smooth="yes"/>
      <point x="167" y="572"/>
      <point x="44" y="453"/>
      <point x="44" y="282" type="curve" smooth="yes"/>
      <point x="44" y="102"/>
      <point x="148" y="-10"/>
    </contour>
    <contour>
      <point x="330" y="17" type="curve" smooth="yes"/>
      <point x="198" y="17"/>
      <point x="71" y="83"/>
      <point x="71" y="280" type="curve" smooth="yes"/>
      <point x="71" y="449"/>
      <point x="189" y="547"/>
      <point x="329" y="547" type="curve" smooth="yes"/>
      <point x="462" y="547"/>
      <point x="587" y="455"/>
      <point x="587" y="284" type="curve" smooth="yes"/>
      <point x="587" y="84"/>
      <point x="461" y="17"/>
    </contour>
    <contour>
      <point x="219" y="539" type="curve"/>
      <point x="279" y="557" type="line"/>
      <point x="391" y="625"/>
      <point x="560" y="752"/>
      <point x="643" y="828" type="curve"/>
      <point x="626" y="848" type="line"/>
      <point x="537" y="766"/>
      <point x="378" y="647"/>
    </contour>
    <contour>
      <point x="366" y="717" type="curve" smooth="yes"/>
      <point x="366" y="766"/>
      <point x="332" y="798"/>
      <point x="284" y="798" type="curve" smooth="yes"/>
      <point x="236" y="798"/>
      <point x="202" y="766"/>
      <point x="202" y="717" type="curve" smooth="yes"/>
      <point x="202" y="668"/>
      <point x="236" y="636"/>
      <point x="284" y="636" type="curve" smooth="yes"/>
      <point x="332" y="636"/>
      <point x="366" y="668"/>
    </contour>
    <contour>
      <point x="341" y="717" type="curve" smooth="yes"/>
      <point x="341" y="685"/>
      <point x="320" y="660"/>
      <point x="284" y="660" type="curve" smooth="yes"/>
      <point x="248" y="660"/>
      <point x="227" y="685"/>
      <point x="227" y="717" type="curve" smooth="yes"/>
      <point x="227" y="749"/>
      <point x="248" y="774"/>
      <point x="284" y="774" type="curve" smooth="yes"/>
      <point x="320" y="774"/>
      <point x="341" y="749"/>
    </contour>
    <contour>
      <point x="634" y="615" type="curve" smooth="yes"/>
      <point x="634" y="664"/>
      <point x="600" y="696"/>
      <point x="552" y="696" type="curve" smooth="yes"/>
      <point x="504" y="696"/>
      <point x="470" y="664"/>
      <point x="470" y="615" type="curve" smooth="yes"/>
      <point x="470" y="566"/>
      <point x="504" y="534"/>
      <point x="552" y="534" type="curve" smooth="yes"/>
      <point x="600" y="534"/>
      <point x="634" y="566"/>
    </contour>
    <contour>
      <point x="609" y="615" type="curve" smooth="yes"/>
      <point x="609" y="583"/>
      <point x="588" y="558"/>
      <point x="552" y="558" type="curve" smooth="yes"/>
      <point x="516" y="558"/>
      <point x="495" y="583"/>
      <point x="495" y="615" type="curve" smooth="yes"/>
      <point x="495" y="647"/>
      <point x="516" y="672"/>
      <point x="552" y="672" type="curve" smooth="yes"/>
      <point x="588" y="672"/>
      <point x="609" y="647"/>
    </contour>
  </outline>
</glyph>
<glyph name="usinh" format="2">
  <advance width="733"/>
  <unicode hex="0D8B"/>
  <outline>
    <contour>
      <point x="375" y="-230" type="curve" smooth="yes"/>
      <point x="616" y="-230"/>
      <point x="718" y="-109"/>
      <point x="718" y="104" type="curve" smooth="yes"/>
      <point x="718" y="117"/>
      <point x="716" y="138"/>
      <point x="713" y="158" type="curve"/>
      <point x="686" y="155" type="line"/>
      <point x="689" y="134"/>
      <point x="691" y="117"/>
      <point x="691" y="102" type="curve" smooth="yes"/>
      <point x="691" y="-99"/>
      <point x="593" y="-203"/>
      <point x="375" y="-203" type="curve" smooth="yes"/>
      <point x="160" y="-203"/>
      <point x="61" y="-88"/>
      <point x="61" y="85" type="curve" smooth="yes"/>
      <point x="61" y="300"/>
      <point x="217" y="417"/>
      <point x="509" y="417" type="curve" smooth="yes"/>
      <point x="632" y="417" type="line"/>
      <point x="632" y="424" type="line" smooth="yes"/>
      <point x="632" y="523"/>
      <point x="558" y="589"/>
      <point x="462" y="589" type="curve" smooth="yes"/>
      <point x="385" y="589"/>
      <point x="339" y="547"/>
      <point x="339" y="495" type="curve" smooth="yes"/>
      <point x="339" y="480"/>
      <point x="342" y="459"/>
      <point x="348" y="447" type="curve"/>
      <point x="373" y="453" type="line"/>
      <point x="368" y="464"/>
      <point x="366" y="478"/>
      <point x="366" y="492" type="curve" smooth="yes"/>
      <point x="366" y="526"/>
      <point x="388" y="564"/>
      <point x="463" y="564" type="curve" smooth="yes"/>
      <point x="551" y="564"/>
      <point x="595" y="507"/>
      <point x="606" y="442" type="curve"/>
      <point x="509" y="442" type="line" smooth="yes"/>
      <point x="210" y="442"/>
      <point x="33" y="320"/>
      <point x="33" y="85" type="curve" smooth="yes"/>
      <point x="33" y="-94"/>
      <point x="134" y="-230"/>
    </contour>
  </outline>
</glyph>
<glyph name="lvocalicsinh" format="2">
  <advance width="992"/>
  <unicode hex="0D8F"/>
  <outline>
    <contour>
      <point x="768" y="415" type="curve"/>
      <point x="793" y="409" type="line"/>
      <point x="798" y="424"/>
      <point x="803" y="449"/>
      <point x="803" y="469" type="curve" smooth="yes"/>
      <point x="803" y="539"/>
      <point x="760" y="589"/>
      <point x="680" y="589" type="curve" smooth="yes"/>
      <point x="586" y="589"/>
      <point x="517" y="520"/>
      <point x="517" y="424" type="curve" smooth="yes"/>
      <point x="517" y="417" type="line"/>
      <point x="556" y="417" type="line" smooth="yes"/>
      <point x="727" y="417"/>
      <point x="798" y="360"/>
      <point x="798" y="234" type="curve" smooth="yes"/>
      <point x="798" y="105"/>
      <point x="701" y="17"/>
      <point x="495" y="17" type="curve" smooth="yes"/>
      <point x="290" y="17"/>
      <point x="194" y="107"/>
      <point x="194" y="237" type="curve" smooth="yes"/>
      <point x="194" y="368"/>
      <point x="276" y="417"/>
      <point x="431" y="417" type="curve" smooth="yes"/>
      <point x="475" y="417" type="line"/>
      <point x="475" y="424" type="line" smooth="yes"/>
      <point x="475" y="523"/>
      <point x="401" y="589"/>
      <point x="311" y="589" type="curve" smooth="yes"/>
      <point x="245" y="589"/>
      <point x="194" y="546"/>
      <point x="194" y="495" type="curve" smooth="yes"/>
      <point x="194" y="465"/>
      <point x="202" y="444"/>
      <point x="215" y="421" type="curve"/>
      <point x="239" y="431" type="line"/>
      <point x="226" y="453"/>
      <point x="221" y="470"/>
      <point x="221" y="492" type="curve" smooth="yes"/>
      <point x="221" y="526"/>
      <point x="243" y="564"/>
      <point x="312" y="564" type="curve" smooth="yes"/>
      <point x="394" y="564"/>
      <point x="438" y="507"/>
      <point x="449" y="442" type="curve"/>
      <point x="456" y="442" type="line"/>
      <point x="421" y="442" type="line" smooth="yes"/>
      <point x="253" y="442"/>
      <point x="167" y="372"/>
      <point x="167" y="237" type="curve" smooth="yes"/>
      <point x="167" y="86"/>
      <point x="280" y="-10"/>
      <point x="495" y="-10" type="curve" smooth="yes"/>
      <point x="718" y="-10"/>
      <point x="825" y="88"/>
      <point x="825" y="235" type="curve" smooth="yes"/>
      <point x="825" y="363"/>
      <point x="756" y="442"/>
      <point x="566" y="442" type="curve" smooth="yes"/>
      <point x="534" y="442" type="line"/>
      <point x="543" y="441" type="line"/>
      <point x="552" y="508"/>
      <point x="600" y="564"/>
      <point x="677" y="564" type="curve" smooth="yes"/>
      <point x="761" y="564"/>
      <point x="776" y="512"/>
      <point x="776" y="468" type="curve" smooth="yes"/>
      <point x="776" y="450"/>
      <point x="772" y="429"/>
    </contour>
    <contour>
      <point x="43" y="332" type="curve" smooth="yes"/>
      <point x="43" y="211"/>
      <point x="100" y="122"/>
      <point x="182" y="50" type="curve"/>
      <point x="200" y="69" type="line"/>
      <point x="124" y="134"/>
      <point x="70" y="217"/>
      <point x="70" y="331" type="curve" smooth="yes"/>
      <point x="70" y="479"/>
      <point x="170" y="567"/>
      <point x="290" y="567" type="curve" smooth="yes"/>
      <point x="295" y="567"/>
      <point x="305" y="567"/>
      <point x="313" y="566" type="curve"/>
      <point x="337" y="584" type="line"/>
      <point x="321" y="587"/>
      <point x="305" y="589"/>
      <point x="293" y="589" type="curve" smooth="yes"/>
      <point x="156" y="589"/>
      <point x="43" y="495"/>
    </contour>
    <contour>
      <point x="949" y="339" type="curve" smooth="yes"/>
      <point x="949" y="495"/>
      <point x="836" y="589"/>
      <point x="706" y="589" type="curve" smooth="yes"/>
      <point x="687" y="589"/>
      <point x="671" y="587"/>
      <point x="655" y="584" type="curve"/>
      <point x="679" y="566" type="line"/>
      <point x="687" y="567"/>
      <point x="697" y="567"/>
      <point x="711" y="567" type="curve" smooth="yes"/>
      <point x="822" y="567"/>
      <point x="922" y="479"/>
      <point x="922" y="339" type="curve" smooth="yes"/>
      <point x="922" y="217"/>
      <point x="868" y="134"/>
      <point x="792" y="69" type="curve"/>
      <point x="810" y="50" type="line"/>
      <point x="892" y="122"/>
      <point x="949" y="211"/>
    </contour>
  </outline>
</glyph>
<glyph name="esinh" format="2">
  <advance width="758"/>
  <unicode hex="0D91"/>
  <outline>
    <contour>
      <point x="327" y="-10" type="curve" smooth="yes"/>
      <point x="578" y="-10"/>
      <point x="715" y="162"/>
      <point x="715" y="400" type="curve" smooth="yes"/>
      <point x="715" y="674"/>
      <point x="510" y="789"/>
      <point x="262" y="812" type="curve"/>
      <point x="259" y="787" type="line"/>
      <point x="485" y="770"/>
      <point x="688" y="668"/>
      <point x="688" y="401" type="curve" smooth="yes"/>
      <point x="688" y="178"/>
      <point x="559" y="17"/>
      <point x="328" y="17" type="curve" smooth="yes"/>
      <point x="168" y="17"/>
      <point x="83" y="81"/>
      <point x="83" y="214" type="curve" smooth="yes"/>
      <point x="83" y="331"/>
      <point x="154" y="397"/>
      <point x="293" y="421" type="curve"/>
      <point x="239" y="417" type="line"/>
      <point x="406" y="417" type="line"/>
      <point x="406" y="424" type="line" smooth="yes"/>
      <point x="406" y="523"/>
      <point x="332" y="589"/>
      <point x="242" y="589" type="curve" smooth="yes"/>
      <point x="171" y="589"/>
      <point x="125" y="547"/>
      <point x="125" y="495" type="curve" smooth="yes"/>
      <point x="125" y="483"/>
      <point x="127" y="466"/>
      <point x="132" y="453" type="curve"/>
      <point x="157" y="458" type="line"/>
      <point x="154" y="467"/>
      <point x="152" y="479"/>
      <point x="152" y="492" type="curve" smooth="yes"/>
      <point x="152" y="526"/>
      <point x="174" y="564"/>
      <point x="243" y="564" type="curve" smooth="yes"/>
      <point x="325" y="564"/>
      <point x="369" y="507"/>
      <point x="380" y="442" type="curve"/>
      <point x="22" y="442" type="line"/>
      <point x="22" y="417" type="line"/>
      <point x="103" y="417" type="line" smooth="yes"/>
      <point x="143" y="417"/>
      <point x="205" y="418"/>
      <point x="240" y="424" type="curve"/>
      <point x="230" y="425" type="line"/>
      <point x="106" y="393"/>
      <point x="56" y="317"/>
      <point x="56" y="214" type="curve" smooth="yes"/>
      <point x="56" y="62"/>
      <point x="154" y="-10"/>
    </contour>
    <contour>
      <point x="458" y="582" type="curve" smooth="yes"/>
      <point x="530" y="582"/>
      <point x="557" y="627"/>
      <point x="583" y="692" type="curve"/>
      <point x="560" y="705" type="line"/>
      <point x="540" y="644"/>
      <point x="510" y="608"/>
      <point x="461" y="608" type="curve" smooth="yes"/>
      <point x="401" y="608"/>
      <point x="371" y="639"/>
      <point x="357" y="697" type="curve" smooth="yes"/>
      <point x="346" y="743"/>
      <point x="333" y="779"/>
      <point x="298" y="798" type="curve"/>
      <point x="275" y="787" type="line"/>
      <point x="295" y="783"/>
      <point x="313" y="766"/>
      <point x="331" y="691" type="curve" smooth="yes"/>
      <point x="346" y="628"/>
      <point x="384" y="582"/>
    </contour>
  </outline>
</glyph>
<glyph name="osinh" format="2">
  <advance width="822"/>
  <unicode hex="0D94"/>
  <outline>
    <contour>
      <point x="569" y="-10" type="curve" smooth="yes"/>
      <point x="709" y="-10"/>
      <point x="774" y="97"/>
      <point x="774" y="346" type="curve" smooth="yes"/>
      <point x="774" y="610"/>
      <point x="665" y="804"/>
      <point x="376" y="804" type="curve" smooth="yes"/>
      <point x="231" y="804"/>
      <point x="155" y="768"/>
      <point x="57" y="708" type="curve"/>
      <point x="73" y="685" type="line"/>
      <point x="162" y="748"/>
      <point x="251" y="779"/>
      <point x="376" y="779" type="curve" smooth="yes"/>
      <point x="646" y="779"/>
      <point x="747" y="595"/>
      <point x="747" y="348" type="curve" smooth="yes"/>
      <point x="747" y="122"/>
      <point x="696" y="17"/>
      <point x="567" y="17" type="curve" smooth="yes"/>
      <point x="460" y="17"/>
      <point x="417" y="89"/>
      <point x="405" y="169" type="curve"/>
      <point x="381" y="169" type="line"/>
      <point x="361" y="99"/>
      <point x="331" y="17"/>
      <point x="220" y="17" type="curve" smooth="yes"/>
      <point x="122" y="17"/>
      <point x="75" y="108"/>
      <point x="75" y="263" type="curve" smooth="yes"/>
      <point x="75" y="411"/>
      <point x="139" y="532"/>
      <point x="201" y="532" type="curve" smooth="yes"/>
      <point x="227" y="532"/>
      <point x="236" y="516"/>
      <point x="236" y="487" type="curve" smooth="yes"/>
      <point x="236" y="453"/>
      <point x="227" y="426"/>
      <point x="227" y="394" type="curve" smooth="yes"/>
      <point x="227" y="297"/>
      <point x="299" y="245"/>
      <point x="409" y="245" type="curve" smooth="yes"/>
      <point x="517" y="245"/>
      <point x="596" y="301"/>
      <point x="596" y="411" type="curve" smooth="yes"/>
      <point x="596" y="506"/>
      <point x="539" y="571"/>
      <point x="437" y="571" type="curve" smooth="yes"/>
      <point x="366" y="571"/>
      <point x="322" y="532"/>
      <point x="322" y="468" type="curve" smooth="yes"/>
      <point x="322" y="423"/>
      <point x="348" y="372"/>
      <point x="422" y="372" type="curve" smooth="yes"/>
      <point x="490" y="372"/>
      <point x="522" y="414"/>
      <point x="522" y="469" type="curve" smooth="yes"/>
      <point x="522" y="500"/>
      <point x="507" y="539"/>
      <point x="465" y="552" type="curve"/>
      <point x="468" y="549" type="line"/>
      <point x="524" y="538"/>
      <point x="570" y="497"/>
      <point x="570" y="413" type="curve" smooth="yes"/>
      <point x="570" y="320"/>
      <point x="511" y="271"/>
      <point x="408" y="271" type="curve" smooth="yes"/>
      <point x="322" y="271"/>
      <point x="253" y="304"/>
      <point x="253" y="394" type="curve" smooth="yes"/>
      <point x="253" y="430"/>
      <point x="262" y="457"/>
      <point x="262" y="488" type="curve" smooth="yes"/>
      <point x="262" y="521"/>
      <point x="249" y="557"/>
      <point x="201" y="557" type="curve" smooth="yes"/>
      <point x="128" y="557"/>
      <point x="48" y="436"/>
      <point x="48" y="263" type="curve" smooth="yes"/>
      <point x="48" y="79"/>
      <point x="115" y="-10"/>
      <point x="218" y="-10" type="curve" smooth="yes"/>
      <point x="320" y="-10"/>
      <point x="366" y="52"/>
      <point x="391" y="126" type="curve"/>
      <point x="416" y="44"/>
      <point x="468" y="-10"/>
    </contour>
    <contour>
      <point x="496" y="471" type="curve" smooth="yes"/>
      <point x="496" y="429"/>
      <point x="473" y="397"/>
      <point x="422" y="397" type="curve" smooth="yes"/>
      <point x="372" y="397"/>
      <point x="348" y="428"/>
      <point x="348" y="468" type="curve" smooth="yes"/>
      <point x="348" y="511"/>
      <point x="375" y="545"/>
      <point x="424" y="545" type="curve" smooth="yes"/>
      <point x="470" y="545"/>
      <point x="496" y="517"/>
    </contour>
  </outline>
</glyph>
<glyph name="oosinh" format="2">
  <advance width="822"/>
  <unicode hex="0D95"/>
  <outline>
    <contour>
      <point x="569" y="-10" type="curve" smooth="yes"/>
      <point x="709" y="-10"/>
      <point x="774" y="84"/>
      <point x="774" y="309" type="curve" smooth="yes"/>
      <point x="774" y="550"/>
      <point x="661" y="723"/>
      <point x="364" y="723" type="curve" smooth="yes"/>
      <point x="248" y="723"/>
      <point x="159" y="710"/>
      <point x="63" y="680" type="curve"/>
      <point x="72" y="655" type="line"/>
      <point x="163" y="685"/>
      <point x="257" y="698"/>
      <point x="364" y="698" type="curve" smooth="yes"/>
      <point x="647" y="698"/>
      <point x="747" y="535"/>
      <point x="747" y="308" type="curve" smooth="yes"/>
      <point x="747" y="108"/>
      <point x="696" y="17"/>
      <point x="567" y="17" type="curve" smooth="yes"/>
      <point x="460" y="17"/>
      <point x="417" y="89"/>
      <point x="405" y="169" type="curve"/>
      <point x="381" y="169" type="line"/>
      <point x="361" y="99"/>
      <point x="331" y="17"/>
      <point x="220" y="17" type="curve" smooth="yes"/>
      <point x="122" y="17"/>
      <point x="75" y="108"/>
      <point x="75" y="263" type="curve" smooth="yes"/>
      <point x="75" y="411"/>
      <point x="139" y="532"/>
      <point x="201" y="532" type="curve" smooth="yes"/>
      <point x="227" y="532"/>
      <point x="236" y="516"/>
      <point x="236" y="487" type="curve" smooth="yes"/>
      <point x="236" y="453"/>
      <point x="227" y="426"/>
      <point x="227" y="394" type="curve" smooth="yes"/>
      <point x="227" y="297"/>
      <point x="299" y="245"/>
      <point x="409" y="245" type="curve" smooth="yes"/>
      <point x="517" y="245"/>
      <point x="596" y="301"/>
      <point x="596" y="411" type="curve" smooth="yes"/>
      <point x="596" y="506"/>
      <point x="539" y="571"/>
      <point x="437" y="571" type="curve" smooth="yes"/>
      <point x="366" y="571"/>
      <point x="322" y="532"/>
      <point x="322" y="468" type="curve" smooth="yes"/>
      <point x="322" y="423"/>
      <point x="348" y="372"/>
      <point x="422" y="372" type="curve" smooth="yes"/>
      <point x="490" y="372"/>
      <point x="522" y="414"/>
      <point x="522" y="469" type="curve" smooth="yes"/>
      <point x="522" y="500"/>
      <point x="507" y="539"/>
      <point x="465" y="552" type="curve"/>
      <point x="468" y="549" type="line"/>
      <point x="524" y="538"/>
      <point x="570" y="497"/>
      <point x="570" y="413" type="curve" smooth="yes"/>
      <point x="570" y="320"/>
      <point x="511" y="271"/>
      <point x="408" y="271" type="curve" smooth="yes"/>
      <point x="322" y="271"/>
      <point x="253" y="304"/>
      <point x="253" y="394" type="curve" smooth="yes"/>
      <point x="253" y="430"/>
      <point x="262" y="457"/>
      <point x="262" y="488" type="curve" smooth="yes"/>
      <point x="262" y="521"/>
      <point x="249" y="557"/>
      <point x="201" y="557" type="curve" smooth="yes"/>
      <point x="128" y="557"/>
      <point x="48" y="436"/>
      <point x="48" y="263" type="curve" smooth="yes"/>
      <point x="48" y="79"/>
      <point x="115" y="-10"/>
      <point x="218" y="-10" type="curve" smooth="yes"/>
      <point x="320" y="-10"/>
      <point x="366" y="52"/>
      <point x="391" y="126" type="curve"/>
      <point x="416" y="44"/>
      <point x="468" y="-10"/>
    </contour>
    <contour>
      <point x="496" y="471" type="curve" smooth="yes"/>
      <point x="496" y="429"/>
      <point x="473" y="397"/>
      <point x="422" y="397" type="curve" smooth="yes"/>
      <point x="372" y="397"/>
      <point x="348" y="428"/>
      <point x="348" y="468" type="curve" smooth="yes"/>
      <point x="348" y="511"/>
      <point x="375" y="545"/>
      <point x="424" y="545" type="curve" smooth="yes"/>
      <point x="470" y="545"/>
      <point x="496" y="517"/>
    </contour>
    <contour>
      <point x="386" y="939" type="curve" smooth="yes"/>
      <point x="190" y="939"/>
      <point x="132" y="864"/>
      <point x="132" y="796" type="curve" smooth="yes"/>
      <point x="132" y="754"/>
      <point x="157" y="717"/>
      <point x="186" y="689" type="curve"/>
      <point x="213" y="698" type="line"/>
      <point x="182" y="724"/>
      <point x="159" y="751"/>
      <point x="159" y="796" type="curve" smooth="yes"/>
      <point x="159" y="859"/>
      <point x="216" y="913"/>
      <point x="386" y="913" type="curve" smooth="yes"/>
      <point x="637" y="913"/>
      <point x="689" y="831"/>
      <point x="689" y="769" type="curve" smooth="yes"/>
      <point x="689" y="717"/>
      <point x="657" y="680"/>
      <point x="602" y="658" type="curve"/>
      <point x="622" y="639" type="line"/>
      <point x="671" y="662"/>
      <point x="716" y="696"/>
      <point x="716" y="771" type="curve" smooth="yes"/>
      <point x="716" y="841"/>
      <point x="657" y="939"/>
    </contour>
  </outline>
</glyph>
<glyph name="kasinh" format="2">
  <advance width="983"/>
  <unicode hex="0D9A"/>
  <outline>
    <contour>
      <point x="511" y="-10" type="curve" smooth="yes"/>
      <point x="618" y="-10"/>
      <point x="659" y="72"/>
      <point x="659" y="196" type="curve" smooth="yes"/>
      <point x="659" y="347"/>
      <point x="566" y="442"/>
      <point x="392" y="442" type="curve" smooth="yes"/>
      <point x="340" y="442"/>
      <point x="298" y="433"/>
      <point x="274" y="427" type="curve"/>
      <point x="245" y="400" type="line"/>
      <point x="282" y="409"/>
      <point x="326" y="417"/>
      <point x="382" y="417" type="curve" smooth="yes"/>
      <point x="563" y="417"/>
      <point x="632" y="323"/>
      <point x="632" y="194" type="curve" smooth="yes"/>
      <point x="632" y="61"/>
      <point x="583" y="17"/>
      <point x="510" y="17" type="curve" smooth="yes"/>
      <point x="455" y="17"/>
      <point x="386" y="48"/>
      <point x="381" y="159" type="curve"/>
      <point x="357" y="159" type="line"/>
      <point x="352" y="61"/>
      <point x="298" y="17"/>
      <point x="231" y="17" type="curve" smooth="yes"/>
      <point x="166" y="17"/>
      <point x="122" y="51"/>
      <point x="122" y="151" type="curve" smooth="yes"/>
      <point x="122" y="164"/>
      <point x="123" y="176"/>
      <point x="126" y="188" type="curve"/>
      <point x="54" y="196" type="line"/>
      <point x="43" y="194" type="line"/>
      <point x="40" y="173" type="line"/>
      <point x="112" y="165" type="line"/>
      <point x="102" y="190" type="line"/>
      <point x="99" y="180"/>
      <point x="96" y="164"/>
      <point x="96" y="153" type="curve" smooth="yes"/>
      <point x="96" y="66"/>
      <point x="132" y="-10"/>
      <point x="228" y="-10" type="curve" smooth="yes"/>
      <point x="306" y="-10"/>
      <point x="351" y="35"/>
      <point x="369" y="105" type="curve"/>
      <point x="381" y="32"/>
      <point x="436" y="-10"/>
    </contour>
    <contour>
      <point x="719" y="-8" type="curve" smooth="yes"/>
      <point x="881" y="-8"/>
      <point x="939" y="91"/>
      <point x="939" y="268" type="curve" smooth="yes"/>
      <point x="939" y="431"/>
      <point x="844" y="589"/>
      <point x="625" y="589" type="curve" smooth="yes"/>
      <point x="454" y="589"/>
      <point x="304" y="492"/>
      <point x="19" y="191" type="curve"/>
      <point x="40" y="173" type="line"/>
      <point x="133" y="281"/>
      <point x="220" y="364"/>
      <point x="293" y="417" type="curve"/>
      <point x="305" y="431" type="line"/>
      <point x="395" y="498"/>
      <point x="492" y="563"/>
      <point x="625" y="563" type="curve" smooth="yes"/>
      <point x="819" y="563"/>
      <point x="912" y="423"/>
      <point x="912" y="267" type="curve" smooth="yes"/>
      <point x="912" y="92"/>
      <point x="853" y="17"/>
      <point x="717" y="17" type="curve" smooth="yes"/>
      <point x="691" y="17"/>
      <point x="664" y="23"/>
      <point x="641" y="31" type="curve"/>
      <point x="634" y="6" type="line"/>
      <point x="669" y="-6"/>
      <point x="698" y="-8"/>
    </contour>
    <contour>
      <point x="156" y="571" type="curve" smooth="yes"/>
      <point x="92" y="571"/>
      <point x="45" y="530"/>
      <point x="45" y="462" type="curve" smooth="yes"/>
      <point x="45" y="424"/>
      <point x="54" y="397"/>
      <point x="67" y="369" type="curve"/>
      <point x="92" y="377" type="line"/>
      <point x="81" y="402"/>
      <point x="73" y="422"/>
      <point x="73" y="464" type="curve" smooth="yes"/>
      <point x="73" y="505"/>
      <point x="100" y="546"/>
      <point x="154" y="546" type="curve" smooth="yes"/>
      <point x="210" y="546"/>
      <point x="249" y="502"/>
      <point x="277" y="421" type="curve"/>
      <point x="299" y="435" type="line"/>
      <point x="270" y="503"/>
      <point x="234" y="571"/>
    </contour>
  </outline>
</glyph>
<glyph name="khasinh" format="2">
  <advance width="827"/>
  <unicode hex="0D9B"/>
  <outline>
    <contour>
      <point x="256" y="-10" type="curve" smooth="yes"/>
      <point x="324" y="-10"/>
      <point x="366" y="36"/>
      <point x="366" y="100" type="curve" smooth="yes"/>
      <point x="366" y="168"/>
      <point x="320" y="206"/>
      <point x="257" y="206" type="curve" smooth="yes"/>
      <point x="186" y="206"/>
      <point x="148" y="160"/>
      <point x="148" y="101" type="curve" smooth="yes"/>
      <point x="148" y="48"/>
      <point x="182" y="21"/>
      <point x="207" y="10" type="curve"/>
      <point x="232" y="4" type="line"/>
      <point x="151" y="30"/>
      <point x="70" y="84"/>
      <point x="70" y="254" type="curve" smooth="yes"/>
      <point x="70" y="409"/>
      <point x="168" y="512"/>
      <point x="310" y="512" type="curve" smooth="yes"/>
      <point x="436" y="512"/>
      <point x="503" y="436"/>
      <point x="503" y="318" type="curve" smooth="yes"/>
      <point x="503" y="240"/>
      <point x="475" y="186"/>
      <point x="447" y="135" type="curve" smooth="yes"/>
      <point x="427" y="97"/>
      <point x="404" y="53"/>
      <point x="382" y="3" type="curve"/>
      <point x="405" y="-9" type="line"/>
      <point x="424" y="36"/>
      <point x="449" y="89"/>
      <point x="470" y="130" type="curve"/>
      <point x="479" y="147" type="line"/>
      <point x="509" y="197"/>
      <point x="530" y="261"/>
      <point x="530" y="319" type="curve" smooth="yes"/>
      <point x="530" y="443"/>
      <point x="458" y="538"/>
      <point x="310" y="538" type="curve" smooth="yes"/>
      <point x="157" y="538"/>
      <point x="43" y="429"/>
      <point x="43" y="254" type="curve" smooth="yes"/>
      <point x="43" y="95"/>
      <point x="124" y="-10"/>
    </contour>
    <contour>
      <point x="618" y="-10" type="curve" smooth="yes"/>
      <point x="708" y="-10"/>
      <point x="779" y="68"/>
      <point x="779" y="330" type="curve" smooth="yes"/>
      <point x="779" y="634"/>
      <point x="648" y="804"/>
      <point x="369" y="804" type="curve" smooth="yes"/>
      <point x="230" y="804"/>
      <point x="136" y="764"/>
      <point x="43" y="705" type="curve"/>
      <point x="59" y="682" type="line"/>
      <point x="156" y="750"/>
      <point x="254" y="779"/>
      <point x="369" y="779" type="curve" smooth="yes"/>
      <point x="640" y="779"/>
      <point x="752" y="607"/>
      <point x="752" y="330" type="curve" smooth="yes"/>
      <point x="752" y="74"/>
      <point x="686" y="17"/>
      <point x="618" y="17" type="curve" smooth="yes"/>
      <point x="564" y="17"/>
      <point x="521" y="48"/>
      <point x="521" y="152" type="curve"/>
      <point x="466" y="152" type="line"/>
      <point x="450" y="128" type="line"/>
      <point x="515" y="128" type="line"/>
      <point x="495" y="138" type="line"/>
      <point x="497" y="74"/>
      <point x="522" y="-10"/>
    </contour>
    <contour>
      <point x="257" y="181" type="curve" smooth="yes"/>
      <point x="314" y="181"/>
      <point x="340" y="147"/>
      <point x="340" y="100" type="curve" smooth="yes"/>
      <point x="340" y="54"/>
      <point x="313" y="14"/>
      <point x="257" y="14" type="curve" smooth="yes"/>
      <point x="208" y="14"/>
      <point x="174" y="46"/>
      <point x="174" y="97" type="curve" smooth="yes"/>
      <point x="174" y="146"/>
      <point x="202" y="181"/>
    </contour>
  </outline>
</glyph>
<glyph name="gasinh" format="2">
  <advance width="859"/>
  <unicode hex="0D9C"/>
  <outline>
    <contour>
      <point x="577" y="-6" type="curve" smooth="yes"/>
      <point x="736" y="-6"/>
      <point x="815" y="93"/>
      <point x="815" y="285" type="curve" smooth="yes"/>
      <point x="815" y="435"/>
      <point x="758" y="589"/>
      <point x="597" y="589" type="curve" smooth="yes"/>
      <point x="475" y="589"/>
      <point x="375" y="491"/>
      <point x="342" y="293" type="curve"/>
      <point x="362" y="288" type="line"/>
      <point x="371" y="291"/>
      <point x="386" y="293"/>
      <point x="403" y="293" type="curve" smooth="yes"/>
      <point x="450" y="293"/>
      <point x="480" y="260"/>
      <point x="480" y="189" type="curve" smooth="yes"/>
      <point x="480" y="91"/>
      <point x="427" y="17"/>
      <point x="289" y="17" type="curve" smooth="yes"/>
      <point x="136" y="17"/>
      <point x="71" y="128"/>
      <point x="71" y="280" type="curve" smooth="yes"/>
      <point x="71" y="451"/>
      <point x="172" y="564"/>
      <point x="325" y="564" type="curve" smooth="yes"/>
      <point x="347" y="564"/>
      <point x="367" y="562"/>
      <point x="380" y="560" type="curve"/>
      <point x="383" y="585" type="line"/>
      <point x="365" y="588"/>
      <point x="342" y="589"/>
      <point x="326" y="589" type="curve" smooth="yes"/>
      <point x="168" y="589"/>
      <point x="44" y="474"/>
      <point x="44" y="279" type="curve" smooth="yes"/>
      <point x="44" y="106"/>
      <point x="127" y="-10"/>
      <point x="288" y="-10" type="curve" smooth="yes"/>
      <point x="450" y="-10"/>
      <point x="507" y="82"/>
      <point x="507" y="188" type="curve" smooth="yes"/>
      <point x="507" y="259"/>
      <point x="477" y="318"/>
      <point x="403" y="318" type="curve" smooth="yes"/>
      <point x="386" y="318"/>
      <point x="374" y="316"/>
      <point x="362" y="312" type="curve"/>
      <point x="371" y="307" type="line"/>
      <point x="401" y="468"/>
      <point x="488" y="563"/>
      <point x="595" y="563" type="curve" smooth="yes"/>
      <point x="735" y="563"/>
      <point x="788" y="430"/>
      <point x="788" y="285" type="curve" smooth="yes"/>
      <point x="788" y="111"/>
      <point x="722" y="19"/>
      <point x="578" y="19" type="curve" smooth="yes"/>
      <point x="539" y="19"/>
      <point x="503" y="27"/>
      <point x="480" y="35" type="curve"/>
      <point x="472" y="9" type="line"/>
      <point x="501" y="1"/>
      <point x="535" y="-6"/>
    </contour>
  </outline>
</glyph>
<glyph name="ghasinh" format="2">
  <advance width="773"/>
  <unicode hex="0D9D"/>
  <outline>
    <contour>
      <point x="236" y="-10" type="curve" smooth="yes"/>
      <point x="275" y="-10"/>
      <point x="321" y="-2"/>
      <point x="347" y="10" type="curve"/>
      <point x="340" y="34" type="line"/>
      <point x="310" y="20"/>
      <point x="270" y="17"/>
      <point x="235" y="17" type="curve" smooth="yes"/>
      <point x="120" y="17"/>
      <point x="75" y="89"/>
      <point x="75" y="189" type="curve" smooth="yes"/>
      <point x="75" y="312"/>
      <point x="147" y="402"/>
      <point x="315" y="421" type="curve"/>
      <point x="253" y="417" type="line"/>
      <point x="372" y="417" type="line"/>
      <point x="372" y="424" type="line" smooth="yes"/>
      <point x="372" y="523"/>
      <point x="298" y="589"/>
      <point x="208" y="589" type="curve" smooth="yes"/>
      <point x="137" y="589"/>
      <point x="91" y="547"/>
      <point x="91" y="495" type="curve" smooth="yes"/>
      <point x="91" y="483"/>
      <point x="93" y="466"/>
      <point x="98" y="453" type="curve"/>
      <point x="123" y="458" type="line"/>
      <point x="120" y="467"/>
      <point x="118" y="479"/>
      <point x="118" y="492" type="curve" smooth="yes"/>
      <point x="118" y="526"/>
      <point x="140" y="564"/>
      <point x="209" y="564" type="curve" smooth="yes"/>
      <point x="291" y="564"/>
      <point x="335" y="507"/>
      <point x="346" y="442" type="curve"/>
      <point x="25" y="442" type="line"/>
      <point x="25" y="417" type="line"/>
      <point x="117" y="417" type="line" smooth="yes"/>
      <point x="157" y="417"/>
      <point x="219" y="419"/>
      <point x="254" y="425" type="curve"/>
      <point x="262" y="428" type="line"/>
      <point x="118" y="407"/>
      <point x="48" y="312"/>
      <point x="48" y="189" type="curve" smooth="yes"/>
      <point x="48" y="59"/>
      <point x="123" y="-10"/>
    </contour>
    <contour>
      <point x="539" y="-10" type="curve" smooth="yes"/>
      <point x="682" y="-10"/>
      <point x="729" y="80"/>
      <point x="729" y="201" type="curve" smooth="yes"/>
      <point x="729" y="362"/>
      <point x="626" y="442"/>
      <point x="436" y="442" type="curve"/>
      <point x="440" y="441" type="line"/>
      <point x="449" y="508"/>
      <point x="497" y="564"/>
      <point x="574" y="564" type="curve" smooth="yes"/>
      <point x="658" y="564"/>
      <point x="673" y="512"/>
      <point x="673" y="468" type="curve" smooth="yes"/>
      <point x="673" y="449"/>
      <point x="669" y="427"/>
      <point x="662" y="407" type="curve"/>
      <point x="687" y="399" type="line"/>
      <point x="694" y="418"/>
      <point x="700" y="446"/>
      <point x="700" y="469" type="curve" smooth="yes"/>
      <point x="700" y="536"/>
      <point x="667" y="589"/>
      <point x="577" y="589" type="curve" smooth="yes"/>
      <point x="483" y="589"/>
      <point x="414" y="520"/>
      <point x="414" y="423" type="curve" smooth="yes"/>
      <point x="414" y="417" type="line"/>
      <point x="435" y="417" type="line" smooth="yes"/>
      <point x="610" y="417"/>
      <point x="702" y="348"/>
      <point x="702" y="201" type="curve" smooth="yes"/>
      <point x="702" y="86"/>
      <point x="659" y="17"/>
      <point x="539" y="17" type="curve" smooth="yes"/>
      <point x="502" y="17"/>
      <point x="462" y="23"/>
      <point x="431" y="36" type="curve"/>
      <point x="421" y="10" type="line"/>
      <point x="449" y="1"/>
      <point x="495" y="-10"/>
    </contour>
    <contour>
      <point x="384" y="193" type="curve" smooth="yes"/>
      <point x="447" y="193"/>
      <point x="475" y="161"/>
      <point x="475" y="122" type="curve" smooth="yes"/>
      <point x="475" y="76"/>
      <point x="448" y="53"/>
      <point x="426" y="37" type="curve"/>
      <point x="421" y="10" type="line"/>
      <point x="446" y="23" type="line"/>
      <point x="477" y="45"/>
      <point x="502" y="76"/>
      <point x="502" y="122" type="curve" smooth="yes"/>
      <point x="502" y="186"/>
      <point x="445" y="218"/>
      <point x="384" y="218" type="curve" smooth="yes"/>
      <point x="306" y="218"/>
      <point x="267" y="169"/>
      <point x="267" y="122" type="curve" smooth="yes"/>
      <point x="267" y="75"/>
      <point x="294" y="43"/>
      <point x="323" y="23" type="curve"/>
      <point x="347" y="10" type="line"/>
      <point x="342" y="37" type="line"/>
      <point x="317" y="57"/>
      <point x="294" y="76"/>
      <point x="294" y="121" type="curve" smooth="yes"/>
      <point x="294" y="161"/>
      <point x="324" y="193"/>
    </contour>
  </outline>
</glyph>
<glyph name="ngasinh" format="2">
  <advance width="820"/>
  <unicode hex="0D9E"/>
  <outline>
    <contour>
      <point x="574" y="-10" type="curve" smooth="yes"/>
      <point x="708" y="-10"/>
      <point x="773" y="97"/>
      <point x="773" y="346" type="curve" smooth="yes"/>
      <point x="773" y="610"/>
      <point x="664" y="804"/>
      <point x="387" y="804" type="curve" smooth="yes"/>
      <point x="254" y="804"/>
      <point x="178" y="768"/>
      <point x="80" y="708" type="curve"/>
      <point x="96" y="685" type="line"/>
      <point x="185" y="748"/>
      <point x="274" y="779"/>
      <point x="387" y="779" type="curve" smooth="yes"/>
      <point x="645" y="779"/>
      <point x="746" y="595"/>
      <point x="746" y="348" type="curve" smooth="yes"/>
      <point x="746" y="122"/>
      <point x="695" y="17"/>
      <point x="573" y="17" type="curve" smooth="yes"/>
      <point x="471" y="17"/>
      <point x="428" y="89"/>
      <point x="416" y="169" type="curve"/>
      <point x="392" y="169" type="line"/>
      <point x="373" y="99"/>
      <point x="342" y="17"/>
      <point x="227" y="17" type="curve" smooth="yes"/>
      <point x="144" y="17"/>
      <point x="87" y="62"/>
      <point x="87" y="158" type="curve" smooth="yes"/>
      <point x="87" y="257"/>
      <point x="143" y="294"/>
      <point x="256" y="330" type="curve" smooth="yes"/>
      <point x="407" y="377"/>
      <point x="440" y="411"/>
      <point x="440" y="474" type="curve" smooth="yes"/>
      <point x="440" y="537"/>
      <point x="388" y="589"/>
      <point x="259" y="589" type="curve" smooth="yes"/>
      <point x="119" y="589"/>
      <point x="23" y="532"/>
      <point x="23" y="449" type="curve" smooth="yes"/>
      <point x="23" y="385"/>
      <point x="65" y="350"/>
      <point x="124" y="350" type="curve" smooth="yes"/>
      <point x="192" y="350"/>
      <point x="225" y="392"/>
      <point x="225" y="450" type="curve" smooth="yes"/>
      <point x="225" y="504"/>
      <point x="193" y="546"/>
      <point x="129" y="546" type="curve" smooth="yes"/>
      <point x="124" y="546"/>
      <point x="117" y="545"/>
      <point x="108" y="543" type="curve"/>
      <point x="94" y="532" type="line"/>
      <point x="133" y="554"/>
      <point x="187" y="564"/>
      <point x="258" y="564" type="curve" smooth="yes"/>
      <point x="364" y="564"/>
      <point x="413" y="531"/>
      <point x="413" y="474" type="curve" smooth="yes"/>
      <point x="413" y="419"/>
      <point x="382" y="396"/>
      <point x="247" y="353" type="curve" smooth="yes"/>
      <point x="118" y="312"/>
      <point x="60" y="260"/>
      <point x="60" y="157" type="curve" smooth="yes"/>
      <point x="60" y="34"/>
      <point x="142" y="-10"/>
      <point x="226" y="-10" type="curve" smooth="yes"/>
      <point x="331" y="-10"/>
      <point x="379" y="52"/>
      <point x="403" y="124" type="curve"/>
      <point x="428" y="42"/>
      <point x="479" y="-10"/>
    </contour>
    <contour>
      <point x="199" y="450" type="curve" smooth="yes"/>
      <point x="199" y="408"/>
      <point x="176" y="375"/>
      <point x="124" y="375" type="curve" smooth="yes"/>
      <point x="70" y="375"/>
      <point x="49" y="407"/>
      <point x="49" y="447" type="curve" smooth="yes"/>
      <point x="49" y="489"/>
      <point x="73" y="525"/>
      <point x="124" y="525" type="curve" smooth="yes"/>
      <point x="171" y="525"/>
      <point x="199" y="496"/>
    </contour>
  </outline>
</glyph>
<glyph name="nngasinh" format="2">
  <advance width="992"/>
  <unicode hex="0D9F"/>
  <outline>
    <contour>
      <point x="710" y="-6" type="curve" smooth="yes"/>
      <point x="869" y="-6"/>
      <point x="948" y="93"/>
      <point x="948" y="285" type="curve" smooth="yes"/>
      <point x="948" y="435"/>
      <point x="891" y="589"/>
      <point x="730" y="589" type="curve" smooth="yes"/>
      <point x="608" y="589"/>
      <point x="508" y="491"/>
      <point x="475" y="293" type="curve"/>
      <point x="495" y="288" type="line"/>
      <point x="504" y="291"/>
      <point x="519" y="293"/>
      <point x="536" y="293" type="curve" smooth="yes"/>
      <point x="583" y="293"/>
      <point x="613" y="260"/>
      <point x="613" y="189" type="curve" smooth="yes"/>
      <point x="613" y="91"/>
      <point x="560" y="17"/>
      <point x="423" y="17" type="curve" smooth="yes"/>
      <point x="265" y="17"/>
      <point x="211" y="133"/>
      <point x="211" y="268" type="curve" smooth="yes"/>
      <point x="211" y="447"/>
      <point x="338" y="524"/>
      <point x="452" y="524" type="curve" smooth="yes"/>
      <point x="467" y="524"/>
      <point x="481" y="524"/>
      <point x="494" y="523" type="curve"/>
      <point x="504" y="556" type="line"/>
      <point x="496" y="543" type="line"/>
      <point x="478" y="547"/>
      <point x="467" y="548"/>
      <point x="453" y="548" type="curve" smooth="yes"/>
      <point x="324" y="548"/>
      <point x="184" y="463"/>
      <point x="184" y="269" type="curve" smooth="yes"/>
      <point x="184" y="104"/>
      <point x="260" y="-10"/>
      <point x="418" y="-10" type="curve" smooth="yes"/>
      <point x="583" y="-10"/>
      <point x="640" y="82"/>
      <point x="640" y="188" type="curve" smooth="yes"/>
      <point x="640" y="259"/>
      <point x="610" y="318"/>
      <point x="536" y="318" type="curve" smooth="yes"/>
      <point x="519" y="318"/>
      <point x="507" y="316"/>
      <point x="495" y="312" type="curve"/>
      <point x="504" y="307" type="line"/>
      <point x="534" y="468"/>
      <point x="621" y="563"/>
      <point x="728" y="563" type="curve" smooth="yes"/>
      <point x="868" y="563"/>
      <point x="921" y="430"/>
      <point x="921" y="285" type="curve" smooth="yes"/>
      <point x="921" y="111"/>
      <point x="855" y="19"/>
      <point x="711" y="19" type="curve" smooth="yes"/>
      <point x="672" y="19"/>
      <point x="636" y="27"/>
      <point x="613" y="35" type="curve"/>
      <point x="605" y="9" type="line"/>
      <point x="634" y="1"/>
      <point x="668" y="-6"/>
    </contour>
    <contour>
      <point x="44" y="314" type="curve" smooth="yes"/>
      <point x="44" y="201"/>
      <point x="83" y="120"/>
      <point x="140" y="34" type="curve"/>
      <point x="164" y="48" type="line"/>
      <point x="107" y="129"/>
      <point x="71" y="208"/>
      <point x="71" y="312" type="curve" smooth="yes"/>
      <point x="71" y="451"/>
      <point x="144" y="564"/>
      <point x="324" y="564" type="curve" smooth="yes"/>
      <point x="396" y="564"/>
      <point x="433" y="555"/>
      <point x="494" y="536" type="curve"/>
      <point x="504" y="556" type="line"/>
      <point x="452" y="574"/>
      <point x="397" y="589"/>
      <point x="321" y="589" type="curve" smooth="yes"/>
      <point x="144" y="589"/>
      <point x="44" y="481"/>
    </contour>
  </outline>
</glyph>
<glyph name="casinh" format="2">
  <advance width="758"/>
  <unicode hex="0DA0"/>
  <outline>
    <contour>
      <point x="323" y="-10" type="curve" smooth="yes"/>
      <point x="578" y="-10"/>
      <point x="715" y="162"/>
      <point x="715" y="418" type="curve" smooth="yes"/>
      <point x="715" y="688"/>
      <point x="547" y="804"/>
      <point x="346" y="804" type="curve" smooth="yes"/>
      <point x="218" y="804"/>
      <point x="141" y="768"/>
      <point x="42" y="708" type="curve"/>
      <point x="58" y="685" type="line"/>
      <point x="147" y="748"/>
      <point x="238" y="779"/>
      <point x="346" y="779" type="curve" smooth="yes"/>
      <point x="532" y="779"/>
      <point x="688" y="674"/>
      <point x="688" y="420" type="curve" smooth="yes"/>
      <point x="688" y="178"/>
      <point x="559" y="17"/>
      <point x="328" y="17" type="curve" smooth="yes"/>
      <point x="168" y="17"/>
      <point x="83" y="81"/>
      <point x="83" y="214" type="curve" smooth="yes"/>
      <point x="83" y="331"/>
      <point x="154" y="397"/>
      <point x="293" y="421" type="curve"/>
      <point x="239" y="417" type="line"/>
      <point x="406" y="417" type="line"/>
      <point x="406" y="424" type="line" smooth="yes"/>
      <point x="406" y="523"/>
      <point x="332" y="589"/>
      <point x="242" y="589" type="curve" smooth="yes"/>
      <point x="171" y="589"/>
      <point x="125" y="547"/>
      <point x="125" y="495" type="curve" smooth="yes"/>
      <point x="125" y="483"/>
      <point x="127" y="466"/>
      <point x="132" y="453" type="curve"/>
      <point x="157" y="458" type="line"/>
      <point x="154" y="467"/>
      <point x="152" y="479"/>
      <point x="152" y="492" type="curve" smooth="yes"/>
      <point x="152" y="526"/>
      <point x="174" y="564"/>
      <point x="243" y="564" type="curve" smooth="yes"/>
      <point x="325" y="564"/>
      <point x="369" y="507"/>
      <point x="380" y="442" type="curve"/>
      <point x="22" y="442" type="line"/>
      <point x="22" y="417" type="line"/>
      <point x="103" y="417" type="line" smooth="yes"/>
      <point x="143" y="417"/>
      <point x="205" y="418"/>
      <point x="240" y="424" type="curve"/>
      <point x="230" y="425" type="line"/>
      <point x="106" y="393"/>
      <point x="56" y="317"/>
      <point x="56" y="214" type="curve" smooth="yes"/>
      <point x="56" y="62"/>
      <point x="154" y="-10"/>
    </contour>
  </outline>
</glyph>
<glyph name="chasinh" format="2">
  <advance width="746"/>
  <unicode hex="0DA1"/>
  <outline>
    <contour>
      <point x="372" y="-10" type="curve" smooth="yes"/>
      <point x="595" y="-10"/>
      <point x="702" y="88"/>
      <point x="702" y="235" type="curve" smooth="yes"/>
      <point x="702" y="361"/>
      <point x="631" y="442"/>
      <point x="435" y="442" type="curve" smooth="yes"/>
      <point x="418" y="442" type="line"/>
      <point x="419" y="428" type="line"/>
      <point x="428" y="514"/>
      <point x="480" y="564"/>
      <point x="552" y="564" type="curve" smooth="yes"/>
      <point x="618" y="564"/>
      <point x="650" y="519"/>
      <point x="650" y="440" type="curve" smooth="yes"/>
      <point x="650" y="346"/>
      <point x="607" y="278"/>
      <point x="522" y="278" type="curve" smooth="yes"/>
      <point x="455" y="278"/>
      <point x="421" y="318"/>
      <point x="421" y="421" type="curve"/>
      <point x="411" y="440" type="line"/>
      <point x="431" y="518" type="line"/>
      <point x="479" y="629"/>
      <point x="581" y="717"/>
      <point x="702" y="754" type="curve"/>
      <point x="694" y="780" type="line"/>
      <point x="557" y="737"/>
      <point x="395" y="607"/>
      <point x="395" y="416" type="curve" smooth="yes"/>
      <point x="395" y="309"/>
      <point x="445" y="253"/>
      <point x="515" y="253" type="curve" smooth="yes"/>
      <point x="618" y="253"/>
      <point x="676" y="335"/>
      <point x="676" y="440" type="curve" smooth="yes"/>
      <point x="676" y="517"/>
      <point x="644" y="589"/>
      <point x="554" y="589" type="curve" smooth="yes"/>
      <point x="478" y="589"/>
      <point x="403" y="522"/>
      <point x="403" y="426" type="curve" smooth="yes"/>
      <point x="403" y="417" type="line"/>
      <point x="440" y="417" type="line" smooth="yes"/>
      <point x="605" y="417"/>
      <point x="675" y="360"/>
      <point x="675" y="234" type="curve" smooth="yes"/>
      <point x="675" y="105"/>
      <point x="578" y="17"/>
      <point x="372" y="17" type="curve" smooth="yes"/>
      <point x="167" y="17"/>
      <point x="71" y="107"/>
      <point x="71" y="237" type="curve" smooth="yes"/>
      <point x="71" y="368"/>
      <point x="153" y="417"/>
      <point x="308" y="417" type="curve" smooth="yes"/>
      <point x="352" y="417" type="line"/>
      <point x="352" y="424" type="line" smooth="yes"/>
      <point x="352" y="523"/>
      <point x="278" y="589"/>
      <point x="188" y="589" type="curve" smooth="yes"/>
      <point x="117" y="589"/>
      <point x="71" y="547"/>
      <point x="71" y="495" type="curve" smooth="yes"/>
      <point x="71" y="465"/>
      <point x="79" y="444"/>
      <point x="92" y="421" type="curve"/>
      <point x="116" y="431" type="line"/>
      <point x="103" y="453"/>
      <point x="98" y="470"/>
      <point x="98" y="492" type="curve" smooth="yes"/>
      <point x="98" y="526"/>
      <point x="120" y="564"/>
      <point x="189" y="564" type="curve" smooth="yes"/>
      <point x="271" y="564"/>
      <point x="315" y="507"/>
      <point x="326" y="442" type="curve"/>
      <point x="333" y="442" type="line"/>
      <point x="298" y="442" type="line" smooth="yes"/>
      <point x="130" y="442"/>
      <point x="44" y="372"/>
      <point x="44" y="237" type="curve" smooth="yes"/>
      <point x="44" y="86"/>
      <point x="157" y="-10"/>
    </contour>
  </outline>
</glyph>
<glyph name="jasinh" format="2">
  <advance width="746"/>
  <unicode hex="0DA2"/>
  <outline>
    <contour>
      <point x="372" y="-10" type="curve" smooth="yes"/>
      <point x="595" y="-10"/>
      <point x="702" y="88"/>
      <point x="702" y="235" type="curve" smooth="yes"/>
      <point x="702" y="363"/>
      <point x="630" y="442"/>
      <point x="434" y="442" type="curve" smooth="yes"/>
      <point x="411" y="442" type="line"/>
      <point x="420" y="442" type="line"/>
      <point x="431" y="513"/>
      <point x="474" y="564"/>
      <point x="561" y="564" type="curve" smooth="yes"/>
      <point x="617" y="564"/>
      <point x="647" y="535"/>
      <point x="647" y="492" type="curve" smooth="yes"/>
      <point x="647" y="451"/>
      <point x="626" y="431"/>
      <point x="586" y="431" type="curve" smooth="yes"/>
      <point x="545" y="431"/>
      <point x="514" y="456"/>
      <point x="514" y="531" type="curve" smooth="yes"/>
      <point x="514" y="663"/>
      <point x="590" y="720"/>
      <point x="702" y="754" type="curve"/>
      <point x="694" y="780" type="line"/>
      <point x="557" y="737"/>
      <point x="489" y="650"/>
      <point x="489" y="533" type="curve" smooth="yes"/>
      <point x="489" y="530" type="line" smooth="yes"/>
      <point x="489" y="440"/>
      <point x="539" y="407"/>
      <point x="587" y="407" type="curve" smooth="yes"/>
      <point x="645" y="407"/>
      <point x="674" y="440"/>
      <point x="674" y="491" type="curve" smooth="yes"/>
      <point x="674" y="550"/>
      <point x="633" y="589"/>
      <point x="561" y="589" type="curve" smooth="yes"/>
      <point x="463" y="589"/>
      <point x="394" y="520"/>
      <point x="394" y="424" type="curve" smooth="yes"/>
      <point x="394" y="417" type="line"/>
      <point x="439" y="417" type="line" smooth="yes"/>
      <point x="604" y="417"/>
      <point x="675" y="360"/>
      <point x="675" y="234" type="curve" smooth="yes"/>
      <point x="675" y="105"/>
      <point x="578" y="17"/>
      <point x="372" y="17" type="curve" smooth="yes"/>
      <point x="167" y="17"/>
      <point x="71" y="107"/>
      <point x="71" y="237" type="curve" smooth="yes"/>
      <point x="71" y="368"/>
      <point x="153" y="417"/>
      <point x="308" y="417" type="curve" smooth="yes"/>
      <point x="352" y="417" type="line"/>
      <point x="352" y="424" type="line" smooth="yes"/>
      <point x="352" y="523"/>
      <point x="278" y="589"/>
      <point x="188" y="589" type="curve" smooth="yes"/>
      <point x="117" y="589"/>
      <point x="71" y="547"/>
      <point x="71" y="495" type="curve" smooth="yes"/>
      <point x="71" y="464"/>
      <point x="79" y="444"/>
      <point x="92" y="421" type="curve"/>
      <point x="116" y="431" type="line"/>
      <point x="103" y="453"/>
      <point x="98" y="470"/>
      <point x="98" y="492" type="curve" smooth="yes"/>
      <point x="98" y="526"/>
      <point x="120" y="564"/>
      <point x="189" y="564" type="curve" smooth="yes"/>
      <point x="271" y="564"/>
      <point x="315" y="507"/>
      <point x="326" y="442" type="curve"/>
      <point x="333" y="442" type="line"/>
      <point x="298" y="442" type="line" smooth="yes"/>
      <point x="130" y="442"/>
      <point x="44" y="372"/>
      <point x="44" y="237" type="curve" smooth="yes"/>
      <point x="44" y="86"/>
      <point x="157" y="-10"/>
    </contour>
  </outline>
</glyph>
<glyph name="nyasinh" format="2">
  <advance width="1189"/>
  <unicode hex="0DA4"/>
  <outline>
    <contour>
      <point x="636" y="-10" type="curve" smooth="yes"/>
      <point x="743" y="-10"/>
      <point x="779" y="68"/>
      <point x="779" y="196" type="curve" smooth="yes"/>
      <point x="779" y="347"/>
      <point x="691" y="442"/>
      <point x="517" y="442" type="curve" smooth="yes"/>
      <point x="465" y="442"/>
      <point x="423" y="433"/>
      <point x="399" y="427" type="curve"/>
      <point x="370" y="400" type="line"/>
      <point x="407" y="409"/>
      <point x="451" y="417"/>
      <point x="507" y="417" type="curve" smooth="yes"/>
      <point x="688" y="417"/>
      <point x="757" y="323"/>
      <point x="757" y="194" type="curve" smooth="yes"/>
      <point x="757" y="61"/>
      <point x="708" y="17"/>
      <point x="635" y="17" type="curve" smooth="yes"/>
      <point x="580" y="17"/>
      <point x="511" y="48"/>
      <point x="506" y="159" type="curve"/>
      <point x="482" y="159" type="line"/>
      <point x="477" y="61"/>
      <point x="423" y="17"/>
      <point x="356" y="17" type="curve" smooth="yes"/>
      <point x="291" y="17"/>
      <point x="247" y="51"/>
      <point x="247" y="151" type="curve" smooth="yes"/>
      <point x="247" y="164"/>
      <point x="248" y="176"/>
      <point x="251" y="188" type="curve"/>
      <point x="179" y="196" type="line"/>
      <point x="168" y="194" type="line"/>
      <point x="165" y="173" type="line"/>
      <point x="237" y="165" type="line"/>
      <point x="227" y="190" type="line"/>
      <point x="224" y="180"/>
      <point x="221" y="164"/>
      <point x="221" y="153" type="curve" smooth="yes"/>
      <point x="221" y="66"/>
      <point x="257" y="-10"/>
      <point x="353" y="-10" type="curve" smooth="yes"/>
      <point x="431" y="-10"/>
      <point x="476" y="35"/>
      <point x="494" y="105" type="curve"/>
      <point x="506" y="32"/>
      <point x="561" y="-10"/>
    </contour>
    <contour>
      <point x="763" y="589" type="curve" smooth="yes"/>
      <point x="577" y="589"/>
      <point x="429" y="492"/>
      <point x="144" y="191" type="curve"/>
      <point x="165" y="173" type="line"/>
      <point x="258" y="281"/>
      <point x="345" y="364"/>
      <point x="418" y="417" type="curve"/>
      <point x="430" y="431" type="line"/>
      <point x="520" y="498"/>
      <point x="617" y="564"/>
      <point x="764" y="564" type="curve" smooth="yes"/>
      <point x="818" y="564"/>
      <point x="864" y="558"/>
      <point x="913" y="543" type="curve"/>
      <point x="935" y="563" type="line"/>
      <point x="881" y="581"/>
      <point x="827" y="589"/>
    </contour>
    <contour>
      <point x="281" y="571" type="curve" smooth="yes"/>
      <point x="224" y="571"/>
      <point x="170" y="526"/>
      <point x="170" y="462" type="curve" smooth="yes"/>
      <point x="170" y="424"/>
      <point x="179" y="397"/>
      <point x="192" y="369" type="curve"/>
      <point x="217" y="377" type="line"/>
      <point x="206" y="402"/>
      <point x="198" y="422"/>
      <point x="198" y="464" type="curve" smooth="yes"/>
      <point x="198" y="505"/>
      <point x="225" y="546"/>
      <point x="279" y="546" type="curve" smooth="yes"/>
      <point x="335" y="546"/>
      <point x="374" y="502"/>
      <point x="402" y="421" type="curve"/>
      <point x="424" y="435" type="line"/>
      <point x="395" y="503"/>
      <point x="359" y="571"/>
    </contour>
    <contour>
      <point x="1004" y="-10" type="curve" smooth="yes"/>
      <point x="1069" y="-10"/>
      <point x="1133" y="5"/>
      <point x="1188" y="31" type="curve"/>
      <point x="1177" y="55" type="line"/>
      <point x="1116" y="26"/>
      <point x="1084" y="16"/>
      <point x="1010" y="16" type="curve" smooth="yes"/>
      <point x="858" y="16"/>
      <point x="782" y="85"/>
      <point x="782" y="213" type="curve" smooth="yes"/>
      <point x="782" y="350"/>
      <point x="890" y="417"/>
      <point x="1078" y="417" type="curve" smooth="yes"/>
      <point x="1159" y="417" type="line"/>
      <point x="1159" y="424" type="line" smooth="yes"/>
      <point x="1159" y="523"/>
      <point x="1085" y="589"/>
      <point x="995" y="589" type="curve" smooth="yes"/>
      <point x="922" y="589"/>
      <point x="878" y="543"/>
      <point x="878" y="495" type="curve" smooth="yes"/>
      <point x="878" y="474"/>
      <point x="883" y="451"/>
      <point x="892" y="436" type="curve"/>
      <point x="916" y="444" type="line"/>
      <point x="908" y="459"/>
      <point x="905" y="475"/>
      <point x="905" y="492" type="curve" smooth="yes"/>
      <point x="905" y="526"/>
      <point x="927" y="564"/>
      <point x="996" y="564" type="curve" smooth="yes"/>
      <point x="1078" y="564"/>
      <point x="1122" y="507"/>
      <point x="1133" y="442" type="curve"/>
      <point x="1081" y="442" type="line" smooth="yes"/>
      <point x="880" y="442"/>
      <point x="760" y="373"/>
      <point x="760" y="213" type="curve" smooth="yes"/>
      <point x="760" y="74"/>
      <point x="835" y="-10"/>
    </contour>
    <contour>
      <point x="1102" y="-284" type="curve" smooth="yes"/>
      <point x="1161" y="-284"/>
      <point x="1205" y="-265"/>
      <point x="1242" y="-236" type="curve"/>
      <point x="1229" y="-215" type="line"/>
      <point x="1192" y="-244"/>
      <point x="1160" y="-259"/>
      <point x="1103" y="-259" type="curve" smooth="yes"/>
      <point x="1044" y="-259"/>
      <point x="988" y="-229"/>
      <point x="988" y="-152" type="curve" smooth="yes"/>
      <point x="988" y="-85"/>
      <point x="1032" y="-35"/>
      <point x="1104" y="4" type="curve"/>
      <point x="1059" y="-1" type="line"/>
      <point x="1001" y="-37"/>
      <point x="961" y="-82"/>
      <point x="961" y="-151" type="curve" smooth="yes"/>
      <point x="961" y="-229"/>
      <point x="1012" y="-284"/>
    </contour>
    <contour>
      <point x="44" y="322" type="curve" smooth="yes"/>
      <point x="44" y="214"/>
      <point x="83" y="141"/>
      <point x="146" y="60" type="curve"/>
      <point x="167" y="75" type="line"/>
      <point x="101" y="158"/>
      <point x="71" y="224"/>
      <point x="71" y="320" type="curve" smooth="yes"/>
      <point x="71" y="451"/>
      <point x="155" y="539"/>
      <point x="273" y="549" type="curve"/>
      <point x="272" y="570" type="line"/>
      <point x="151" y="564"/>
      <point x="44" y="476"/>
    </contour>
  </outline>
</glyph>
<glyph name="ttasinh" format="2">
  <advance width="752"/>
  <unicode hex="0DA7"/>
  <outline>
    <contour>
      <point x="333" y="-10" type="curve" smooth="yes"/>
      <point x="572" y="-10"/>
      <point x="709" y="162"/>
      <point x="709" y="418" type="curve" smooth="yes"/>
      <point x="709" y="688"/>
      <point x="541" y="804"/>
      <point x="342" y="804" type="curve" smooth="yes"/>
      <point x="216" y="804"/>
      <point x="141" y="768"/>
      <point x="43" y="708" type="curve"/>
      <point x="59" y="685" type="line"/>
      <point x="147" y="748"/>
      <point x="236" y="779"/>
      <point x="343" y="779" type="curve" smooth="yes"/>
      <point x="526" y="779"/>
      <point x="682" y="674"/>
      <point x="682" y="420" type="curve" smooth="yes"/>
      <point x="682" y="178"/>
      <point x="553" y="17"/>
      <point x="334" y="17" type="curve" smooth="yes"/>
      <point x="163" y="17"/>
      <point x="70" y="98"/>
      <point x="70" y="260" type="curve" smooth="yes"/>
      <point x="70" y="391"/>
      <point x="152" y="479"/>
      <point x="313" y="479" type="curve" smooth="yes"/>
      <point x="345" y="479"/>
      <point x="373" y="475"/>
      <point x="404" y="467" type="curve"/>
      <point x="408" y="492" type="line"/>
      <point x="381" y="499"/>
      <point x="345" y="504"/>
      <point x="312" y="504" type="curve" smooth="yes"/>
      <point x="142" y="504"/>
      <point x="43" y="409"/>
      <point x="43" y="260" type="curve" smooth="yes"/>
      <point x="43" y="86"/>
      <point x="150" y="-10"/>
    </contour>
  </outline>
</glyph>
<glyph name="tthasinh" format="2">
  <advance width="793"/>
  <unicode hex="0DA8"/>
  <outline>
    <contour>
      <point x="547" y="-10" type="curve" smooth="yes"/>
      <point x="683" y="-10"/>
      <point x="746" y="100"/>
      <point x="746" y="315" type="curve" smooth="yes"/>
      <point x="746" y="638"/>
      <point x="528" y="786"/>
      <point x="261" y="812" type="curve"/>
      <point x="258" y="787" type="line"/>
      <point x="507" y="769"/>
      <point x="719" y="625"/>
      <point x="719" y="317" type="curve" smooth="yes"/>
      <point x="719" y="122"/>
      <point x="666" y="17"/>
      <point x="546" y="17" type="curve" smooth="yes"/>
      <point x="444" y="17"/>
      <point x="401" y="89"/>
      <point x="389" y="169" type="curve"/>
      <point x="365" y="169" type="line"/>
      <point x="345" y="96"/>
      <point x="315" y="17"/>
      <point x="211" y="17" type="curve" smooth="yes"/>
      <point x="117" y="17"/>
      <point x="70" y="87"/>
      <point x="70" y="226" type="curve" smooth="yes"/>
      <point x="70" y="395"/>
      <point x="168" y="479"/>
      <point x="306" y="479" type="curve" smooth="yes"/>
      <point x="328" y="479"/>
      <point x="357" y="477"/>
      <point x="378" y="472" type="curve"/>
      <point x="382" y="497" type="line"/>
      <point x="356" y="502"/>
      <point x="330" y="504"/>
      <point x="309" y="504" type="curve" smooth="yes"/>
      <point x="160" y="504"/>
      <point x="43" y="415"/>
      <point x="43" y="226" type="curve" smooth="yes"/>
      <point x="43" y="56"/>
      <point x="115" y="-10"/>
      <point x="208" y="-10" type="curve" smooth="yes"/>
      <point x="304" y="-10"/>
      <point x="352" y="52"/>
      <point x="376" y="124" type="curve"/>
      <point x="401" y="42"/>
      <point x="452" y="-10"/>
    </contour>
    <contour>
      <point x="457" y="582" type="curve" smooth="yes"/>
      <point x="525" y="582"/>
      <point x="553" y="622"/>
      <point x="577" y="681" type="curve"/>
      <point x="559" y="705" type="line"/>
      <point x="539" y="644"/>
      <point x="509" y="608"/>
      <point x="460" y="608" type="curve" smooth="yes"/>
      <point x="400" y="608"/>
      <point x="370" y="639"/>
      <point x="356" y="697" type="curve" smooth="yes"/>
      <point x="345" y="743"/>
      <point x="332" y="779"/>
      <point x="297" y="798" type="curve"/>
      <point x="274" y="787" type="line"/>
      <point x="294" y="783"/>
      <point x="312" y="766"/>
      <point x="330" y="691" type="curve" smooth="yes"/>
      <point x="345" y="628"/>
      <point x="383" y="582"/>
    </contour>
  </outline>
</glyph>
<glyph name="ddasinh" format="2">
  <advance width="797"/>
  <unicode hex="0DA9"/>
  <outline>
    <contour>
      <point x="551" y="-10" type="curve" smooth="yes"/>
      <point x="685" y="-10"/>
      <point x="750" y="97"/>
      <point x="750" y="346" type="curve" smooth="yes"/>
      <point x="750" y="610"/>
      <point x="641" y="804"/>
      <point x="364" y="804" type="curve" smooth="yes"/>
      <point x="231" y="804"/>
      <point x="155" y="768"/>
      <point x="57" y="708" type="curve"/>
      <point x="73" y="685" type="line"/>
      <point x="162" y="748"/>
      <point x="251" y="779"/>
      <point x="364" y="779" type="curve" smooth="yes"/>
      <point x="622" y="779"/>
      <point x="723" y="595"/>
      <point x="723" y="348" type="curve" smooth="yes"/>
      <point x="723" y="122"/>
      <point x="672" y="17"/>
      <point x="550" y="17" type="curve" smooth="yes"/>
      <point x="448" y="17"/>
      <point x="405" y="89"/>
      <point x="393" y="169" type="curve"/>
      <point x="369" y="169" type="line"/>
      <point x="349" y="96"/>
      <point x="319" y="17"/>
      <point x="213" y="17" type="curve" smooth="yes"/>
      <point x="120" y="17"/>
      <point x="75" y="89"/>
      <point x="75" y="192" type="curve" smooth="yes"/>
      <point x="75" y="312"/>
      <point x="147" y="402"/>
      <point x="315" y="421" type="curve"/>
      <point x="253" y="417" type="line"/>
      <point x="382" y="417" type="line"/>
      <point x="382" y="424" type="line" smooth="yes"/>
      <point x="382" y="523"/>
      <point x="308" y="589"/>
      <point x="218" y="589" type="curve" smooth="yes"/>
      <point x="147" y="589"/>
      <point x="101" y="547"/>
      <point x="101" y="495" type="curve" smooth="yes"/>
      <point x="101" y="483"/>
      <point x="103" y="466"/>
      <point x="108" y="453" type="curve"/>
      <point x="133" y="458" type="line"/>
      <point x="130" y="467"/>
      <point x="128" y="479"/>
      <point x="128" y="492" type="curve" smooth="yes"/>
      <point x="128" y="526"/>
      <point x="150" y="564"/>
      <point x="219" y="564" type="curve" smooth="yes"/>
      <point x="301" y="564"/>
      <point x="345" y="507"/>
      <point x="356" y="442" type="curve"/>
      <point x="25" y="442" type="line"/>
      <point x="25" y="417" type="line"/>
      <point x="117" y="417" type="line" smooth="yes"/>
      <point x="157" y="417"/>
      <point x="219" y="419"/>
      <point x="254" y="425" type="curve"/>
      <point x="262" y="428" type="line"/>
      <point x="118" y="407"/>
      <point x="48" y="312"/>
      <point x="48" y="192" type="curve" smooth="yes"/>
      <point x="48" y="59"/>
      <point x="119" y="-10"/>
      <point x="213" y="-10" type="curve" smooth="yes"/>
      <point x="308" y="-10"/>
      <point x="355" y="50"/>
      <point x="380" y="124" type="curve"/>
      <point x="405" y="42"/>
      <point x="456" y="-10"/>
    </contour>
  </outline>
</glyph>
<glyph name="ddhasinh" format="2">
  <advance width="797"/>
  <unicode hex="0DAA"/>
  <outline>
    <contour>
      <point x="551" y="-10" type="curve" smooth="yes"/>
      <point x="687" y="-10"/>
      <point x="750" y="100"/>
      <point x="750" y="315" type="curve" smooth="yes"/>
      <point x="750" y="638"/>
      <point x="532" y="786"/>
      <point x="265" y="812" type="curve"/>
      <point x="262" y="787" type="line"/>
      <point x="511" y="769"/>
      <point x="723" y="625"/>
      <point x="723" y="317" type="curve" smooth="yes"/>
      <point x="723" y="122"/>
      <point x="670" y="17"/>
      <point x="550" y="17" type="curve" smooth="yes"/>
      <point x="448" y="17"/>
      <point x="405" y="89"/>
      <point x="393" y="169" type="curve"/>
      <point x="369" y="169" type="line"/>
      <point x="349" y="96"/>
      <point x="319" y="17"/>
      <point x="213" y="17" type="curve" smooth="yes"/>
      <point x="120" y="17"/>
      <point x="75" y="89"/>
      <point x="75" y="192" type="curve" smooth="yes"/>
      <point x="75" y="312"/>
      <point x="147" y="402"/>
      <point x="315" y="421" type="curve"/>
      <point x="253" y="417" type="line"/>
      <point x="382" y="417" type="line"/>
      <point x="382" y="424" type="line" smooth="yes"/>
      <point x="382" y="523"/>
      <point x="308" y="589"/>
      <point x="218" y="589" type="curve" smooth="yes"/>
      <point x="147" y="589"/>
      <point x="101" y="547"/>
      <point x="101" y="495" type="curve" smooth="yes"/>
      <point x="101" y="483"/>
      <point x="103" y="466"/>
      <point x="108" y="453" type="curve"/>
      <point x="133" y="458" type="line"/>
      <point x="130" y="467"/>
      <point x="128" y="479"/>
      <point x="128" y="492" type="curve" smooth="yes"/>
      <point x="128" y="526"/>
      <point x="150" y="564"/>
      <point x="219" y="564" type="curve" smooth="yes"/>
      <point x="301" y="564"/>
      <point x="345" y="507"/>
      <point x="356" y="442" type="curve"/>
      <point x="25" y="442" type="line"/>
      <point x="25" y="417" type="line"/>
      <point x="117" y="417" type="line" smooth="yes"/>
      <point x="157" y="417"/>
      <point x="219" y="419"/>
      <point x="254" y="425" type="curve"/>
      <point x="262" y="428" type="line"/>
      <point x="118" y="407"/>
      <point x="48" y="312"/>
      <point x="48" y="192" type="curve" smooth="yes"/>
      <point x="48" y="59"/>
      <point x="119" y="-10"/>
      <point x="213" y="-10" type="curve" smooth="yes"/>
      <point x="308" y="-10"/>
      <point x="355" y="50"/>
      <point x="380" y="124" type="curve"/>
      <point x="405" y="42"/>
      <point x="456" y="-10"/>
    </contour>
    <contour>
      <point x="461" y="582" type="curve" smooth="yes"/>
      <point x="529" y="582"/>
      <point x="557" y="622"/>
      <point x="581" y="681" type="curve"/>
      <point x="563" y="705" type="line"/>
      <point x="543" y="644"/>
      <point x="513" y="608"/>
      <point x="464" y="608" type="curve" smooth="yes"/>
      <point x="404" y="608"/>
      <point x="374" y="639"/>
      <point x="360" y="697" type="curve" smooth="yes"/>
      <point x="349" y="743"/>
      <point x="336" y="779"/>
      <point x="301" y="798" type="curve"/>
      <point x="278" y="787" type="line"/>
      <point x="298" y="783"/>
      <point x="316" y="766"/>
      <point x="334" y="691" type="curve" smooth="yes"/>
      <point x="349" y="628"/>
      <point x="387" y="582"/>
    </contour>
  </outline>
</glyph>
<glyph name="nnasinh" format="2">
  <advance width="1094"/>
  <unicode hex="0DAB"/>
  <outline>
    <contour>
      <point x="21" y="122" type="line"/>
      <point x="38" y="140" type="line"/>
      <point x="307" y="375"/>
      <point x="576" y="606"/>
      <point x="847" y="836" type="curve"/>
      <point x="830" y="856" type="line"/>
      <point x="557" y="622"/>
      <point x="280" y="383"/>
      <point x="1" y="141" type="curve"/>
    </contour>
    <contour>
      <point x="330" y="170" type="curve" smooth="yes"/>
      <point x="424" y="170"/>
      <point x="479" y="207"/>
      <point x="479" y="279" type="curve" smooth="yes"/>
      <point x="479" y="328"/>
      <point x="443" y="376"/>
      <point x="377" y="376" type="curve" smooth="yes"/>
      <point x="318" y="376"/>
      <point x="274" y="338"/>
      <point x="274" y="280" type="curve" smooth="yes"/>
      <point x="274" y="246"/>
      <point x="290" y="204"/>
      <point x="349" y="190" type="curve"/>
      <point x="347" y="193" type="line"/>
      <point x="209" y="193"/>
      <point x="114" y="258"/>
      <point x="114" y="382" type="curve" smooth="yes"/>
      <point x="114" y="488"/>
      <point x="205" y="564"/>
      <point x="345" y="564" type="curve" smooth="yes"/>
      <point x="520" y="564"/>
      <point x="621" y="442"/>
      <point x="621" y="295" type="curve" smooth="yes"/>
      <point x="621" y="116"/>
      <point x="529" y="17"/>
      <point x="358" y="17" type="curve" smooth="yes"/>
      <point x="228" y="17"/>
      <point x="143" y="82"/>
      <point x="60" y="169" type="curve"/>
      <point x="33" y="154" type="line"/>
      <point x="21" y="122" type="line"/>
      <point x="49" y="143" type="line"/>
      <point x="123" y="67"/>
      <point x="212" y="-10"/>
      <point x="362" y="-10" type="curve" smooth="yes"/>
      <point x="549" y="-10"/>
      <point x="648" y="110"/>
      <point x="648" y="294" type="curve" smooth="yes"/>
      <point x="648" y="442"/>
      <point x="547" y="589"/>
      <point x="345" y="589" type="curve" smooth="yes"/>
      <point x="198" y="589"/>
      <point x="87" y="504"/>
      <point x="87" y="382" type="curve" smooth="yes"/>
      <point x="87" y="263"/>
      <point x="183" y="170"/>
    </contour>
    <contour>
      <point x="301" y="280" type="curve" smooth="yes"/>
      <point x="301" y="316"/>
      <point x="323" y="351"/>
      <point x="376" y="351" type="curve" smooth="yes"/>
      <point x="425" y="351"/>
      <point x="453" y="317"/>
      <point x="453" y="276" type="curve" smooth="yes"/>
      <point x="453" y="228"/>
      <point x="417" y="206"/>
      <point x="376" y="206" type="curve" smooth="yes"/>
      <point x="335" y="206"/>
      <point x="301" y="234"/>
    </contour>
    <contour>
      <point x="623" y="332" type="curve"/>
      <point x="645" y="329" type="line"/>
      <point x="646" y="395"/>
      <point x="669" y="459"/>
      <point x="714" y="459" type="curve" smooth="yes"/>
      <point x="764" y="459"/>
      <point x="777" y="394"/>
      <point x="783" y="325" type="curve"/>
      <point x="809" y="325" type="line"/>
      <point x="815" y="418"/>
      <point x="851" y="479"/>
      <point x="909" y="479" type="curve" smooth="yes"/>
      <point x="977" y="479"/>
      <point x="1022" y="408"/>
      <point x="1022" y="250" type="curve" smooth="yes"/>
      <point x="1022" y="78"/>
      <point x="976" y="15"/>
      <point x="900" y="15" type="curve" smooth="yes"/>
      <point x="842" y="15"/>
      <point x="799" y="51"/>
      <point x="770" y="144" type="curve"/>
      <point x="744" y="135" type="line"/>
      <point x="776" y="48"/>
      <point x="818" y="-10"/>
      <point x="899" y="-10" type="curve" smooth="yes"/>
      <point x="986" y="-10"/>
      <point x="1049" y="49"/>
      <point x="1049" y="247" type="curve" smooth="yes"/>
      <point x="1049" y="435"/>
      <point x="987" y="504"/>
      <point x="914" y="504" type="curve" smooth="yes"/>
      <point x="859" y="504"/>
      <point x="811" y="468"/>
      <point x="796" y="381" type="curve"/>
      <point x="788" y="443"/>
      <point x="763" y="484"/>
      <point x="717" y="484" type="curve" smooth="yes"/>
      <point x="661" y="484"/>
      <point x="623" y="421"/>
    </contour>
  </outline>
</glyph>
<glyph name="tasinh" format="2">
  <advance width="924"/>
  <unicode hex="0DAD"/>
  <outline>
    <contour>
      <point x="331" y="-10" type="curve" smooth="yes"/>
      <point x="535" y="-10"/>
      <point x="577" y="124"/>
      <point x="577" y="224" type="curve" smooth="yes"/>
      <point x="577" y="301"/>
      <point x="546" y="442"/>
      <point x="341" y="442" type="curve" smooth="yes"/>
      <point x="319" y="442"/>
      <point x="298" y="437"/>
      <point x="272" y="430" type="curve"/>
      <point x="250" y="408" type="line"/>
      <point x="283" y="417"/>
      <point x="309" y="417"/>
      <point x="332" y="417" type="curve" smooth="yes"/>
      <point x="523" y="417"/>
      <point x="550" y="302"/>
      <point x="550" y="224" type="curve" smooth="yes"/>
      <point x="550" y="132"/>
      <point x="516" y="17"/>
      <point x="332" y="17" type="curve" smooth="yes"/>
      <point x="194" y="17"/>
      <point x="121" y="73"/>
      <point x="121" y="159" type="curve" smooth="yes"/>
      <point x="121" y="173"/>
      <point x="122" y="183"/>
      <point x="124" y="193" type="curve"/>
      <point x="44" y="202" type="line"/>
      <point x="40" y="177" type="line"/>
      <point x="106" y="170" type="line"/>
      <point x="99" y="187" type="line"/>
      <point x="96" y="179"/>
      <point x="95" y="169"/>
      <point x="95" y="157" type="curve" smooth="yes"/>
      <point x="95" y="34"/>
      <point x="217" y="-10"/>
    </contour>
    <contour>
      <point x="657" y="-6" type="curve" smooth="yes"/>
      <point x="814" y="-6"/>
      <point x="880" y="112"/>
      <point x="880" y="272" type="curve" smooth="yes"/>
      <point x="880" y="458"/>
      <point x="785" y="589"/>
      <point x="601" y="589" type="curve" smooth="yes"/>
      <point x="429" y="589"/>
      <point x="242" y="422"/>
      <point x="19" y="195" type="curve"/>
      <point x="40" y="177" type="line"/>
      <point x="116" y="260"/>
      <point x="186" y="336"/>
      <point x="294" y="419" type="curve"/>
      <point x="301" y="424"/>
      <point x="302" y="429"/>
      <point x="309" y="433" type="curve"/>
      <point x="408" y="509"/>
      <point x="502" y="563"/>
      <point x="603" y="563" type="curve" smooth="yes"/>
      <point x="782" y="563"/>
      <point x="853" y="429"/>
      <point x="853" y="267" type="curve" smooth="yes"/>
      <point x="853" y="128"/>
      <point x="804" y="19"/>
      <point x="652" y="19" type="curve" smooth="yes"/>
      <point x="617" y="19"/>
      <point x="583" y="24"/>
      <point x="557" y="34" type="curve"/>
      <point x="550" y="8" type="line"/>
      <point x="580" y="-3"/>
      <point x="620" y="-6"/>
    </contour>
    <contour>
      <point x="156" y="571" type="curve" smooth="yes"/>
      <point x="92" y="571"/>
      <point x="45" y="530"/>
      <point x="45" y="462" type="curve" smooth="yes"/>
      <point x="45" y="424"/>
      <point x="54" y="397"/>
      <point x="67" y="369" type="curve"/>
      <point x="92" y="377" type="line"/>
      <point x="81" y="402"/>
      <point x="73" y="422"/>
      <point x="73" y="464" type="curve" smooth="yes"/>
      <point x="73" y="505"/>
      <point x="100" y="546"/>
      <point x="154" y="546" type="curve" smooth="yes"/>
      <point x="210" y="546"/>
      <point x="249" y="502"/>
      <point x="277" y="421" type="curve"/>
      <point x="299" y="435" type="line"/>
      <point x="270" y="503"/>
      <point x="234" y="571"/>
    </contour>
  </outline>
</glyph>
<glyph name="thasinh" format="2">
  <advance width="752"/>
  <unicode hex="0DAE"/>
  <outline>
    <contour>
      <point x="328" y="-10" type="curve" smooth="yes"/>
      <point x="572" y="-10"/>
      <point x="709" y="162"/>
      <point x="709" y="400" type="curve" smooth="yes"/>
      <point x="709" y="674"/>
      <point x="504" y="789"/>
      <point x="256" y="812" type="curve"/>
      <point x="253" y="787" type="line"/>
      <point x="479" y="770"/>
      <point x="682" y="668"/>
      <point x="682" y="401" type="curve" smooth="yes"/>
      <point x="682" y="178"/>
      <point x="553" y="17"/>
      <point x="328" y="17" type="curve" smooth="yes"/>
      <point x="163" y="17"/>
      <point x="70" y="98"/>
      <point x="70" y="260" type="curve" smooth="yes"/>
      <point x="70" y="391"/>
      <point x="152" y="479"/>
      <point x="313" y="479" type="curve" smooth="yes"/>
      <point x="345" y="479"/>
      <point x="373" y="475"/>
      <point x="404" y="467" type="curve"/>
      <point x="408" y="492" type="line"/>
      <point x="381" y="499"/>
      <point x="345" y="504"/>
      <point x="312" y="504" type="curve" smooth="yes"/>
      <point x="142" y="504"/>
      <point x="43" y="409"/>
      <point x="43" y="260" type="curve" smooth="yes"/>
      <point x="43" y="86"/>
      <point x="150" y="-10"/>
    </contour>
    <contour>
      <point x="452" y="582" type="curve" smooth="yes"/>
      <point x="524" y="582"/>
      <point x="551" y="627"/>
      <point x="577" y="692" type="curve"/>
      <point x="554" y="705" type="line"/>
      <point x="534" y="644"/>
      <point x="504" y="608"/>
      <point x="455" y="608" type="curve" smooth="yes"/>
      <point x="395" y="608"/>
      <point x="365" y="639"/>
      <point x="351" y="697" type="curve" smooth="yes"/>
      <point x="340" y="743"/>
      <point x="327" y="779"/>
      <point x="292" y="798" type="curve"/>
      <point x="269" y="787" type="line"/>
      <point x="289" y="783"/>
      <point x="307" y="766"/>
      <point x="325" y="691" type="curve" smooth="yes"/>
      <point x="340" y="628"/>
      <point x="378" y="582"/>
    </contour>
  </outline>
</glyph>
<glyph name="dasinh" format="2">
  <advance width="487"/>
  <unicode hex="0DAF"/>
  <outline>
    <contour>
      <point x="299" y="-10" type="curve" smooth="yes"/>
      <point x="362" y="-10"/>
      <point x="431" y="7"/>
      <point x="486" y="33" type="curve"/>
      <point x="475" y="57" type="line"/>
      <point x="414" y="28"/>
      <point x="376" y="16"/>
      <point x="305" y="16" type="curve" smooth="yes"/>
      <point x="144" y="16"/>
      <point x="68" y="85"/>
      <point x="68" y="213" type="curve" smooth="yes"/>
      <point x="68" y="350"/>
      <point x="176" y="417"/>
      <point x="366" y="417" type="curve" smooth="yes"/>
      <point x="457" y="417" type="line"/>
      <point x="457" y="424" type="line" smooth="yes"/>
      <point x="457" y="523"/>
      <point x="383" y="589"/>
      <point x="293" y="589" type="curve" smooth="yes"/>
      <point x="222" y="589"/>
      <point x="176" y="547"/>
      <point x="176" y="495" type="curve" smooth="yes"/>
      <point x="176" y="474"/>
      <point x="181" y="451"/>
      <point x="190" y="436" type="curve"/>
      <point x="214" y="444" type="line"/>
      <point x="206" y="459"/>
      <point x="203" y="475"/>
      <point x="203" y="492" type="curve" smooth="yes"/>
      <point x="203" y="526"/>
      <point x="225" y="564"/>
      <point x="294" y="564" type="curve" smooth="yes"/>
      <point x="376" y="564"/>
      <point x="420" y="507"/>
      <point x="431" y="442" type="curve"/>
      <point x="368" y="442" type="line" smooth="yes"/>
      <point x="166" y="442"/>
      <point x="40" y="370"/>
      <point x="40" y="213" type="curve" smooth="yes"/>
      <point x="40" y="76"/>
      <point x="121" y="-10"/>
    </contour>
    <contour>
      <point x="400" y="-284" type="curve" smooth="yes"/>
      <point x="459" y="-284"/>
      <point x="503" y="-265"/>
      <point x="540" y="-236" type="curve"/>
      <point x="527" y="-215" type="line"/>
      <point x="490" y="-244"/>
      <point x="458" y="-259"/>
      <point x="401" y="-259" type="curve" smooth="yes"/>
      <point x="342" y="-259"/>
      <point x="286" y="-229"/>
      <point x="286" y="-152" type="curve" smooth="yes"/>
      <point x="286" y="-85"/>
      <point x="330" y="-35"/>
      <point x="402" y="4" type="curve"/>
      <point x="357" y="-1" type="line"/>
      <point x="299" y="-37"/>
      <point x="259" y="-82"/>
      <point x="259" y="-151" type="curve" smooth="yes"/>
      <point x="259" y="-229"/>
      <point x="310" y="-284"/>
    </contour>
  </outline>
</glyph>
<glyph name="dhasinh" format="2">
  <advance width="793"/>
  <unicode hex="0DB0"/>
  <outline>
    <contour>
      <point x="547" y="-10" type="curve" smooth="yes"/>
      <point x="681" y="-10"/>
      <point x="746" y="97"/>
      <point x="746" y="346" type="curve" smooth="yes"/>
      <point x="746" y="610"/>
      <point x="637" y="804"/>
      <point x="360" y="804" type="curve" smooth="yes"/>
      <point x="227" y="804"/>
      <point x="151" y="768"/>
      <point x="53" y="708" type="curve"/>
      <point x="69" y="685" type="line"/>
      <point x="158" y="748"/>
      <point x="247" y="779"/>
      <point x="360" y="779" type="curve" smooth="yes"/>
      <point x="618" y="779"/>
      <point x="719" y="595"/>
      <point x="719" y="348" type="curve" smooth="yes"/>
      <point x="719" y="122"/>
      <point x="668" y="17"/>
      <point x="546" y="17" type="curve" smooth="yes"/>
      <point x="444" y="17"/>
      <point x="401" y="89"/>
      <point x="389" y="169" type="curve"/>
      <point x="365" y="169" type="line"/>
      <point x="345" y="96"/>
      <point x="315" y="17"/>
      <point x="211" y="17" type="curve" smooth="yes"/>
      <point x="117" y="17"/>
      <point x="70" y="87"/>
      <point x="70" y="226" type="curve" smooth="yes"/>
      <point x="70" y="395"/>
      <point x="168" y="479"/>
      <point x="306" y="479" type="curve" smooth="yes"/>
      <point x="328" y="479"/>
      <point x="357" y="477"/>
      <point x="378" y="472" type="curve"/>
      <point x="382" y="497" type="line"/>
      <point x="356" y="502"/>
      <point x="330" y="504"/>
      <point x="309" y="504" type="curve" smooth="yes"/>
      <point x="160" y="504"/>
      <point x="43" y="415"/>
      <point x="43" y="226" type="curve" smooth="yes"/>
      <point x="43" y="56"/>
      <point x="115" y="-10"/>
      <point x="208" y="-10" type="curve" smooth="yes"/>
      <point x="304" y="-10"/>
      <point x="352" y="52"/>
      <point x="376" y="124" type="curve"/>
      <point x="401" y="42"/>
      <point x="452" y="-10"/>
    </contour>
  </outline>
</glyph>
<glyph name="nasinh" format="2">
  <advance width="906"/>
  <unicode hex="0DB1"/>
  <outline>
    <contour>
      <point x="313" y="-10" type="curve" smooth="yes"/>
      <point x="483" y="-10"/>
      <point x="557" y="104"/>
      <point x="557" y="234" type="curve" smooth="yes"/>
      <point x="557" y="366"/>
      <point x="477" y="442"/>
      <point x="345" y="442" type="curve" smooth="yes"/>
      <point x="314" y="442"/>
      <point x="330" y="442"/>
      <point x="321" y="442" type="curve"/>
      <point x="304" y="416" type="line"/>
      <point x="315" y="417"/>
      <point x="329" y="417"/>
      <point x="343" y="417" type="curve" smooth="yes"/>
      <point x="466" y="417"/>
      <point x="530" y="349"/>
      <point x="530" y="233" type="curve" smooth="yes"/>
      <point x="530" y="95"/>
      <point x="445" y="17"/>
      <point x="311" y="17" type="curve" smooth="yes"/>
      <point x="142" y="17"/>
      <point x="67" y="135"/>
      <point x="67" y="266" type="curve" smooth="yes"/>
      <point x="67" y="286"/>
      <point x="68" y="295"/>
      <point x="69" y="303" type="curve"/>
      <point x="43" y="306" type="line"/>
      <point x="42" y="299"/>
      <point x="41" y="287"/>
      <point x="41" y="274" type="curve" smooth="yes"/>
      <point x="41" y="121"/>
      <point x="126" y="-10"/>
    </contour>
    <contour>
      <point x="633" y="-6" type="curve" smooth="yes"/>
      <point x="776" y="-6"/>
      <point x="862" y="95"/>
      <point x="862" y="271" type="curve" smooth="yes"/>
      <point x="862" y="445"/>
      <point x="770" y="589"/>
      <point x="580" y="589" type="curve" smooth="yes"/>
      <point x="435" y="589"/>
      <point x="352" y="496"/>
      <point x="268" y="388" type="curve" smooth="yes"/>
      <point x="187" y="284"/>
      <point x="138" y="275"/>
      <point x="88" y="275" type="curve" smooth="yes"/>
      <point x="73" y="275"/>
      <point x="64" y="277"/>
      <point x="50" y="283" type="curve"/>
      <point x="44" y="262" type="line"/>
      <point x="57" y="254"/>
      <point x="71" y="250"/>
      <point x="91" y="250" type="curve" smooth="yes"/>
      <point x="153" y="250"/>
      <point x="205" y="267"/>
      <point x="289" y="374" type="curve" smooth="yes"/>
      <point x="309" y="400"/>
      <point x="314" y="405"/>
      <point x="331" y="426" type="curve"/>
      <point x="336" y="433" type="line"/>
      <point x="406" y="509"/>
      <point x="471" y="563"/>
      <point x="581" y="563" type="curve" smooth="yes"/>
      <point x="737" y="563"/>
      <point x="835" y="452"/>
      <point x="835" y="271" type="curve" smooth="yes"/>
      <point x="835" y="98"/>
      <point x="756" y="19"/>
      <point x="628" y="19" type="curve" smooth="yes"/>
      <point x="593" y="19"/>
      <point x="554" y="23"/>
      <point x="510" y="41" type="curve"/>
      <point x="502" y="15" type="line"/>
      <point x="532" y="2"/>
      <point x="578" y="-6"/>
    </contour>
    <contour>
      <point x="183" y="571" type="curve" smooth="yes"/>
      <point x="119" y="571"/>
      <point x="72" y="530"/>
      <point x="72" y="462" type="curve" smooth="yes"/>
      <point x="72" y="424"/>
      <point x="81" y="397"/>
      <point x="94" y="369" type="curve"/>
      <point x="119" y="377" type="line"/>
      <point x="108" y="402"/>
      <point x="100" y="422"/>
      <point x="100" y="464" type="curve" smooth="yes"/>
      <point x="100" y="505"/>
      <point x="127" y="546"/>
      <point x="181" y="546" type="curve" smooth="yes"/>
      <point x="237" y="546"/>
      <point x="276" y="502"/>
      <point x="304" y="421" type="curve"/>
      <point x="326" y="435" type="line"/>
      <point x="297" y="503"/>
      <point x="261" y="571"/>
    </contour>
  </outline>
</glyph>
<glyph name="pasinh" format="2">
  <advance width="746"/>
  <unicode hex="0DB4"/>
  <outline>
    <contour>
      <point x="645" y="415" type="curve"/>
      <point x="670" y="409" type="line"/>
      <point x="675" y="424"/>
      <point x="680" y="449"/>
      <point x="680" y="469" type="curve" smooth="yes"/>
      <point x="680" y="535"/>
      <point x="647" y="589"/>
      <point x="557" y="589" type="curve" smooth="yes"/>
      <point x="463" y="589"/>
      <point x="394" y="520"/>
      <point x="394" y="424" type="curve" smooth="yes"/>
      <point x="394" y="417" type="line"/>
      <point x="433" y="417" type="line" smooth="yes"/>
      <point x="604" y="417"/>
      <point x="675" y="360"/>
      <point x="675" y="234" type="curve" smooth="yes"/>
      <point x="675" y="105"/>
      <point x="578" y="17"/>
      <point x="372" y="17" type="curve" smooth="yes"/>
      <point x="167" y="17"/>
      <point x="71" y="107"/>
      <point x="71" y="237" type="curve" smooth="yes"/>
      <point x="71" y="368"/>
      <point x="153" y="417"/>
      <point x="308" y="417" type="curve" smooth="yes"/>
      <point x="352" y="417" type="line"/>
      <point x="352" y="424" type="line" smooth="yes"/>
      <point x="352" y="523"/>
      <point x="278" y="589"/>
      <point x="188" y="589" type="curve" smooth="yes"/>
      <point x="117" y="589"/>
      <point x="71" y="547"/>
      <point x="71" y="495" type="curve" smooth="yes"/>
      <point x="71" y="465"/>
      <point x="79" y="444"/>
      <point x="92" y="421" type="curve"/>
      <point x="116" y="431" type="line"/>
      <point x="103" y="453"/>
      <point x="98" y="470"/>
      <point x="98" y="492" type="curve" smooth="yes"/>
      <point x="98" y="526"/>
      <point x="120" y="564"/>
      <point x="189" y="564" type="curve" smooth="yes"/>
      <point x="271" y="564"/>
      <point x="315" y="507"/>
      <point x="326" y="442" type="curve"/>
      <point x="333" y="442" type="line"/>
      <point x="298" y="442" type="line" smooth="yes"/>
      <point x="130" y="442"/>
      <point x="44" y="372"/>
      <point x="44" y="237" type="curve" smooth="yes"/>
      <point x="44" y="86"/>
      <point x="157" y="-10"/>
      <point x="372" y="-10" type="curve" smooth="yes"/>
      <point x="595" y="-10"/>
      <point x="702" y="88"/>
      <point x="702" y="235" type="curve" smooth="yes"/>
      <point x="702" y="363"/>
      <point x="633" y="442"/>
      <point x="443" y="442" type="curve" smooth="yes"/>
      <point x="411" y="442" type="line"/>
      <point x="420" y="441" type="line"/>
      <point x="429" y="508"/>
      <point x="477" y="564"/>
      <point x="554" y="564" type="curve" smooth="yes"/>
      <point x="638" y="564"/>
      <point x="653" y="512"/>
      <point x="653" y="468" type="curve" smooth="yes"/>
      <point x="653" y="450"/>
      <point x="649" y="429"/>
    </contour>
  </outline>
</glyph>
<glyph name="phasinh" format="2">
  <advance width="758"/>
  <unicode hex="0DB5"/>
  <outline>
    <contour>
      <point x="330" y="-10" type="curve" smooth="yes"/>
      <point x="578" y="-10"/>
      <point x="715" y="162"/>
      <point x="715" y="400" type="curve" smooth="yes"/>
      <point x="715" y="674"/>
      <point x="510" y="788"/>
      <point x="262" y="812" type="curve"/>
      <point x="259" y="787" type="line"/>
      <point x="485" y="770"/>
      <point x="688" y="668"/>
      <point x="688" y="401" type="curve" smooth="yes"/>
      <point x="688" y="178"/>
      <point x="559" y="17"/>
      <point x="335" y="17" type="curve" smooth="yes"/>
      <point x="169" y="17"/>
      <point x="70" y="100"/>
      <point x="70" y="230" type="curve" smooth="yes"/>
      <point x="70" y="296"/>
      <point x="93" y="340"/>
      <point x="131" y="369" type="curve" smooth="yes"/>
      <point x="177" y="404"/>
      <point x="241" y="417"/>
      <point x="328" y="417" type="curve" smooth="yes"/>
      <point x="424" y="417" type="line"/>
      <point x="424" y="424" type="line" smooth="yes"/>
      <point x="424" y="523"/>
      <point x="350" y="589"/>
      <point x="260" y="589" type="curve" smooth="yes"/>
      <point x="189" y="589"/>
      <point x="143" y="547"/>
      <point x="143" y="495" type="curve" smooth="yes"/>
      <point x="143" y="474"/>
      <point x="148" y="451"/>
      <point x="157" y="436" type="curve"/>
      <point x="181" y="444" type="line"/>
      <point x="173" y="459"/>
      <point x="170" y="475"/>
      <point x="170" y="492" type="curve" smooth="yes"/>
      <point x="170" y="526"/>
      <point x="192" y="564"/>
      <point x="261" y="564" type="curve" smooth="yes"/>
      <point x="343" y="564"/>
      <point x="387" y="507"/>
      <point x="398" y="442" type="curve"/>
      <point x="344" y="442" type="line" smooth="yes"/>
      <point x="245" y="442"/>
      <point x="177" y="433"/>
      <point x="114" y="387" type="curve" smooth="yes"/>
      <point x="71" y="355"/>
      <point x="43" y="305"/>
      <point x="43" y="232" type="curve" smooth="yes"/>
      <point x="43" y="80"/>
      <point x="158" y="-10"/>
    </contour>
    <contour>
      <point x="458" y="582" type="curve" smooth="yes"/>
      <point x="530" y="582"/>
      <point x="557" y="627"/>
      <point x="583" y="692" type="curve"/>
      <point x="560" y="705" type="line"/>
      <point x="540" y="644"/>
      <point x="510" y="608"/>
      <point x="461" y="608" type="curve" smooth="yes"/>
      <point x="401" y="608"/>
      <point x="371" y="639"/>
      <point x="357" y="697" type="curve" smooth="yes"/>
      <point x="346" y="743"/>
      <point x="333" y="779"/>
      <point x="298" y="798" type="curve"/>
      <point x="275" y="787" type="line"/>
      <point x="295" y="783"/>
      <point x="313" y="766"/>
      <point x="331" y="691" type="curve" smooth="yes"/>
      <point x="346" y="628"/>
      <point x="384" y="582"/>
    </contour>
  </outline>
</glyph>
<glyph name="basinh" format="2">
  <advance width="807"/>
  <unicode hex="0DB6"/>
  <outline>
    <contour>
      <point x="529" y="-10" type="curve" smooth="yes"/>
      <point x="664" y="-10"/>
      <point x="761" y="129"/>
      <point x="761" y="350" type="curve" smooth="yes"/>
      <point x="761" y="616"/>
      <point x="643" y="804"/>
      <point x="379" y="804" type="curve" smooth="yes"/>
      <point x="230" y="804"/>
      <point x="136" y="764"/>
      <point x="43" y="705" type="curve"/>
      <point x="59" y="682" type="line"/>
      <point x="156" y="750"/>
      <point x="254" y="779"/>
      <point x="379" y="779" type="curve" smooth="yes"/>
      <point x="625" y="779"/>
      <point x="734" y="602"/>
      <point x="734" y="349" type="curve" smooth="yes"/>
      <point x="734" y="146"/>
      <point x="647" y="17"/>
      <point x="529" y="17" type="curve" smooth="yes"/>
      <point x="481" y="17"/>
      <point x="452" y="43"/>
      <point x="452" y="92" type="curve" smooth="yes"/>
      <point x="452" y="169"/>
      <point x="530" y="229"/>
      <point x="530" y="334" type="curve" smooth="yes"/>
      <point x="530" y="443"/>
      <point x="458" y="538"/>
      <point x="310" y="538" type="curve" smooth="yes"/>
      <point x="157" y="538"/>
      <point x="43" y="430"/>
      <point x="43" y="254" type="curve" smooth="yes"/>
      <point x="43" y="95"/>
      <point x="124" y="-10"/>
      <point x="256" y="-10" type="curve" smooth="yes"/>
      <point x="324" y="-10"/>
      <point x="366" y="36"/>
      <point x="366" y="100" type="curve" smooth="yes"/>
      <point x="366" y="169"/>
      <point x="320" y="206"/>
      <point x="257" y="206" type="curve" smooth="yes"/>
      <point x="186" y="206"/>
      <point x="148" y="160"/>
      <point x="148" y="101" type="curve" smooth="yes"/>
      <point x="148" y="48"/>
      <point x="182" y="21"/>
      <point x="207" y="10" type="curve"/>
      <point x="232" y="4" type="line"/>
      <point x="151" y="30"/>
      <point x="70" y="84"/>
      <point x="70" y="254" type="curve" smooth="yes"/>
      <point x="70" y="409"/>
      <point x="168" y="512"/>
      <point x="310" y="512" type="curve" smooth="yes"/>
      <point x="436" y="512"/>
      <point x="503" y="436"/>
      <point x="503" y="334" type="curve" smooth="yes"/>
      <point x="503" y="233"/>
      <point x="425" y="174"/>
      <point x="425" y="89" type="curve" smooth="yes"/>
      <point x="425" y="34"/>
      <point x="455" y="-10"/>
    </contour>
    <contour>
      <point x="257" y="181" type="curve" smooth="yes"/>
      <point x="314" y="181"/>
      <point x="340" y="147"/>
      <point x="340" y="100" type="curve" smooth="yes"/>
      <point x="340" y="54"/>
      <point x="313" y="14"/>
      <point x="257" y="14" type="curve" smooth="yes"/>
      <point x="208" y="14"/>
      <point x="174" y="46"/>
      <point x="174" y="97" type="curve" smooth="yes"/>
      <point x="174" y="146"/>
      <point x="202" y="181"/>
    </contour>
  </outline>
</glyph>
<glyph name="masinh" format="2">
  <advance width="793"/>
  <unicode hex="0DB8"/>
  <outline>
    <contour>
      <point x="383" y="-10" type="curve" smooth="yes"/>
      <point x="663" y="-10"/>
      <point x="750" y="171"/>
      <point x="750" y="401" type="curve" smooth="yes"/>
      <point x="750" y="669"/>
      <point x="582" y="804"/>
      <point x="365" y="804" type="curve" smooth="yes"/>
      <point x="225" y="804"/>
      <point x="148" y="768"/>
      <point x="49" y="708" type="curve"/>
      <point x="65" y="685" type="line"/>
      <point x="154" y="748"/>
      <point x="245" y="779"/>
      <point x="366" y="779" type="curve" smooth="yes"/>
      <point x="559" y="779"/>
      <point x="723" y="661"/>
      <point x="723" y="402" type="curve" smooth="yes"/>
      <point x="723" y="186"/>
      <point x="645" y="17"/>
      <point x="383" y="17" type="curve" smooth="yes"/>
      <point x="206" y="17"/>
      <point x="70" y="110"/>
      <point x="70" y="328" type="curve" smooth="yes"/>
      <point x="70" y="451"/>
      <point x="125" y="532"/>
      <point x="183" y="532" type="curve" smooth="yes"/>
      <point x="211" y="532"/>
      <point x="220" y="516"/>
      <point x="220" y="487" type="curve" smooth="yes"/>
      <point x="220" y="453"/>
      <point x="211" y="426"/>
      <point x="211" y="394" type="curve" smooth="yes"/>
      <point x="211" y="297"/>
      <point x="283" y="245"/>
      <point x="393" y="245" type="curve" smooth="yes"/>
      <point x="501" y="245"/>
      <point x="580" y="301"/>
      <point x="580" y="411" type="curve" smooth="yes"/>
      <point x="580" y="506"/>
      <point x="523" y="571"/>
      <point x="421" y="571" type="curve" smooth="yes"/>
      <point x="350" y="571"/>
      <point x="306" y="532"/>
      <point x="306" y="468" type="curve" smooth="yes"/>
      <point x="306" y="423"/>
      <point x="332" y="372"/>
      <point x="406" y="372" type="curve" smooth="yes"/>
      <point x="474" y="372"/>
      <point x="506" y="414"/>
      <point x="506" y="469" type="curve" smooth="yes"/>
      <point x="506" y="500"/>
      <point x="491" y="539"/>
      <point x="449" y="552" type="curve"/>
      <point x="452" y="549" type="line"/>
      <point x="508" y="538"/>
      <point x="554" y="497"/>
      <point x="554" y="413" type="curve" smooth="yes"/>
      <point x="554" y="320"/>
      <point x="495" y="271"/>
      <point x="392" y="271" type="curve" smooth="yes"/>
      <point x="306" y="271"/>
      <point x="237" y="304"/>
      <point x="237" y="394" type="curve" smooth="yes"/>
      <point x="237" y="430"/>
      <point x="246" y="457"/>
      <point x="246" y="488" type="curve" smooth="yes"/>
      <point x="246" y="521"/>
      <point x="233" y="557"/>
      <point x="183" y="557" type="curve" smooth="yes"/>
      <point x="116" y="557"/>
      <point x="43" y="471"/>
      <point x="43" y="328" type="curve" smooth="yes"/>
      <point x="43" y="101"/>
      <point x="186" y="-10"/>
    </contour>
    <contour>
      <point x="480" y="471" type="curve" smooth="yes"/>
      <point x="480" y="429"/>
      <point x="457" y="397"/>
      <point x="406" y="397" type="curve" smooth="yes"/>
      <point x="356" y="397"/>
      <point x="332" y="428"/>
      <point x="332" y="468" type="curve" smooth="yes"/>
      <point x="332" y="511"/>
      <point x="359" y="545"/>
      <point x="408" y="545" type="curve" smooth="yes"/>
      <point x="454" y="545"/>
      <point x="480" y="517"/>
    </contour>
  </outline>
</glyph>
<glyph name="yasinh" format="2">
  <advance width="770"/>
  <unicode hex="0DBA"/>
  <outline>
    <contour>
      <point x="557" y="-10" type="curve" smooth="yes"/>
      <point x="679" y="-10"/>
      <point x="726" y="80"/>
      <point x="726" y="201" type="curve" smooth="yes"/>
      <point x="726" y="362"/>
      <point x="623" y="442"/>
      <point x="433" y="442" type="curve"/>
      <point x="440" y="441" type="line"/>
      <point x="449" y="508"/>
      <point x="497" y="564"/>
      <point x="579" y="564" type="curve" smooth="yes"/>
      <point x="667" y="564"/>
      <point x="682" y="512"/>
      <point x="682" y="468" type="curve" smooth="yes"/>
      <point x="682" y="449"/>
      <point x="678" y="427"/>
      <point x="671" y="407" type="curve"/>
      <point x="696" y="399" type="line"/>
      <point x="703" y="418"/>
      <point x="709" y="446"/>
      <point x="709" y="469" type="curve" smooth="yes"/>
      <point x="709" y="536"/>
      <point x="676" y="589"/>
      <point x="582" y="589" type="curve" smooth="yes"/>
      <point x="483" y="589"/>
      <point x="414" y="520"/>
      <point x="414" y="423" type="curve" smooth="yes"/>
      <point x="414" y="417" type="line"/>
      <point x="432" y="417" type="line" smooth="yes"/>
      <point x="607" y="417"/>
      <point x="699" y="348"/>
      <point x="699" y="201" type="curve" smooth="yes"/>
      <point x="699" y="86"/>
      <point x="656" y="17"/>
      <point x="556" y="17" type="curve" smooth="yes"/>
      <point x="454" y="17"/>
      <point x="410" y="92"/>
      <point x="394" y="169" type="curve"/>
      <point x="370" y="169" type="line"/>
      <point x="352" y="97"/>
      <point x="313" y="17"/>
      <point x="210" y="17" type="curve" smooth="yes"/>
      <point x="130" y="17"/>
      <point x="70" y="75"/>
      <point x="70" y="206" type="curve" smooth="yes"/>
      <point x="70" y="319"/>
      <point x="140" y="421"/>
      <point x="274" y="421" type="curve" smooth="yes"/>
      <point x="291" y="421"/>
      <point x="307" y="420"/>
      <point x="317" y="418" type="curve"/>
      <point x="320" y="443" type="line"/>
      <point x="308" y="445"/>
      <point x="290" y="446"/>
      <point x="275" y="446" type="curve" smooth="yes"/>
      <point x="135" y="446"/>
      <point x="43" y="340"/>
      <point x="43" y="205" type="curve" smooth="yes"/>
      <point x="43" y="67"/>
      <point x="109" y="-10"/>
      <point x="210" y="-10" type="curve" smooth="yes"/>
      <point x="309" y="-10"/>
      <point x="355" y="52"/>
      <point x="381" y="125" type="curve"/>
      <point x="406" y="48"/>
      <point x="465" y="-10"/>
    </contour>
  </outline>
</glyph>
<glyph name="rasinh" format="2">
  <advance width="658"/>
  <unicode hex="0DBB"/>
  <outline>
    <contour>
      <point x="329" y="-10" type="curve" smooth="yes"/>
      <point x="502" y="-10"/>
      <point x="614" y="95"/>
      <point x="614" y="282" type="curve" smooth="yes"/>
      <point x="614" y="443"/>
      <point x="502" y="572"/>
      <point x="329" y="572" type="curve" smooth="yes"/>
      <point x="167" y="572"/>
      <point x="44" y="453"/>
      <point x="44" y="282" type="curve" smooth="yes"/>
      <point x="44" y="102"/>
      <point x="148" y="-10"/>
    </contour>
    <contour>
      <point x="330" y="17" type="curve" smooth="yes"/>
      <point x="198" y="17"/>
      <point x="71" y="83"/>
      <point x="71" y="280" type="curve" smooth="yes"/>
      <point x="71" y="449"/>
      <point x="189" y="547"/>
      <point x="329" y="547" type="curve" smooth="yes"/>
      <point x="462" y="547"/>
      <point x="587" y="455"/>
      <point x="587" y="284" type="curve" smooth="yes"/>
      <point x="587" y="84"/>
      <point x="461" y="17"/>
    </contour>
    <contour>
      <point x="219" y="539" type="curve"/>
      <point x="279" y="557" type="line"/>
      <point x="391" y="625"/>
      <point x="560" y="752"/>
      <point x="643" y="828" type="curve"/>
      <point x="626" y="848" type="line"/>
      <point x="537" y="766"/>
      <point x="378" y="647"/>
    </contour>
  </outline>
</glyph>
<glyph name="lasinh" format="2">
  <advance width="811"/>
  <unicode hex="0DBD"/>
  <outline>
    <contour>
      <point x="438" y="-230" type="curve" smooth="yes"/>
      <point x="684" y="-230"/>
      <point x="788" y="-112"/>
      <point x="788" y="101" type="curve" smooth="yes"/>
      <point x="788" y="109"/>
      <point x="787" y="126"/>
      <point x="785" y="140" type="curve"/>
      <point x="758" y="138" type="line"/>
      <point x="760" y="125"/>
      <point x="761" y="110"/>
      <point x="761" y="102" type="curve" smooth="yes"/>
      <point x="761" y="-98"/>
      <point x="664" y="-203"/>
      <point x="441" y="-203" type="curve" smooth="yes"/>
      <point x="222" y="-203"/>
      <point x="69" y="-88"/>
      <point x="69" y="174" type="curve" smooth="yes"/>
      <point x="69" y="399"/>
      <point x="217" y="582"/>
      <point x="469" y="582" type="curve" smooth="yes"/>
      <point x="677" y="582"/>
      <point x="741" y="477"/>
      <point x="741" y="381" type="curve" smooth="yes"/>
      <point x="741" y="290"/>
      <point x="695" y="224"/>
      <point x="588" y="224" type="curve" smooth="yes"/>
      <point x="512" y="224"/>
      <point x="471" y="256"/>
      <point x="471" y="316" type="curve" smooth="yes"/>
      <point x="471" y="368"/>
      <point x="510" y="405"/>
      <point x="562" y="421" type="curve"/>
      <point x="535" y="416" type="line"/>
      <point x="652" y="416" type="line"/>
      <point x="652" y="442" type="line"/>
      <point x="323" y="442" type="line"/>
      <point x="323" y="416" type="line"/>
      <point x="432" y="416" type="line" smooth="yes"/>
      <point x="474" y="416"/>
      <point x="500" y="417"/>
      <point x="531" y="422" type="curve"/>
      <point x="520" y="425" type="line"/>
      <point x="463" y="397"/>
      <point x="444" y="355"/>
      <point x="444" y="312" type="curve" smooth="yes"/>
      <point x="444" y="239"/>
      <point x="499" y="198"/>
      <point x="587" y="198" type="curve" smooth="yes"/>
      <point x="706" y="198"/>
      <point x="768" y="269"/>
      <point x="768" y="383" type="curve" smooth="yes"/>
      <point x="768" y="489"/>
      <point x="695" y="607"/>
      <point x="470" y="607" type="curve" smooth="yes"/>
      <point x="193" y="607"/>
      <point x="41" y="407"/>
      <point x="41" y="175" type="curve" smooth="yes"/>
      <point x="41" y="-106"/>
      <point x="204" y="-230"/>
    </contour>
  </outline>
</glyph>
<glyph name="vasinh" format="2">
  <advance width="758"/>
  <unicode hex="0DC0"/>
  <outline>
    <contour>
      <point x="330" y="-10" type="curve" smooth="yes"/>
      <point x="578" y="-10"/>
      <point x="715" y="162"/>
      <point x="715" y="418" type="curve" smooth="yes"/>
      <point x="715" y="688"/>
      <point x="547" y="804"/>
      <point x="346" y="804" type="curve" smooth="yes"/>
      <point x="218" y="804"/>
      <point x="142" y="768"/>
      <point x="43" y="708" type="curve"/>
      <point x="59" y="685" type="line"/>
      <point x="148" y="748"/>
      <point x="238" y="779"/>
      <point x="346" y="779" type="curve" smooth="yes"/>
      <point x="532" y="779"/>
      <point x="688" y="674"/>
      <point x="688" y="420" type="curve" smooth="yes"/>
      <point x="688" y="178"/>
      <point x="559" y="17"/>
      <point x="335" y="17" type="curve" smooth="yes"/>
      <point x="169" y="17"/>
      <point x="70" y="100"/>
      <point x="70" y="230" type="curve" smooth="yes"/>
      <point x="70" y="296"/>
      <point x="93" y="340"/>
      <point x="131" y="369" type="curve" smooth="yes"/>
      <point x="177" y="404"/>
      <point x="241" y="417"/>
      <point x="328" y="417" type="curve" smooth="yes"/>
      <point x="430" y="417" type="line"/>
      <point x="430" y="424" type="line" smooth="yes"/>
      <point x="430" y="523"/>
      <point x="356" y="589"/>
      <point x="266" y="589" type="curve" smooth="yes"/>
      <point x="195" y="589"/>
      <point x="149" y="547"/>
      <point x="149" y="495" type="curve" smooth="yes"/>
      <point x="149" y="474"/>
      <point x="154" y="451"/>
      <point x="163" y="436" type="curve"/>
      <point x="187" y="444" type="line"/>
      <point x="179" y="459"/>
      <point x="176" y="475"/>
      <point x="176" y="492" type="curve" smooth="yes"/>
      <point x="176" y="526"/>
      <point x="198" y="564"/>
      <point x="267" y="564" type="curve" smooth="yes"/>
      <point x="349" y="564"/>
      <point x="393" y="507"/>
      <point x="404" y="442" type="curve"/>
      <point x="344" y="442" type="line" smooth="yes"/>
      <point x="245" y="442"/>
      <point x="177" y="433"/>
      <point x="114" y="387" type="curve" smooth="yes"/>
      <point x="71" y="355"/>
      <point x="43" y="305"/>
      <point x="43" y="232" type="curve" smooth="yes"/>
      <point x="43" y="80"/>
      <point x="158" y="-10"/>
    </contour>
  </outline>
</glyph>
<glyph name="shasinh" format="2">
  <advance width="862"/>
  <unicode hex="0DC1"/>
  <outline>
    <contour>
      <point x="570" y="-6" type="curve" smooth="yes"/>
      <point x="739" y="-6"/>
      <point x="818" y="93"/>
      <point x="818" y="285" type="curve" smooth="yes"/>
      <point x="818" y="435"/>
      <point x="761" y="589"/>
      <point x="597" y="589" type="curve" smooth="yes"/>
      <point x="475" y="589"/>
      <point x="375" y="491"/>
      <point x="342" y="293" type="curve"/>
      <point x="362" y="288" type="line"/>
      <point x="371" y="291"/>
      <point x="386" y="293"/>
      <point x="403" y="293" type="curve" smooth="yes"/>
      <point x="450" y="293"/>
      <point x="480" y="260"/>
      <point x="480" y="189" type="curve" smooth="yes"/>
      <point x="480" y="91"/>
      <point x="427" y="17"/>
      <point x="289" y="17" type="curve" smooth="yes"/>
      <point x="136" y="17"/>
      <point x="71" y="128"/>
      <point x="71" y="280" type="curve" smooth="yes"/>
      <point x="71" y="451"/>
      <point x="172" y="564"/>
      <point x="325" y="564" type="curve" smooth="yes"/>
      <point x="347" y="564"/>
      <point x="367" y="562"/>
      <point x="380" y="560" type="curve"/>
      <point x="383" y="585" type="line"/>
      <point x="365" y="588"/>
      <point x="342" y="589"/>
      <point x="326" y="589" type="curve" smooth="yes"/>
      <point x="168" y="589"/>
      <point x="44" y="474"/>
      <point x="44" y="279" type="curve" smooth="yes"/>
      <point x="44" y="106"/>
      <point x="127" y="-10"/>
      <point x="288" y="-10" type="curve" smooth="yes"/>
      <point x="450" y="-10"/>
      <point x="507" y="82"/>
      <point x="507" y="188" type="curve" smooth="yes"/>
      <point x="507" y="259"/>
      <point x="477" y="318"/>
      <point x="403" y="318" type="curve" smooth="yes"/>
      <point x="386" y="318"/>
      <point x="374" y="316"/>
      <point x="362" y="312" type="curve"/>
      <point x="371" y="307" type="line"/>
      <point x="401" y="468"/>
      <point x="488" y="563"/>
      <point x="595" y="563" type="curve" smooth="yes"/>
      <point x="738" y="563"/>
      <point x="791" y="430"/>
      <point x="791" y="285" type="curve" smooth="yes"/>
      <point x="791" y="111"/>
      <point x="725" y="19"/>
      <point x="573" y="19" type="curve" smooth="yes"/>
      <point x="557" y="19"/>
      <point x="544" y="20"/>
      <point x="530" y="22" type="curve"/>
      <point x="527" y="-3" type="line"/>
      <point x="536" y="-5"/>
      <point x="558" y="-6"/>
    </contour>
    <contour>
      <point x="680" y="295" type="curve" smooth="yes"/>
      <point x="609" y="295"/>
      <point x="577" y="249"/>
      <point x="577" y="197" type="curve" smooth="yes"/>
      <point x="577" y="145"/>
      <point x="600" y="110"/>
      <point x="600" y="72" type="curve" smooth="yes"/>
      <point x="600" y="37"/>
      <point x="582" y="18"/>
      <point x="560" y="9" type="curve"/>
      <point x="600" y="13" type="line"/>
      <point x="617" y="27"/>
      <point x="626" y="48"/>
      <point x="626" y="75" type="curve" smooth="yes"/>
      <point x="626" y="114"/>
      <point x="604" y="149"/>
      <point x="604" y="195" type="curve" smooth="yes"/>
      <point x="604" y="242"/>
      <point x="628" y="270"/>
      <point x="681" y="270" type="curve" smooth="yes"/>
      <point x="729" y="270"/>
      <point x="770" y="239"/>
      <point x="799" y="203" type="curve"/>
      <point x="808" y="228" type="line"/>
      <point x="778" y="261"/>
      <point x="734" y="295"/>
    </contour>
  </outline>
</glyph>
<glyph name="ssasinh" format="2">
  <advance width="746"/>
  <unicode hex="0DC2"/>
  <outline>
    <contour>
      <point x="372" y="-10" type="curve" smooth="yes"/>
      <point x="595" y="-10"/>
      <point x="702" y="88"/>
      <point x="702" y="235" type="curve" smooth="yes"/>
      <point x="702" y="361"/>
      <point x="633" y="442"/>
      <point x="443" y="442" type="curve" smooth="yes"/>
      <point x="411" y="442" type="line"/>
      <point x="420" y="441" type="line"/>
      <point x="429" y="508"/>
      <point x="477" y="564"/>
      <point x="558" y="564" type="curve" smooth="yes"/>
      <point x="638" y="564"/>
      <point x="661" y="512"/>
      <point x="661" y="463" type="curve" smooth="yes"/>
      <point x="661" y="360"/>
      <point x="573" y="332"/>
      <point x="424" y="332" type="curve" smooth="yes"/>
      <point x="316" y="332" type="line" smooth="yes"/>
      <point x="241" y="332"/>
      <point x="201" y="300"/>
      <point x="201" y="250" type="curve" smooth="yes"/>
      <point x="201" y="187"/>
      <point x="246" y="150"/>
      <point x="365" y="150" type="curve" smooth="yes"/>
      <point x="516" y="150"/>
      <point x="542" y="200"/>
      <point x="542" y="250" type="curve" smooth="yes"/>
      <point x="542" y="292"/>
      <point x="512" y="316"/>
      <point x="478" y="324" type="curve"/>
      <point x="462" y="310" type="line"/>
      <point x="491" y="305"/>
      <point x="515" y="285"/>
      <point x="515" y="252" type="curve" smooth="yes"/>
      <point x="515" y="204"/>
      <point x="484" y="175"/>
      <point x="368" y="175" type="curve" smooth="yes"/>
      <point x="263" y="175"/>
      <point x="228" y="200"/>
      <point x="228" y="251" type="curve" smooth="yes"/>
      <point x="228" y="289"/>
      <point x="258" y="307"/>
      <point x="314" y="307" type="curve" smooth="yes"/>
      <point x="430" y="307" type="line" smooth="yes"/>
      <point x="551" y="307"/>
      <point x="688" y="333"/>
      <point x="688" y="464" type="curve" smooth="yes"/>
      <point x="688" y="531"/>
      <point x="650" y="589"/>
      <point x="560" y="589" type="curve" smooth="yes"/>
      <point x="463" y="589"/>
      <point x="394" y="520"/>
      <point x="394" y="424" type="curve" smooth="yes"/>
      <point x="394" y="417" type="line"/>
      <point x="433" y="417" type="line" smooth="yes"/>
      <point x="604" y="417"/>
      <point x="675" y="362"/>
      <point x="675" y="234" type="curve" smooth="yes"/>
      <point x="675" y="105"/>
      <point x="578" y="17"/>
      <point x="372" y="17" type="curve" smooth="yes"/>
      <point x="167" y="17"/>
      <point x="71" y="107"/>
      <point x="71" y="237" type="curve" smooth="yes"/>
      <point x="71" y="368"/>
      <point x="153" y="417"/>
      <point x="308" y="417" type="curve" smooth="yes"/>
      <point x="352" y="417" type="line"/>
      <point x="352" y="424" type="line" smooth="yes"/>
      <point x="352" y="523"/>
      <point x="278" y="589"/>
      <point x="188" y="589" type="curve" smooth="yes"/>
      <point x="117" y="589"/>
      <point x="71" y="547"/>
      <point x="71" y="495" type="curve" smooth="yes"/>
      <point x="71" y="465"/>
      <point x="79" y="444"/>
      <point x="92" y="421" type="curve"/>
      <point x="116" y="431" type="line"/>
      <point x="103" y="453"/>
      <point x="98" y="470"/>
      <point x="98" y="492" type="curve" smooth="yes"/>
      <point x="98" y="526"/>
      <point x="120" y="564"/>
      <point x="189" y="564" type="curve" smooth="yes"/>
      <point x="271" y="564"/>
      <point x="315" y="507"/>
      <point x="326" y="442" type="curve"/>
      <point x="333" y="442" type="line"/>
      <point x="298" y="442" type="line" smooth="yes"/>
      <point x="130" y="442"/>
      <point x="44" y="372"/>
      <point x="44" y="237" type="curve" smooth="yes"/>
      <point x="44" y="86"/>
      <point x="157" y="-10"/>
    </contour>
  </outline>
</glyph>
<glyph name="sasinh" format="2">
  <advance width="773"/>
  <unicode hex="0DC3"/>
  <outline>
    <contour>
      <point x="560" y="-10" type="curve" smooth="yes"/>
      <point x="682" y="-10"/>
      <point x="729" y="80"/>
      <point x="729" y="201" type="curve" smooth="yes"/>
      <point x="729" y="362"/>
      <point x="626" y="442"/>
      <point x="436" y="442" type="curve"/>
      <point x="440" y="441" type="line"/>
      <point x="449" y="508"/>
      <point x="497" y="564"/>
      <point x="574" y="564" type="curve" smooth="yes"/>
      <point x="658" y="564"/>
      <point x="673" y="512"/>
      <point x="673" y="468" type="curve" smooth="yes"/>
      <point x="673" y="449"/>
      <point x="669" y="427"/>
      <point x="662" y="407" type="curve"/>
      <point x="687" y="399" type="line"/>
      <point x="694" y="418"/>
      <point x="700" y="446"/>
      <point x="700" y="469" type="curve" smooth="yes"/>
      <point x="700" y="536"/>
      <point x="667" y="589"/>
      <point x="577" y="589" type="curve" smooth="yes"/>
      <point x="483" y="589"/>
      <point x="414" y="520"/>
      <point x="414" y="423" type="curve" smooth="yes"/>
      <point x="414" y="417" type="line"/>
      <point x="435" y="417" type="line" smooth="yes"/>
      <point x="610" y="417"/>
      <point x="702" y="348"/>
      <point x="702" y="201" type="curve" smooth="yes"/>
      <point x="702" y="86"/>
      <point x="659" y="17"/>
      <point x="559" y="17" type="curve" smooth="yes"/>
      <point x="457" y="17"/>
      <point x="413" y="92"/>
      <point x="397" y="169" type="curve"/>
      <point x="373" y="169" type="line"/>
      <point x="354" y="100"/>
      <point x="326" y="17"/>
      <point x="213" y="17" type="curve" smooth="yes"/>
      <point x="120" y="17"/>
      <point x="75" y="89"/>
      <point x="75" y="192" type="curve" smooth="yes"/>
      <point x="75" y="312"/>
      <point x="147" y="402"/>
      <point x="315" y="421" type="curve"/>
      <point x="253" y="417" type="line"/>
      <point x="372" y="417" type="line"/>
      <point x="372" y="424" type="line" smooth="yes"/>
      <point x="372" y="523"/>
      <point x="298" y="589"/>
      <point x="208" y="589" type="curve" smooth="yes"/>
      <point x="137" y="589"/>
      <point x="91" y="547"/>
      <point x="91" y="495" type="curve" smooth="yes"/>
      <point x="91" y="483"/>
      <point x="93" y="466"/>
      <point x="98" y="453" type="curve"/>
      <point x="123" y="458" type="line"/>
      <point x="120" y="467"/>
      <point x="118" y="479"/>
      <point x="118" y="492" type="curve" smooth="yes"/>
      <point x="118" y="526"/>
      <point x="140" y="564"/>
      <point x="209" y="564" type="curve" smooth="yes"/>
      <point x="291" y="564"/>
      <point x="335" y="507"/>
      <point x="346" y="442" type="curve"/>
      <point x="25" y="442" type="line"/>
      <point x="25" y="417" type="line"/>
      <point x="117" y="417" type="line" smooth="yes"/>
      <point x="157" y="417"/>
      <point x="219" y="419"/>
      <point x="254" y="425" type="curve"/>
      <point x="262" y="428" type="line"/>
      <point x="118" y="407"/>
      <point x="48" y="312"/>
      <point x="48" y="192" type="curve" smooth="yes"/>
      <point x="48" y="59"/>
      <point x="119" y="-10"/>
      <point x="213" y="-10" type="curve" smooth="yes"/>
      <point x="312" y="-10"/>
      <point x="359" y="51"/>
      <point x="384" y="125" type="curve"/>
      <point x="409" y="48"/>
      <point x="468" y="-10"/>
    </contour>
  </outline>
</glyph>
<glyph name="hasinh" format="2">
  <advance width="876"/>
  <unicode hex="0DC4"/>
  <outline>
    <contour>
      <point x="594" y="-6" type="curve" smooth="yes"/>
      <point x="753" y="-6"/>
      <point x="832" y="92"/>
      <point x="832" y="285" type="curve" smooth="yes"/>
      <point x="832" y="435"/>
      <point x="775" y="589"/>
      <point x="614" y="589" type="curve" smooth="yes"/>
      <point x="492" y="589"/>
      <point x="392" y="491"/>
      <point x="359" y="293" type="curve"/>
      <point x="379" y="288" type="line"/>
      <point x="388" y="291"/>
      <point x="403" y="293"/>
      <point x="420" y="293" type="curve" smooth="yes"/>
      <point x="467" y="293"/>
      <point x="497" y="260"/>
      <point x="497" y="186" type="curve" smooth="yes"/>
      <point x="497" y="101"/>
      <point x="451" y="17"/>
      <point x="305" y="17" type="curve" smooth="yes"/>
      <point x="150" y="17"/>
      <point x="71" y="106"/>
      <point x="71" y="237" type="curve" smooth="yes"/>
      <point x="71" y="368"/>
      <point x="153" y="417"/>
      <point x="308" y="417" type="curve" smooth="yes"/>
      <point x="352" y="417" type="line"/>
      <point x="352" y="424" type="line" smooth="yes"/>
      <point x="352" y="523"/>
      <point x="278" y="589"/>
      <point x="188" y="589" type="curve" smooth="yes"/>
      <point x="117" y="589"/>
      <point x="71" y="547"/>
      <point x="71" y="495" type="curve" smooth="yes"/>
      <point x="71" y="465"/>
      <point x="79" y="444"/>
      <point x="92" y="421" type="curve"/>
      <point x="116" y="431" type="line"/>
      <point x="103" y="453"/>
      <point x="98" y="470"/>
      <point x="98" y="492" type="curve" smooth="yes"/>
      <point x="98" y="526"/>
      <point x="120" y="564"/>
      <point x="189" y="564" type="curve" smooth="yes"/>
      <point x="271" y="564"/>
      <point x="315" y="507"/>
      <point x="326" y="442" type="curve"/>
      <point x="333" y="442" type="line"/>
      <point x="298" y="442" type="line" smooth="yes"/>
      <point x="130" y="442"/>
      <point x="44" y="372"/>
      <point x="44" y="237" type="curve" smooth="yes"/>
      <point x="44" y="77"/>
      <point x="146" y="-10"/>
      <point x="303" y="-10" type="curve" smooth="yes"/>
      <point x="465" y="-10"/>
      <point x="524" y="84"/>
      <point x="524" y="188" type="curve" smooth="yes"/>
      <point x="524" y="259"/>
      <point x="494" y="318"/>
      <point x="420" y="318" type="curve" smooth="yes"/>
      <point x="403" y="318"/>
      <point x="391" y="316"/>
      <point x="379" y="312" type="curve"/>
      <point x="388" y="307" type="line"/>
      <point x="418" y="468"/>
      <point x="505" y="563"/>
      <point x="612" y="563" type="curve" smooth="yes"/>
      <point x="752" y="563"/>
      <point x="805" y="430"/>
      <point x="805" y="285" type="curve" smooth="yes"/>
      <point x="805" y="111"/>
      <point x="739" y="19"/>
      <point x="595" y="19" type="curve" smooth="yes"/>
      <point x="556" y="19"/>
      <point x="520" y="27"/>
      <point x="497" y="35" type="curve"/>
      <point x="489" y="9" type="line"/>
      <point x="518" y="1"/>
      <point x="552" y="-6"/>
    </contour>
  </outline>
</glyph>
<glyph name="llasinh" format="2">
  <advance width="740"/>
  <unicode hex="0DC5"/>
  <outline>
    <contour>
      <point x="385" y="-230" type="curve" smooth="yes"/>
      <point x="614" y="-230"/>
      <point x="725" y="-113"/>
      <point x="725" y="84" type="curve" smooth="yes"/>
      <point x="725" y="96"/>
      <point x="724" y="109"/>
      <point x="723" y="119" type="curve"/>
      <point x="696" y="117" type="line"/>
      <point x="697" y="108"/>
      <point x="698" y="92"/>
      <point x="698" y="86" type="curve" smooth="yes"/>
      <point x="698" y="-96"/>
      <point x="599" y="-203"/>
      <point x="382" y="-203" type="curve" smooth="yes"/>
      <point x="160" y="-203"/>
      <point x="61" y="-88"/>
      <point x="61" y="85" type="curve" smooth="yes"/>
      <point x="61" y="300"/>
      <point x="217" y="417"/>
      <point x="509" y="417" type="curve" smooth="yes"/>
      <point x="662" y="417" type="line"/>
      <point x="662" y="426" type="line" smooth="yes"/>
      <point x="662" y="517"/>
      <point x="618" y="589"/>
      <point x="530" y="589" type="curve" smooth="yes"/>
      <point x="471" y="589"/>
      <point x="430" y="549"/>
      <point x="417" y="485" type="curve"/>
      <point x="423" y="485" type="line"/>
      <point x="412" y="538"/>
      <point x="383" y="589"/>
      <point x="314" y="589" type="curve" smooth="yes"/>
      <point x="234" y="589"/>
      <point x="164" y="517"/>
      <point x="164" y="382" type="curve" smooth="yes"/>
      <point x="164" y="361"/>
      <point x="164" y="351"/>
      <point x="165" y="340" type="curve"/>
      <point x="177" y="223"/>
      <point x="248" y="119"/>
      <point x="421" y="119" type="curve" smooth="yes"/>
      <point x="588" y="119"/>
      <point x="651" y="189"/>
      <point x="665" y="315" type="curve"/>
      <point x="639" y="320" type="line"/>
      <point x="625" y="196"/>
      <point x="569" y="145"/>
      <point x="423" y="145" type="curve" smooth="yes"/>
      <point x="261" y="145"/>
      <point x="190" y="244"/>
      <point x="190" y="369" type="curve" smooth="yes"/>
      <point x="190" y="374" type="line" smooth="yes"/>
      <point x="190" y="515"/>
      <point x="253" y="564"/>
      <point x="313" y="564" type="curve" smooth="yes"/>
      <point x="367" y="564"/>
      <point x="396" y="528"/>
      <point x="408" y="456" type="curve"/>
      <point x="433" y="456" type="line"/>
      <point x="442" y="536"/>
      <point x="483" y="564"/>
      <point x="529" y="564" type="curve" smooth="yes"/>
      <point x="600" y="564"/>
      <point x="632" y="508"/>
      <point x="636" y="442" type="curve"/>
      <point x="514" y="442" type="line" smooth="yes"/>
      <point x="213" y="442"/>
      <point x="33" y="320"/>
      <point x="33" y="85" type="curve" smooth="yes"/>
      <point x="33" y="-94"/>
      <point x="133" y="-230"/>
    </contour>
  </outline>
</glyph>
<glyph name="fasinh" format="2">
  <advance width="780"/>
  <unicode hex="0DC6"/>
  <outline>
    <contour>
      <point x="511" y="-10" type="curve" smooth="yes"/>
      <point x="658" y="-10"/>
      <point x="733" y="93"/>
      <point x="733" y="293" type="curve" smooth="yes"/>
      <point x="733" y="448"/>
      <point x="682" y="589"/>
      <point x="551" y="589" type="curve" smooth="yes"/>
      <point x="468" y="589"/>
      <point x="411" y="531"/>
      <point x="390" y="430" type="curve"/>
      <point x="375" y="519"/>
      <point x="328" y="589"/>
      <point x="242" y="589" type="curve" smooth="yes"/>
      <point x="119" y="589"/>
      <point x="47" y="458"/>
      <point x="47" y="287" type="curve" smooth="yes"/>
      <point x="47" y="105"/>
      <point x="112" y="-10"/>
      <point x="264" y="-10" type="curve" smooth="yes"/>
      <point x="283" y="-10"/>
      <point x="297" y="-10"/>
      <point x="317" y="-5" type="curve"/>
      <point x="312" y="20" type="line"/>
      <point x="296" y="17"/>
      <point x="278" y="15"/>
      <point x="263" y="15" type="curve" smooth="yes"/>
      <point x="132" y="15"/>
      <point x="74" y="115"/>
      <point x="74" y="286" type="curve" smooth="yes"/>
      <point x="74" y="456"/>
      <point x="143" y="563"/>
      <point x="241" y="563" type="curve" smooth="yes"/>
      <point x="325" y="563"/>
      <point x="367" y="477"/>
      <point x="378" y="373" type="curve"/>
      <point x="402" y="373" type="line"/>
      <point x="413" y="481"/>
      <point x="462" y="563"/>
      <point x="551" y="563" type="curve" smooth="yes"/>
      <point x="660" y="563"/>
      <point x="706" y="437"/>
      <point x="706" y="293" type="curve" smooth="yes"/>
      <point x="706" y="114"/>
      <point x="643" y="15"/>
      <point x="510" y="15" type="curve" smooth="yes"/>
      <point x="499" y="15"/>
      <point x="480" y="17"/>
      <point x="462" y="21" type="curve"/>
      <point x="457" y="-4" type="line"/>
      <point x="473" y="-8"/>
      <point x="487" y="-10"/>
    </contour>
  </outline>
</glyph>
<glyph name="viramasinh" format="2">
  <unicode hex="0DCA"/>
  <outline>
    <contour>
      <point x="-218" y="963" type="curve" smooth="yes"/>
      <point x="-234" y="963"/>
      <point x="-248" y="960"/>
      <point x="-258" y="957" type="curve"/>
      <point x="-254" y="934" type="line"/>
      <point x="-243" y="937"/>
      <point x="-231" y="939"/>
      <point x="-222" y="939" type="curve" smooth="yes"/>
      <point x="-191" y="939"/>
      <point x="-168" y="925"/>
      <point x="-168" y="859" type="curve" smooth="yes"/>
      <point x="-168" y="519" type="line"/>
      <point x="-142" y="519" type="line"/>
      <point x="-142" y="738" type="line" smooth="yes"/>
      <point x="-142" y="768"/>
      <point x="-142" y="799"/>
      <point x="-145" y="829" type="curve"/>
      <point x="-141" y="836" type="line"/>
      <point x="-141" y="901" type="line"/>
      <point x="-152" y="902" type="line"/>
      <point x="-157" y="941"/>
      <point x="-184" y="963"/>
    </contour>
    <contour>
      <point x="-75" y="963" type="curve" smooth="yes"/>
      <point x="-115" y="963"/>
      <point x="-142" y="935"/>
      <point x="-159" y="895" type="curve"/>
      <point x="-144" y="872" type="line"/>
      <point x="-134" y="911"/>
      <point x="-115" y="940"/>
      <point x="-77" y="940" type="curve" smooth="yes"/>
      <point x="-44" y="940"/>
      <point x="-26" y="915"/>
      <point x="-26" y="875" type="curve" smooth="yes"/>
      <point x="-26" y="830"/>
      <point x="-46" y="812"/>
      <point x="-79" y="812" type="curve" smooth="yes"/>
      <point x="-116" y="812"/>
      <point x="-135" y="837"/>
      <point x="-144" y="867" type="curve"/>
      <point x="-154" y="844" type="line"/>
      <point x="-141" y="813"/>
      <point x="-116" y="789"/>
      <point x="-77" y="789" type="curve" smooth="yes"/>
      <point x="-32" y="789"/>
      <point x="0" y="819"/>
      <point x="0" y="875" type="curve" smooth="yes"/>
      <point x="0" y="922"/>
      <point x="-25" y="963"/>
    </contour>
  </outline>
</glyph>
<glyph name="aavowelsignsinh" format="2">
  <advance width="342"/>
  <unicode hex="0DCF"/>
  <outline>
    <contour>
      <point x="297" y="247" type="curve" smooth="yes"/>
      <point x="297" y="433"/>
      <point x="232" y="504"/>
      <point x="145" y="504" type="curve" smooth="yes"/>
      <point x="68" y="504"/>
      <point x="31" y="453"/>
      <point x="5" y="389" type="curve"/>
      <point x="31" y="380" type="line"/>
      <point x="57" y="449"/>
      <point x="94" y="479"/>
      <point x="144" y="479" type="curve" smooth="yes"/>
      <point x="223" y="479"/>
      <point x="270" y="405"/>
      <point x="270" y="250" type="curve" smooth="yes"/>
      <point x="270" y="78"/>
      <point x="224" y="15"/>
      <point x="145" y="15" type="curve" smooth="yes"/>
      <point x="90" y="15"/>
      <point x="53" y="46"/>
      <point x="28" y="117" type="curve"/>
      <point x="2" y="108" type="line"/>
      <point x="26" y="53"/>
      <point x="57" y="-10"/>
      <point x="144" y="-10" type="curve" smooth="yes"/>
      <point x="232" y="-10"/>
      <point x="297" y="47"/>
    </contour>
  </outline>
</glyph>
<glyph name="aevowelsignsinh" format="2">
  <advance width="261"/>
  <unicode hex="0DD0"/>
  <outline>
    <contour>
      <point x="10" y="391" type="line"/>
      <point x="10" y="365" type="line"/>
      <point x="142" y="365" type="line" smooth="yes"/>
      <point x="174" y="365"/>
      <point x="198" y="366"/>
      <point x="219" y="368" type="curve"/>
      <point x="215" y="369" type="line"/>
      <point x="60" y="225"/>
      <point x="19" y="108"/>
      <point x="19" y="10" type="curve" smooth="yes"/>
      <point x="19" y="-132"/>
      <point x="101" y="-168"/>
      <point x="183" y="-168" type="curve" smooth="yes"/>
      <point x="226" y="-168"/>
      <point x="266" y="-156"/>
      <point x="303" y="-132" type="curve"/>
      <point x="290" y="-109" type="line"/>
      <point x="261" y="-130"/>
      <point x="225" y="-142"/>
      <point x="181" y="-142" type="curve" smooth="yes"/>
      <point x="94" y="-142"/>
      <point x="46" y="-94"/>
      <point x="46" y="12" type="curve" smooth="yes"/>
      <point x="46" y="135"/>
      <point x="120" y="247"/>
      <point x="244" y="364" type="curve"/>
      <point x="228" y="391" type="line"/>
    </contour>
  </outline>
</glyph>
<glyph name="aaevowelsignsinh" format="2">
  <advance width="261"/>
  <unicode hex="0DD1"/>
  <outline>
    <contour>
      <point x="183" y="-168" type="curve" smooth="yes"/>
      <point x="226" y="-168"/>
      <point x="266" y="-156"/>
      <point x="303" y="-132" type="curve"/>
      <point x="290" y="-109" type="line"/>
      <point x="261" y="-130"/>
      <point x="225" y="-142"/>
      <point x="181" y="-142" type="curve" smooth="yes"/>
      <point x="94" y="-142"/>
      <point x="46" y="-98"/>
      <point x="46" y="-10" type="curve" smooth="yes"/>
      <point x="46" y="79"/>
      <point x="103" y="141"/>
      <point x="235" y="215" type="curve"/>
      <point x="224" y="242" type="line"/>
      <point x="136" y="242" type="line" smooth="yes"/>
      <point x="93" y="242"/>
      <point x="73" y="240"/>
      <point x="42" y="236" type="curve"/>
      <point x="50" y="230" type="line"/>
      <point x="114" y="273"/>
      <point x="188" y="325"/>
      <point x="238" y="362" type="curve"/>
      <point x="226" y="391" type="line"/>
      <point x="10" y="391" type="line"/>
      <point x="10" y="365" type="line"/>
      <point x="132" y="365" type="line" smooth="yes"/>
      <point x="180" y="365"/>
      <point x="199" y="366"/>
      <point x="225" y="369" type="curve"/>
      <point x="222" y="374" type="line"/>
      <point x="151" y="330"/>
      <point x="90" y="287"/>
      <point x="30" y="240" type="curve"/>
      <point x="40" y="217" type="line"/>
      <point x="118" y="217" type="line" smooth="yes"/>
      <point x="171" y="217"/>
      <point x="198" y="218"/>
      <point x="227" y="223" type="curve"/>
      <point x="208" y="224" type="line"/>
      <point x="101" y="164"/>
      <point x="19" y="95"/>
      <point x="19" y="-10" type="curve" smooth="yes"/>
      <point x="19" y="-132"/>
      <point x="98" y="-168"/>
    </contour>
  </outline>
</glyph>
<glyph name="ivowelsignsinh" format="2">
  <unicode hex="0DD2"/>
  <outline>
    <contour>
      <point x="-318" y="842" type="curve" smooth="yes"/>
      <point x="-518" y="842"/>
      <point x="-576" y="751"/>
      <point x="-576" y="682" type="curve" smooth="yes"/>
      <point x="-576" y="633"/>
      <point x="-550" y="596"/>
      <point x="-517" y="569" type="curve"/>
      <point x="-498" y="582" type="line"/>
      <point x="-527" y="610"/>
      <point x="-549" y="633"/>
      <point x="-549" y="680" type="curve" smooth="yes"/>
      <point x="-549" y="736"/>
      <point x="-509" y="816"/>
      <point x="-318" y="816" type="curve" smooth="yes"/>
      <point x="-130" y="816"/>
      <point x="-70" y="751"/>
      <point x="-70" y="673" type="curve" smooth="yes"/>
      <point x="-70" y="633"/>
      <point x="-84" y="603"/>
      <point x="-114" y="577" type="curve"/>
      <point x="-95" y="560" type="line"/>
      <point x="-61" y="590"/>
      <point x="-43" y="628"/>
      <point x="-43" y="672" type="curve" smooth="yes"/>
      <point x="-43" y="750"/>
      <point x="-98" y="842"/>
    </contour>
  </outline>
</glyph>
<glyph name="iivowelsignsinh" format="2">
  <unicode hex="0DD3"/>
  <outline>
    <contour>
      <point x="-318" y="842" type="curve" smooth="yes"/>
      <point x="-518" y="842"/>
      <point x="-576" y="751"/>
      <point x="-576" y="681" type="curve" smooth="yes"/>
      <point x="-576" y="633"/>
      <point x="-550" y="596"/>
      <point x="-517" y="569" type="curve"/>
      <point x="-498" y="582" type="line"/>
      <point x="-527" y="610"/>
      <point x="-549" y="633"/>
      <point x="-549" y="680" type="curve" smooth="yes"/>
      <point x="-549" y="735"/>
      <point x="-509" y="816"/>
      <point x="-318" y="816" type="curve" smooth="yes"/>
      <point x="-198" y="816"/>
      <point x="-104" y="787"/>
      <point x="-58" y="726" type="curve"/>
      <point x="-63" y="737" type="line"/>
      <point x="-80" y="753"/>
      <point x="-104" y="767"/>
      <point x="-134" y="767" type="curve" smooth="yes"/>
      <point x="-199" y="767"/>
      <point x="-236" y="723"/>
      <point x="-236" y="667" type="curve" smooth="yes"/>
      <point x="-236" y="605"/>
      <point x="-198" y="567"/>
      <point x="-132" y="567" type="curve" smooth="yes"/>
      <point x="-71" y="567"/>
      <point x="-28" y="596"/>
      <point x="-28" y="673" type="curve" smooth="yes"/>
      <point x="-28" y="743"/>
      <point x="-95" y="842"/>
    </contour>
    <contour>
      <point x="-54" y="670" type="curve" smooth="yes"/>
      <point x="-54" y="615"/>
      <point x="-86" y="592"/>
      <point x="-134" y="592" type="curve" smooth="yes"/>
      <point x="-182" y="592"/>
      <point x="-210" y="621"/>
      <point x="-210" y="668" type="curve" smooth="yes"/>
      <point x="-210" y="719"/>
      <point x="-175" y="745"/>
      <point x="-133" y="745" type="curve" smooth="yes"/>
      <point x="-78" y="745"/>
      <point x="-54" y="710"/>
    </contour>
  </outline>
</glyph>
<glyph name="uvowelsignsinh" format="2">
  <unicode hex="0DD4"/>
  <outline>
    <contour>
      <point x="-614" y="-161" type="curve" smooth="yes"/>
      <point x="-614" y="-239"/>
      <point x="-567" y="-284"/>
      <point x="-434" y="-284" type="curve" smooth="yes"/>
      <point x="-33" y="-284" type="line"/>
      <point x="-33" y="72" type="line"/>
      <point x="-59" y="72" type="line"/>
      <point x="-59" y="-259" type="line"/>
      <point x="-423" y="-259" type="line" smooth="yes"/>
      <point x="-521" y="-259"/>
      <point x="-587" y="-244"/>
      <point x="-587" y="-160" type="curve" smooth="yes"/>
      <point x="-587" y="-113"/>
      <point x="-551" y="-80"/>
      <point x="-501" y="-80" type="curve" smooth="yes"/>
      <point x="-464" y="-80"/>
      <point x="-432" y="-91"/>
      <point x="-414" y="-100" type="curve"/>
      <point x="-404" y="-76" type="line"/>
      <point x="-430" y="-66"/>
      <point x="-459" y="-55"/>
      <point x="-499" y="-55" type="curve" smooth="yes"/>
      <point x="-570" y="-55"/>
      <point x="-614" y="-106"/>
    </contour>
  </outline>
</glyph>
<glyph name="uuvowelsignsinh" format="2">
  <unicode hex="0DD6"/>
  <outline>
    <contour>
      <point x="-614" y="-169" type="curve" smooth="yes"/>
      <point x="-614" y="-239"/>
      <point x="-574" y="-289"/>
      <point x="-488" y="-289" type="curve" smooth="yes"/>
      <point x="-427" y="-289"/>
      <point x="-381" y="-262"/>
      <point x="-325" y="-226" type="curve" smooth="yes"/>
      <point x="-268" y="-189"/>
      <point x="-235" y="-174"/>
      <point x="-202" y="-174" type="curve" smooth="yes"/>
      <point x="-145" y="-174"/>
      <point x="-108" y="-207"/>
      <point x="-55" y="-284" type="curve"/>
      <point x="-33" y="-284" type="line"/>
      <point x="-33" y="72" type="line"/>
      <point x="-59" y="72" type="line"/>
      <point x="-59" y="-143" type="line" smooth="yes"/>
      <point x="-59" y="-182"/>
      <point x="-58" y="-219"/>
      <point x="-55" y="-257" type="curve"/>
      <point x="-46" y="-258" type="line"/>
      <point x="-100" y="-179"/>
      <point x="-147" y="-149"/>
      <point x="-203" y="-149" type="curve" smooth="yes"/>
      <point x="-246" y="-149"/>
      <point x="-279" y="-167"/>
      <point x="-339" y="-205" type="curve" smooth="yes"/>
      <point x="-399" y="-242"/>
      <point x="-434" y="-264"/>
      <point x="-490" y="-264" type="curve" smooth="yes"/>
      <point x="-536" y="-264"/>
      <point x="-587" y="-244"/>
      <point x="-587" y="-169" type="curve" smooth="yes"/>
      <point x="-587" y="-111"/>
      <point x="-551" y="-80"/>
      <point x="-501" y="-80" type="curve" smooth="yes"/>
      <point x="-464" y="-80"/>
      <point x="-433" y="-91"/>
      <point x="-415" y="-100" type="curve"/>
      <point x="-405" y="-76" type="line"/>
      <point x="-431" y="-66"/>
      <point x="-460" y="-55"/>
      <point x="-498" y="-55" type="curve" smooth="yes"/>
      <point x="-570" y="-55"/>
      <point x="-614" y="-103"/>
    </contour>
  </outline>
</glyph>
<glyph name="rvocalicvowelsignsinh" format="2">
  <advance width="364"/>
  <unicode hex="0DD8"/>
  <outline>
    <contour>
      <point x="131" y="-4" type="curve" smooth="yes"/>
      <point x="172" y="-4"/>
      <point x="202" y="11"/>
      <point x="230" y="28" type="curve"/>
      <point x="286" y="0" type="line"/>
      <point x="308" y="15" type="line"/>
      <point x="227" y="57" type="line"/>
      <point x="196" y="34"/>
      <point x="164" y="21"/>
      <point x="130" y="21" type="curve" smooth="yes"/>
      <point x="57" y="21"/>
      <point x="38" y="70"/>
      <point x="38" y="122" type="curve" smooth="yes"/>
      <point x="38" y="210"/>
      <point x="117" y="246"/>
      <point x="221" y="246" type="curve" smooth="yes"/>
      <point x="296" y="246" type="line"/>
      <point x="300" y="271" type="line"/>
      <point x="226" y="271" type="line" smooth="yes"/>
      <point x="114" y="271"/>
      <point x="11" y="233"/>
      <point x="11" y="120" type="curve" smooth="yes"/>
      <point x="11" y="48"/>
      <point x="48" y="-4"/>
    </contour>
    <contour>
      <point x="163" y="504" type="curve" smooth="yes"/>
      <point x="82" y="504"/>
      <point x="45" y="453"/>
      <point x="19" y="389" type="curve"/>
      <point x="45" y="380" type="line"/>
      <point x="71" y="449"/>
      <point x="108" y="479"/>
      <point x="164" y="479" type="curve" smooth="yes"/>
      <point x="245" y="479"/>
      <point x="284" y="405"/>
      <point x="284" y="275" type="curve" smooth="yes"/>
      <point x="284" y="16" type="line"/>
      <point x="288" y="13" type="line"/>
      <point x="286" y="0" type="line"/>
      <point x="310" y="0" type="line"/>
      <point x="310" y="274" type="line" smooth="yes"/>
      <point x="310" y="347"/>
      <point x="303" y="403"/>
      <point x="268" y="453" type="curve" smooth="yes"/>
      <point x="246" y="484"/>
      <point x="211" y="504"/>
    </contour>
  </outline>
</glyph>
<glyph name="evowelsignsinh" format="2">
  <advance width="600"/>
  <unicode hex="0DD9"/>
  <outline>
    <contour>
      <point x="42" y="259" type="curve" smooth="yes"/>
      <point x="42" y="119"/>
      <point x="128" y="-10"/>
      <point x="326" y="-10" type="curve" smooth="yes"/>
      <point x="483" y="-10"/>
      <point x="568" y="70"/>
      <point x="568" y="191" type="curve" smooth="yes"/>
      <point x="568" y="302"/>
      <point x="491" y="379"/>
      <point x="360" y="379" type="curve" smooth="yes"/>
      <point x="262" y="379"/>
      <point x="219" y="330"/>
      <point x="219" y="270" type="curve" smooth="yes"/>
      <point x="219" y="208"/>
      <point x="261" y="173"/>
      <point x="320" y="173" type="curve" smooth="yes"/>
      <point x="388" y="173"/>
      <point x="421" y="216"/>
      <point x="421" y="271" type="curve" smooth="yes"/>
      <point x="421" y="319"/>
      <point x="393" y="351"/>
      <point x="350" y="361" type="curve"/>
      <point x="350" y="358" type="line"/>
      <point x="481" y="355"/>
      <point x="541" y="287"/>
      <point x="541" y="190" type="curve" smooth="yes"/>
      <point x="541" y="89"/>
      <point x="476" y="17"/>
      <point x="323" y="17" type="curve" smooth="yes"/>
      <point x="158" y="17"/>
      <point x="69" y="120"/>
      <point x="69" y="261" type="curve" smooth="yes"/>
      <point x="69" y="417"/>
      <point x="175" y="508"/>
      <point x="338" y="508" type="curve" smooth="yes"/>
      <point x="432" y="508"/>
      <point x="493" y="485"/>
      <point x="565" y="442" type="curve"/>
      <point x="579" y="465" type="line"/>
      <point x="513" y="502"/>
      <point x="441" y="534"/>
      <point x="339" y="534" type="curve" smooth="yes"/>
      <point x="158" y="534"/>
      <point x="42" y="428"/>
    </contour>
    <contour>
      <point x="395" y="273" type="curve" smooth="yes"/>
      <point x="395" y="231"/>
      <point x="372" y="198"/>
      <point x="320" y="198" type="curve" smooth="yes"/>
      <point x="266" y="198"/>
      <point x="245" y="230"/>
      <point x="245" y="270" type="curve" smooth="yes"/>
      <point x="245" y="312"/>
      <point x="269" y="348"/>
      <point x="320" y="348" type="curve" smooth="yes"/>
      <point x="367" y="348"/>
      <point x="395" y="319"/>
    </contour>
  </outline>
</glyph>
<glyph name="uni0DDD" format="2">
  <advance width="1084"/>
  <unicode hex="0DDD"/>
  <outline>
    <contour>
      <point x="866" y="963" type="curve" smooth="yes"/>
      <point x="850" y="963"/>
      <point x="836" y="960"/>
      <point x="826" y="957" type="curve"/>
      <point x="830" y="934" type="line"/>
      <point x="841" y="937"/>
      <point x="853" y="939"/>
      <point x="862" y="939" type="curve" smooth="yes"/>
      <point x="893" y="939"/>
      <point x="916" y="925"/>
      <point x="916" y="859" type="curve" smooth="yes"/>
      <point x="916" y="487" type="line"/>
      <point x="942" y="487" type="line"/>
      <point x="942" y="738" type="line" smooth="yes"/>
      <point x="942" y="768"/>
      <point x="942" y="799"/>
      <point x="939" y="829" type="curve"/>
      <point x="943" y="836" type="line"/>
      <point x="943" y="901" type="line"/>
      <point x="932" y="902" type="line"/>
      <point x="927" y="941"/>
      <point x="900" y="963"/>
    </contour>
    <contour>
      <point x="1009" y="963" type="curve" smooth="yes"/>
      <point x="969" y="963"/>
      <point x="942" y="935"/>
      <point x="925" y="895" type="curve"/>
      <point x="940" y="872" type="line"/>
      <point x="950" y="911"/>
      <point x="969" y="940"/>
      <point x="1007" y="940" type="curve" smooth="yes"/>
      <point x="1040" y="940"/>
      <point x="1058" y="915"/>
      <point x="1058" y="875" type="curve" smooth="yes"/>
      <point x="1058" y="830"/>
      <point x="1038" y="812"/>
      <point x="1005" y="812" type="curve" smooth="yes"/>
      <point x="968" y="812"/>
      <point x="949" y="837"/>
      <point x="940" y="867" type="curve"/>
      <point x="930" y="844" type="line"/>
      <point x="943" y="813"/>
      <point x="968" y="789"/>
      <point x="1007" y="789" type="curve" smooth="yes"/>
      <point x="1052" y="789"/>
      <point x="1084" y="819"/>
      <point x="1084" y="875" type="curve" smooth="yes"/>
      <point x="1084" y="922"/>
      <point x="1059" y="963"/>
    </contour>
    <component base="evowelsignsinh"/>
    <component base="period.sinh" xOffset="579" yOffset="215"/>
    <component base="aavowelsignsinh" xOffset="742"/>
  </outline>
</glyph>
<glyph name="lvocalicvowelsignsinh" format="2">
  <advance width="488"/>
  <unicode hex="0DDF"/>
  <outline>
    <contour>
      <point x="290" y="-10" type="curve" smooth="yes"/>
      <point x="378" y="-10"/>
      <point x="443" y="47"/>
      <point x="443" y="247" type="curve" smooth="yes"/>
      <point x="443" y="433"/>
      <point x="379" y="504"/>
      <point x="288" y="504" type="curve" smooth="yes"/>
      <point x="212" y="504"/>
      <point x="171" y="457"/>
      <point x="140" y="393" type="curve"/>
      <point x="164" y="386" type="line"/>
      <point x="200" y="454"/>
      <point x="236" y="479"/>
      <point x="287" y="479" type="curve" smooth="yes"/>
      <point x="370" y="479"/>
      <point x="416" y="405"/>
      <point x="416" y="250" type="curve" smooth="yes"/>
      <point x="416" y="78"/>
      <point x="370" y="15"/>
      <point x="291" y="15" type="curve" smooth="yes"/>
      <point x="236" y="15"/>
      <point x="199" y="46"/>
      <point x="174" y="117" type="curve"/>
      <point x="148" y="108" type="line"/>
      <point x="172" y="53"/>
      <point x="203" y="-10"/>
    </contour>
    <contour>
      <point x="172" y="231" type="curve" smooth="yes"/>
      <point x="249" y="231"/>
      <point x="288" y="271"/>
      <point x="288" y="326" type="curve" smooth="yes"/>
      <point x="288" y="380"/>
      <point x="251" y="408"/>
      <point x="200" y="408" type="curve" smooth="yes"/>
      <point x="180" y="408"/>
      <point x="169" y="404"/>
      <point x="159" y="401" type="curve"/>
      <point x="140" y="393" type="line"/>
      <point x="161" y="379" type="line"/>
      <point x="170" y="382"/>
      <point x="181" y="384"/>
      <point x="200" y="384" type="curve" smooth="yes"/>
      <point x="237" y="384"/>
      <point x="261" y="365"/>
      <point x="261" y="327" type="curve" smooth="yes"/>
      <point x="261" y="284"/>
      <point x="232" y="256"/>
      <point x="173" y="256" type="curve" smooth="yes"/>
      <point x="84" y="256"/>
      <point x="52" y="308"/>
      <point x="52" y="374" type="curve" smooth="yes"/>
      <point x="52" y="434"/>
      <point x="75" y="473"/>
      <point x="123" y="522" type="curve"/>
      <point x="102" y="538" type="line"/>
      <point x="56" y="492"/>
      <point x="25" y="439"/>
      <point x="25" y="375" type="curve" smooth="yes"/>
      <point x="25" y="302"/>
      <point x="60" y="231"/>
    </contour>
  </outline>
</glyph>
<glyph name="uni0DE6" format="2">
  <advance width="372"/>
  <unicode hex="0DE6"/>
  <outline>
    <contour>
      <point x="81" y="706" type="curve" smooth="yes"/>
      <point x="59" y="706"/>
      <point x="36" y="700"/>
      <point x="19" y="693" type="curve"/>
      <point x="26" y="669" type="line"/>
      <point x="41" y="675"/>
      <point x="56" y="680"/>
      <point x="79" y="680" type="curve" smooth="yes"/>
      <point x="111" y="680"/>
      <point x="141" y="664"/>
      <point x="141" y="575" type="curve" smooth="yes"/>
      <point x="141" y="0" type="line"/>
      <point x="167" y="0" type="line"/>
      <point x="167" y="425" type="line" smooth="yes"/>
      <point x="167" y="463"/>
      <point x="167" y="507"/>
      <point x="165" y="543" type="curve"/>
      <point x="168" y="548" type="line"/>
      <point x="168" y="628" type="line"/>
      <point x="157" y="630" type="line"/>
      <point x="151" y="686"/>
      <point x="119" y="706"/>
    </contour>
    <contour>
      <point x="251" y="706" type="curve" smooth="yes"/>
      <point x="202" y="706"/>
      <point x="170" y="671"/>
      <point x="149" y="620" type="curve"/>
      <point x="164" y="592" type="line"/>
      <point x="179" y="644"/>
      <point x="204" y="681"/>
      <point x="250" y="681" type="curve" smooth="yes"/>
      <point x="295" y="681"/>
      <point x="316" y="646"/>
      <point x="316" y="596" type="curve" smooth="yes"/>
      <point x="316" y="540"/>
      <point x="293" y="515"/>
      <point x="248" y="515" type="curve" smooth="yes"/>
      <point x="202" y="515"/>
      <point x="175" y="549"/>
      <point x="164" y="587" type="curve"/>
      <point x="155" y="557" type="line"/>
      <point x="171" y="519"/>
      <point x="202" y="490"/>
      <point x="248" y="490" type="curve" smooth="yes"/>
      <point x="307" y="490"/>
      <point x="343" y="526"/>
      <point x="343" y="596" type="curve" smooth="yes"/>
      <point x="343" y="655"/>
      <point x="315" y="706"/>
    </contour>
  </outline>
</glyph>
<glyph name="uni0DE8" format="2">
  <advance width="1209"/>
  <unicode hex="0DE8"/>
  <outline>
    <contour>
      <point x="43" y="286" type="curve" smooth="yes"/>
      <point x="43" y="129"/>
      <point x="129" y="-10"/>
      <point x="327" y="-10" type="curve" smooth="yes"/>
      <point x="484" y="-10"/>
      <point x="569" y="74"/>
      <point x="569" y="201" type="curve" smooth="yes"/>
      <point x="569" y="318"/>
      <point x="492" y="399"/>
      <point x="361" y="399" type="curve" smooth="yes"/>
      <point x="263" y="399"/>
      <point x="220" y="350"/>
      <point x="220" y="290" type="curve" smooth="yes"/>
      <point x="220" y="228"/>
      <point x="262" y="193"/>
      <point x="321" y="193" type="curve" smooth="yes"/>
      <point x="389" y="193"/>
      <point x="422" y="236"/>
      <point x="422" y="291" type="curve" smooth="yes"/>
      <point x="422" y="339"/>
      <point x="394" y="371"/>
      <point x="351" y="381" type="curve"/>
      <point x="351" y="378" type="line"/>
      <point x="482" y="377"/>
      <point x="542" y="307"/>
      <point x="542" y="200" type="curve" smooth="yes"/>
      <point x="542" y="93"/>
      <point x="477" y="17"/>
      <point x="324" y="17" type="curve" smooth="yes"/>
      <point x="159" y="17"/>
      <point x="70" y="132"/>
      <point x="70" y="288" type="curve" smooth="yes"/>
      <point x="70" y="462"/>
      <point x="180" y="563"/>
      <point x="354" y="563" type="curve" smooth="yes"/>
      <point x="609" y="563"/>
      <point x="723" y="354"/>
      <point x="768" y="-2" type="curve"/>
      <point x="795" y="0" type="line"/>
      <point x="780" y="129"/>
      <point x="754" y="241"/>
      <point x="716" y="330" type="curve"/>
      <point x="709" y="341" type="line"/>
      <point x="643" y="497"/>
      <point x="526" y="589"/>
      <point x="355" y="589" type="curve" smooth="yes"/>
      <point x="161" y="589"/>
      <point x="43" y="472"/>
    </contour>
    <contour>
      <point x="396" y="293" type="curve" smooth="yes"/>
      <point x="396" y="251"/>
      <point x="373" y="218"/>
      <point x="321" y="218" type="curve" smooth="yes"/>
      <point x="267" y="218"/>
      <point x="246" y="250"/>
      <point x="246" y="290" type="curve" smooth="yes"/>
      <point x="246" y="332"/>
      <point x="270" y="368"/>
      <point x="321" y="368" type="curve" smooth="yes"/>
      <point x="368" y="368"/>
      <point x="396" y="339"/>
    </contour>
    <contour>
      <point x="927" y="-6" type="curve" smooth="yes"/>
      <point x="1086" y="-6"/>
      <point x="1165" y="93"/>
      <point x="1165" y="285" type="curve" smooth="yes"/>
      <point x="1165" y="435"/>
      <point x="1108" y="589"/>
      <point x="947" y="589" type="curve" smooth="yes"/>
      <point x="831" y="589"/>
      <point x="733" y="499"/>
      <point x="699" y="319" type="curve"/>
      <point x="721" y="307" type="line"/>
      <point x="751" y="468"/>
      <point x="838" y="563"/>
      <point x="945" y="563" type="curve" smooth="yes"/>
      <point x="1085" y="563"/>
      <point x="1138" y="430"/>
      <point x="1138" y="285" type="curve" smooth="yes"/>
      <point x="1138" y="111"/>
      <point x="1072" y="19"/>
      <point x="928" y="19" type="curve" smooth="yes"/>
      <point x="905" y="19"/>
      <point x="880" y="22"/>
      <point x="858" y="28" type="curve"/>
      <point x="852" y="2" type="line"/>
      <point x="868" y="-2"/>
      <point x="899" y="-6"/>
    </contour>
  </outline>
</glyph>
<glyph name="uni0DEC" format="2">
  <advance width="815"/>
  <unicode hex="0DEC"/>
  <outline>
    <contour>
      <point x="383" y="508" type="curve" smooth="yes"/>
      <point x="113" y="508"/>
      <point x="43" y="360"/>
      <point x="43" y="269" type="curve" smooth="yes"/>
      <point x="43" y="162"/>
      <point x="96" y="70"/>
      <point x="288" y="53" type="curve"/>
      <point x="291" y="80" type="line"/>
      <point x="120" y="93"/>
      <point x="70" y="169"/>
      <point x="70" y="269" type="curve" smooth="yes"/>
      <point x="70" y="346"/>
      <point x="130" y="482"/>
      <point x="383" y="482" type="curve" smooth="yes"/>
      <point x="565" y="482"/>
      <point x="674" y="421"/>
      <point x="740" y="328" type="curve"/>
      <point x="733" y="341" type="line"/>
      <point x="710" y="363"/>
      <point x="679" y="382"/>
      <point x="631" y="382" type="curve" smooth="yes"/>
      <point x="544" y="382"/>
      <point x="494" y="325"/>
      <point x="494" y="248" type="curve" smooth="yes"/>
      <point x="494" y="169"/>
      <point x="543" y="115"/>
      <point x="634" y="115" type="curve" smooth="yes"/>
      <point x="716" y="115"/>
      <point x="773" y="160"/>
      <point x="773" y="256" type="curve" smooth="yes"/>
      <point x="773" y="351"/>
      <point x="677" y="508"/>
    </contour>
    <contour>
      <point x="746" y="252" type="curve" smooth="yes"/>
      <point x="746" y="175"/>
      <point x="700" y="140"/>
      <point x="633" y="140" type="curve" smooth="yes"/>
      <point x="562" y="140"/>
      <point x="521" y="179"/>
      <point x="521" y="248" type="curve" smooth="yes"/>
      <point x="521" y="321"/>
      <point x="568" y="358"/>
      <point x="632" y="358" type="curve" smooth="yes"/>
      <point x="712" y="358"/>
      <point x="746" y="308"/>
    </contour>
  </outline>
</glyph>
<glyph name="uni0DED" format="2">
  <advance width="368"/>
  <unicode hex="0DED"/>
  <outline>
    <contour>
      <point x="48" y="579" type="line"/>
      <point x="48" y="554" type="line"/>
      <point x="187" y="554" type="line" smooth="yes"/>
      <point x="220" y="554"/>
      <point x="246" y="555"/>
      <point x="268" y="557" type="curve"/>
      <point x="264" y="558" type="line"/>
      <point x="102" y="407"/>
      <point x="57" y="281"/>
      <point x="57" y="177" type="curve" smooth="yes"/>
      <point x="57" y="28"/>
      <point x="144" y="-10"/>
      <point x="230" y="-10" type="curve" smooth="yes"/>
      <point x="275" y="-10"/>
      <point x="317" y="3"/>
      <point x="356" y="28" type="curve"/>
      <point x="342" y="51" type="line"/>
      <point x="312" y="29"/>
      <point x="274" y="17"/>
      <point x="228" y="17" type="curve" smooth="yes"/>
      <point x="136" y="17"/>
      <point x="84" y="67"/>
      <point x="84" y="180" type="curve" smooth="yes"/>
      <point x="84" y="309"/>
      <point x="163" y="429"/>
      <point x="293" y="552" type="curve"/>
      <point x="277" y="579" type="line"/>
    </contour>
  </outline>
</glyph>
<glyph name="llvocalicvowelsignsinh" format="2">
  <advance width="488"/>
  <unicode hex="0DF3"/>
  <outline>
    <contour>
      <point x="225" y="-10" type="curve" smooth="yes"/>
      <point x="318" y="-10"/>
      <point x="443" y="52"/>
      <point x="443" y="261" type="curve" smooth="yes"/>
      <point x="443" y="431"/>
      <point x="379" y="504"/>
      <point x="288" y="504" type="curve" smooth="yes"/>
      <point x="212" y="504"/>
      <point x="171" y="457"/>
      <point x="140" y="393" type="curve"/>
      <point x="164" y="386" type="line"/>
      <point x="200" y="454"/>
      <point x="236" y="479"/>
      <point x="287" y="479" type="curve" smooth="yes"/>
      <point x="370" y="479"/>
      <point x="416" y="403"/>
      <point x="416" y="261" type="curve" smooth="yes"/>
      <point x="416" y="78"/>
      <point x="319" y="15"/>
      <point x="225" y="15" type="curve" smooth="yes"/>
      <point x="164" y="15"/>
      <point x="129" y="41"/>
      <point x="129" y="91" type="curve" smooth="yes"/>
      <point x="129" y="133"/>
      <point x="158" y="158"/>
      <point x="212" y="158" type="curve" smooth="yes"/>
      <point x="278" y="158"/>
      <point x="331" y="124"/>
      <point x="385" y="82" type="curve"/>
      <point x="398" y="103" type="line"/>
      <point x="343" y="144"/>
      <point x="287" y="183"/>
      <point x="211" y="183" type="curve" smooth="yes"/>
      <point x="155" y="183"/>
      <point x="102" y="155"/>
      <point x="102" y="89" type="curve" smooth="yes"/>
      <point x="102" y="41"/>
      <point x="134" y="-10"/>
    </contour>
    <contour>
      <point x="172" y="231" type="curve" smooth="yes"/>
      <point x="249" y="231"/>
      <point x="288" y="271"/>
      <point x="288" y="326" type="curve" smooth="yes"/>
      <point x="288" y="380"/>
      <point x="251" y="408"/>
      <point x="200" y="408" type="curve" smooth="yes"/>
      <point x="180" y="408"/>
      <point x="169" y="404"/>
      <point x="159" y="401" type="curve"/>
      <point x="140" y="393" type="line"/>
      <point x="161" y="379" type="line"/>
      <point x="170" y="382"/>
      <point x="181" y="384"/>
      <point x="200" y="384" type="curve" smooth="yes"/>
      <point x="237" y="384"/>
      <point x="261" y="365"/>
      <point x="261" y="327" type="curve" smooth="yes"/>
      <point x="261" y="284"/>
      <point x="232" y="256"/>
      <point x="173" y="256" type="curve" smooth="yes"/>
      <point x="84" y="256"/>
      <point x="52" y="308"/>
      <point x="52" y="374" type="curve" smooth="yes"/>
      <point x="52" y="434"/>
      <point x="75" y="473"/>
      <point x="123" y="522" type="curve"/>
      <point x="102" y="538" type="line"/>
      <point x="56" y="492"/>
      <point x="25" y="439"/>
      <point x="25" y="375" type="curve" smooth="yes"/>
      <point x="25" y="302"/>
      <point x="60" y="231"/>
    </contour>
  </outline>
</glyph>
